<svg xmlns="http://www.w3.org/2000/svg" xmlns:xlink="http://www.w3.org/1999/xlink" width="2000" zoomAndPan="magnify" viewBox="0 0 1500 1499.999933" height="2000" preserveAspectRatio="xMidYMid meet" version="1.0"><defs><g/><clipPath id="d0434a1aae"><rect x="0" width="1384" y="0" height="672"/></clipPath></defs><g transform="matrix(1, 0, 0, 1, 48, 414)"><g clip-path="url(#d0434a1aae)"><g fill="#2563eb" fill-opacity="1"><g transform="translate(48.612957, 351.289323)"><g><path d="M 184.15625 -241.375 C 181.90625 -241.375 179.816406 -241.429688 177.890625 -241.546875 C 175.972656 -241.660156 174 -241.601562 171.96875 -241.375 C 168.132812 -240.925781 164.1875 -240.25 160.125 -239.34375 C 158.320312 -239.113281 156.457031 -238.71875 154.53125 -238.15625 C 152.613281 -237.59375 150.753906 -237.085938 148.953125 -236.640625 C 146.691406 -236.179688 144.488281 -235.671875 142.34375 -235.109375 C 140.207031 -234.546875 137.894531 -233.925781 135.40625 -233.25 C 133.601562 -233.019531 131.742188 -232.625 129.828125 -232.0625 C 127.910156 -231.5 126.046875 -230.992188 124.234375 -230.546875 C 122.878906 -230.316406 121.523438 -229.972656 120.171875 -229.515625 C 118.816406 -229.066406 117.460938 -228.617188 116.109375 -228.171875 C 114.753906 -227.941406 113.398438 -227.65625 112.046875 -227.3125 C 110.691406 -226.976562 109.335938 -226.585938 107.984375 -226.140625 C 106.410156 -225.910156 104.71875 -225.570312 102.90625 -225.125 C 101.101562 -224.675781 99.300781 -224.222656 97.5 -223.765625 C 96.59375 -223.546875 95.800781 -223.148438 95.125 -222.578125 C 94.445312 -222.015625 93.65625 -221.507812 92.75 -221.0625 C 93.207031 -217 93.601562 -212.878906 93.9375 -208.703125 C 94.28125 -204.523438 94.5625 -200.296875 94.78125 -196.015625 C 95.007812 -195.109375 94.953125 -194.203125 94.609375 -193.296875 C 94.273438 -192.398438 94.109375 -191.5 94.109375 -190.59375 C 93.878906 -190.144531 93.820312 -189.582031 93.9375 -188.90625 C 94.050781 -188.226562 93.992188 -187.660156 93.765625 -187.203125 C 93.765625 -184.953125 93.707031 -182.640625 93.59375 -180.265625 C 93.488281 -177.898438 93.320312 -175.472656 93.09375 -172.984375 C 92.863281 -170.054688 92.578125 -167.125 92.234375 -164.1875 C 91.898438 -161.25 91.507812 -158.316406 91.0625 -155.390625 C 90.832031 -152.679688 90.660156 -149.972656 90.546875 -147.265625 C 90.441406 -144.554688 90.273438 -141.847656 90.046875 -139.140625 C 90.046875 -138.910156 90.046875 -138.738281 90.046875 -138.625 C 90.046875 -138.507812 90.046875 -138.453125 90.046875 -138.453125 C 88.691406 -136.203125 88.015625 -133.722656 88.015625 -131.015625 C 88.015625 -128.304688 87.789062 -125.707031 87.34375 -123.21875 C 86.882812 -120.507812 86.65625 -117.742188 86.65625 -114.921875 C 86.65625 -112.109375 86.207031 -109.347656 85.3125 -106.640625 C 84.863281 -105.054688 84.582031 -103.53125 84.46875 -102.0625 C 84.351562 -100.59375 84.070312 -99.296875 83.625 -98.171875 C 82.71875 -95.910156 82.429688 -93.539062 82.765625 -91.0625 C 83.109375 -88.582031 82.488281 -86.210938 80.90625 -83.953125 C 80.457031 -83.054688 80.34375 -82.039062 80.5625 -80.90625 C 80.789062 -79.78125 80.679688 -78.65625 80.234375 -77.53125 C 79.109375 -74.820312 78.769531 -71.882812 79.21875 -68.71875 C 79.664062 -66.914062 79.210938 -65 77.859375 -62.96875 C 76.734375 -60.9375 76.226562 -58.847656 76.34375 -56.703125 C 76.457031 -54.554688 76.285156 -52.46875 75.828125 -50.4375 C 75.609375 -50.21875 75.550781 -49.9375 75.65625 -49.59375 C 75.769531 -49.257812 75.71875 -48.976562 75.5 -48.75 C 73.914062 -47.84375 73.289062 -46.597656 73.625 -45.015625 C 73.96875 -43.441406 73.914062 -41.976562 73.46875 -40.625 C 73.46875 -40.625 73.46875 -40.507812 73.46875 -40.28125 C 73.46875 -40.0625 73.46875 -39.953125 73.46875 -39.953125 C 71.882812 -38.367188 71.203125 -36.503906 71.421875 -34.359375 C 71.648438 -32.210938 71.425781 -30.238281 70.75 -28.4375 C 69.851562 -26.175781 69.175781 -23.972656 68.71875 -21.828125 C 68.269531 -19.691406 67.820312 -17.378906 67.375 -14.890625 C 66.695312 -10.828125 66.019531 -6.707031 65.34375 -2.53125 C 64.664062 1.632812 63.875 5.863281 62.96875 10.15625 C 62.738281 12.414062 62.34375 14.5625 61.78125 16.59375 C 61.21875 18.625 60.710938 20.765625 60.265625 23.015625 C 60.035156 24.597656 59.804688 26.175781 59.578125 27.75 C 59.359375 29.332031 59.019531 31.03125 58.5625 32.84375 C 58.34375 34.414062 57.945312 36.101562 57.375 37.90625 C 56.8125 39.71875 56.304688 41.640625 55.859375 43.671875 C 55.179688 42.765625 54.671875 42.140625 54.328125 41.796875 C 53.992188 41.460938 53.828125 41.296875 53.828125 41.296875 C 52.921875 41.523438 52.015625 41.804688 51.109375 42.140625 C 50.210938 42.484375 49.3125 42.65625 48.40625 42.65625 C 47.957031 42.65625 47.453125 42.425781 46.890625 41.96875 C 46.328125 41.519531 45.707031 41.1875 45.03125 40.96875 C 44.125 42.09375 42.425781 42.710938 39.9375 42.828125 C 37.457031 42.941406 35.539062 42.207031 34.1875 40.625 C 31.476562 41.75 28.9375 41.800781 26.5625 40.78125 C 24.195312 39.769531 22.453125 37.800781 21.328125 34.875 C 20.203125 31.488281 19.46875 28.046875 19.125 24.546875 C 18.789062 21.046875 18.625 17.488281 18.625 13.875 C 18.394531 10.488281 18.164062 7.101562 17.9375 3.71875 C 17.71875 0.332031 17.378906 -3.050781 16.921875 -6.4375 C 16.921875 -7.332031 16.921875 -8.175781 16.921875 -8.96875 C 16.921875 -9.757812 16.921875 -10.609375 16.921875 -11.515625 C 16.921875 -17.148438 16.863281 -22.734375 16.75 -28.265625 C 16.644531 -33.796875 16.59375 -39.382812 16.59375 -45.03125 C 16.363281 -48.863281 16.304688 -52.753906 16.421875 -56.703125 C 16.535156 -60.648438 16.816406 -64.546875 17.265625 -68.390625 C 17.710938 -71.546875 17.992188 -74.816406 18.109375 -78.203125 C 18.222656 -81.585938 18.394531 -84.859375 18.625 -88.015625 C 19.070312 -91.847656 19.632812 -95.738281 20.3125 -99.6875 C 20.988281 -103.644531 21.550781 -107.539062 22 -111.375 C 22.457031 -113.851562 22.6875 -116.273438 22.6875 -118.640625 C 22.6875 -121.015625 23.023438 -123.332031 23.703125 -125.59375 C 24.148438 -127.851562 24.429688 -130.164062 24.546875 -132.53125 C 24.660156 -134.90625 25.394531 -137.21875 26.75 -139.46875 C 27.195312 -139.925781 27.304688 -140.601562 27.078125 -141.5 C 26.859375 -142.40625 26.859375 -143.3125 27.078125 -144.21875 C 27.984375 -148.726562 28.941406 -153.296875 29.953125 -157.921875 C 30.972656 -162.546875 31.9375 -167.117188 32.84375 -171.640625 C 33.738281 -176.597656 34.921875 -181.390625 36.390625 -186.015625 C 37.859375 -190.648438 39.382812 -195.222656 40.96875 -199.734375 C 41.414062 -201.316406 41.863281 -202.835938 42.3125 -204.296875 C 42.769531 -205.765625 43.222656 -207.289062 43.671875 -208.875 C 42.546875 -208.644531 41.359375 -208.472656 40.109375 -208.359375 C 38.867188 -208.253906 37.6875 -207.972656 36.5625 -207.515625 C 34.757812 -207.296875 32.894531 -206.847656 30.96875 -206.171875 C 29.050781 -205.492188 27.191406 -204.925781 25.390625 -204.46875 C 23.128906 -204.25 20.867188 -203.96875 18.609375 -203.625 C 16.359375 -203.289062 14.101562 -203.007812 11.84375 -202.78125 C 8.238281 -202.332031 4.742188 -201.878906 1.359375 -201.421875 C -2.023438 -200.972656 -5.523438 -200.632812 -9.140625 -200.40625 C -11.617188 -200.1875 -14.210938 -200.078125 -16.921875 -200.078125 C -19.628906 -200.078125 -22.226562 -200.1875 -24.71875 -200.40625 C -27.195312 -200.632812 -29.617188 -200.972656 -31.984375 -201.421875 C -34.359375 -201.878906 -36.785156 -202.21875 -39.265625 -202.4375 C -41.078125 -202.664062 -42.320312 -203.398438 -43 -204.640625 C -43.675781 -205.878906 -43.675781 -207.289062 -43 -208.875 C -42.769531 -209.320312 -42.539062 -209.769531 -42.3125 -210.21875 C -42.09375 -210.675781 -41.984375 -211.128906 -41.984375 -211.578125 C -41.523438 -212.710938 -41.015625 -213.726562 -40.453125 -214.625 C -39.890625 -215.53125 -38.929688 -216.207031 -37.578125 -216.65625 C -36.898438 -216.882812 -36.28125 -217.335938 -35.71875 -218.015625 C -35.15625 -218.691406 -34.535156 -219.253906 -33.859375 -219.703125 C -32.046875 -221.515625 -30.179688 -222.925781 -28.265625 -223.9375 C -26.347656 -224.957031 -24.257812 -225.804688 -22 -226.484375 C -19.289062 -227.378906 -16.640625 -228.28125 -14.046875 -229.1875 C -11.453125 -230.09375 -8.800781 -230.992188 -6.09375 -231.890625 C -4.289062 -232.566406 -2.425781 -233.242188 -0.5 -233.921875 C 1.414062 -234.597656 3.273438 -235.164062 5.078125 -235.625 C 7.109375 -236.300781 9.082031 -237.03125 11 -237.8125 C 12.914062 -238.601562 14.890625 -239.226562 16.921875 -239.6875 C 17.828125 -240.132812 18.726562 -240.359375 19.625 -240.359375 C 20.53125 -240.359375 21.4375 -240.472656 22.34375 -240.703125 C 24.820312 -241.597656 27.300781 -242.5 29.78125 -243.40625 C 32.269531 -244.3125 34.753906 -245.210938 37.234375 -246.109375 C 38.585938 -246.566406 39.941406 -246.847656 41.296875 -246.953125 C 42.648438 -247.066406 44.117188 -247.238281 45.703125 -247.46875 C 47.734375 -247.914062 49.765625 -248.476562 51.796875 -249.15625 C 53.828125 -249.832031 55.972656 -250.398438 58.234375 -250.859375 C 59.359375 -251.304688 60.597656 -251.640625 61.953125 -251.859375 C 63.304688 -252.085938 64.660156 -252.316406 66.015625 -252.546875 C 67.140625 -252.773438 68.320312 -253.054688 69.5625 -253.390625 C 70.8125 -253.734375 72.113281 -254.015625 73.46875 -254.234375 C 74.59375 -254.460938 75.832031 -254.628906 77.1875 -254.734375 C 78.539062 -254.847656 79.894531 -255.019531 81.25 -255.25 C 81.476562 -255.25 81.703125 -255.191406 81.921875 -255.078125 C 82.148438 -254.960938 82.378906 -255.019531 82.609375 -255.25 C 85.765625 -256.375 89.085938 -257.160156 92.578125 -257.609375 C 96.078125 -258.066406 99.519531 -258.519531 102.90625 -258.96875 C 106.070312 -259.644531 109.289062 -260.320312 112.5625 -261 C 115.832031 -261.675781 119.160156 -262.128906 122.546875 -262.359375 C 124.347656 -262.359375 126.148438 -262.582031 127.953125 -263.03125 C 129.765625 -263.488281 131.570312 -263.828125 133.375 -264.046875 C 136.988281 -264.503906 140.597656 -265.070312 144.203125 -265.75 C 147.816406 -266.425781 151.429688 -266.765625 155.046875 -266.765625 C 157.523438 -266.984375 160.117188 -267.09375 162.828125 -267.09375 C 165.535156 -267.09375 168.242188 -266.53125 170.953125 -265.40625 C 172.984375 -264.5 174.957031 -263.648438 176.875 -262.859375 C 178.800781 -262.078125 180.210938 -260.554688 181.109375 -258.296875 C 182.015625 -256.492188 182.632812 -254.578125 182.96875 -252.546875 C 183.3125 -250.515625 183.597656 -248.484375 183.828125 -246.453125 C 184.046875 -245.328125 184.15625 -243.632812 184.15625 -241.375 Z M 61.28125 -213.28125 C 58.113281 -203.34375 55.457031 -193.351562 53.3125 -183.3125 C 51.175781 -173.269531 49.316406 -163.285156 47.734375 -153.359375 C 46.148438 -143.421875 44.796875 -133.429688 43.671875 -123.390625 C 42.546875 -113.347656 41.304688 -103.25 39.953125 -93.09375 C 39.953125 -93.09375 40.003906 -93.09375 40.109375 -93.09375 C 40.222656 -93.09375 40.28125 -93.09375 40.28125 -93.09375 C 43.894531 -113.175781 47.394531 -133.203125 50.78125 -153.171875 C 54.164062 -173.148438 57.664062 -193.1875 61.28125 -213.28125 Z M 61.28125 -213.28125 "/></g></g></g><g fill="#2563eb" fill-opacity="1"><g transform="translate(164.730862, 351.289323)"><g><path d="M 178.40625 -102.90625 C 181.113281 -102.226562 182.914062 -100.476562 183.8125 -97.65625 C 184.71875 -94.84375 185.054688 -91.742188 184.828125 -88.359375 C 184.609375 -84.972656 184.273438 -81.925781 183.828125 -79.21875 C 183.367188 -77.863281 182.96875 -76.453125 182.625 -74.984375 C 182.289062 -73.515625 181.898438 -71.992188 181.453125 -70.421875 C 181.222656 -68.835938 180.769531 -67.140625 180.09375 -65.328125 C 179.414062 -63.523438 178.851562 -61.722656 178.40625 -59.921875 C 178.175781 -59.015625 177.945312 -58.050781 177.71875 -57.03125 C 177.5 -56.019531 177.164062 -54.953125 176.71875 -53.828125 C 175.8125 -50.210938 174.789062 -46.710938 173.65625 -43.328125 C 172.53125 -39.941406 171.40625 -36.445312 170.28125 -32.84375 C 169.601562 -30.582031 169.035156 -28.320312 168.578125 -26.0625 C 168.128906 -23.8125 167.566406 -21.554688 166.890625 -19.296875 C 165.992188 -16.140625 165.035156 -12.921875 164.015625 -9.640625 C 163.003906 -6.367188 161.929688 -3.15625 160.796875 0 C 159.898438 2.9375 159.054688 5.8125 158.265625 8.625 C 157.472656 11.445312 156.515625 14.210938 155.390625 16.921875 C 154.253906 19.859375 153.007812 22.847656 151.65625 25.890625 C 150.300781 28.941406 149.0625 32.046875 147.9375 35.203125 C 147.257812 36.785156 146.640625 38.535156 146.078125 40.453125 C 145.515625 42.367188 144.894531 44.234375 144.21875 46.046875 C 140.375 55.066406 133.828125 60.367188 124.578125 61.953125 C 122.992188 62.179688 121.46875 62.632812 120 63.3125 C 118.539062 63.988281 116.90625 64.550781 115.09375 65 C 112.84375 65.445312 110.414062 65.835938 107.8125 66.171875 C 105.21875 66.515625 102.679688 66.578125 100.203125 66.359375 C 98.171875 66.359375 96.253906 65.226562 94.453125 62.96875 C 92.867188 60.707031 91.34375 58.445312 89.875 56.1875 C 88.40625 53.9375 87.109375 51.570312 85.984375 49.09375 C 83.503906 43.445312 81.414062 37.742188 79.71875 31.984375 C 78.03125 26.234375 76.507812 20.425781 75.15625 14.5625 C 73.351562 5.976562 71.660156 -2.65625 70.078125 -11.34375 C 68.492188 -20.03125 67.363281 -28.773438 66.6875 -37.578125 C 66.238281 -43.898438 65.734375 -50.21875 65.171875 -56.53125 C 64.609375 -62.851562 64.097656 -69.175781 63.640625 -75.5 C 63.421875 -77.53125 63.363281 -79.613281 63.46875 -81.75 C 63.582031 -83.894531 63.53125 -86.097656 63.3125 -88.359375 C 63.3125 -89.035156 63.253906 -89.765625 63.140625 -90.546875 C 63.023438 -91.335938 62.742188 -92.1875 62.296875 -93.09375 C 61.617188 -92.414062 61.28125 -91.851562 61.28125 -91.40625 C 60.375 -89.144531 59.410156 -86.773438 58.390625 -84.296875 C 57.378906 -81.816406 56.3125 -79.332031 55.1875 -76.84375 C 54.507812 -75.269531 53.882812 -73.632812 53.3125 -71.9375 C 52.75 -70.25 52.019531 -68.5 51.125 -66.6875 C 48.863281 -61.726562 46.601562 -56.820312 44.34375 -51.96875 C 42.09375 -47.113281 39.835938 -42.203125 37.578125 -37.234375 C 35.992188 -34.304688 34.46875 -31.257812 33 -28.09375 C 31.539062 -24.9375 30.019531 -21.78125 28.4375 -18.625 C 26.40625 -14.332031 24.144531 -10.15625 21.65625 -6.09375 C 19.175781 -2.03125 16.019531 1.46875 12.1875 4.40625 C 10.382812 5.757812 8.351562 6.828125 6.09375 7.609375 C 3.832031 8.398438 1.578125 9.25 -0.671875 10.15625 C -2.484375 10.601562 -4.40625 11.050781 -6.4375 11.5 C -8.46875 11.957031 -10.382812 12.410156 -12.1875 12.859375 C -15.125 13.316406 -17.550781 12.921875 -19.46875 11.671875 C -21.382812 10.429688 -22.566406 8.457031 -23.015625 5.75 C -23.472656 3.039062 -23.867188 0.28125 -24.203125 -2.53125 C -24.546875 -5.351562 -24.601562 -8.117188 -24.375 -10.828125 C -23.925781 -16.242188 -23.414062 -21.660156 -22.84375 -27.078125 C -22.28125 -32.492188 -21.550781 -37.800781 -20.65625 -43 C -18.84375 -52.476562 -16.46875 -61.84375 -13.53125 -71.09375 C -10.601562 -80.34375 -7.109375 -89.484375 -3.046875 -98.515625 C 0.566406 -106.410156 4.628906 -113.910156 9.140625 -121.015625 C 13.648438 -128.128906 18.503906 -135.070312 23.703125 -141.84375 C 26.179688 -145.226562 29 -148.441406 32.15625 -151.484375 C 35.320312 -154.535156 39.046875 -156.851562 43.328125 -158.4375 C 46.035156 -159.5625 48.859375 -160.289062 51.796875 -160.625 C 54.734375 -160.96875 57.664062 -161.476562 60.59375 -162.15625 C 62.175781 -162.601562 63.082031 -163.164062 63.3125 -163.84375 C 64.207031 -165.65625 64.992188 -167.460938 65.671875 -169.265625 C 66.347656 -171.066406 66.914062 -172.875 67.375 -174.6875 C 68.5 -177.613281 69.566406 -180.488281 70.578125 -183.3125 C 71.597656 -186.132812 73.125 -188.785156 75.15625 -191.265625 C 75.15625 -191.265625 76.28125 -191.882812 78.53125 -193.125 C 80.789062 -194.375 83.613281 -194.710938 87 -194.140625 C 90.382812 -193.578125 93.769531 -190.585938 97.15625 -185.171875 C 98.0625 -183.816406 98.625 -182.800781 98.84375 -182.125 C 99.300781 -181.445312 99.695312 -180.769531 100.03125 -180.09375 C 100.375 -179.414062 100.65625 -178.738281 100.875 -178.0625 C 101.550781 -175.8125 101.945312 -173.613281 102.0625 -171.46875 C 102.175781 -169.320312 102.007812 -167.007812 101.5625 -164.53125 C 101.332031 -162.269531 101.101562 -159.953125 100.875 -157.578125 C 100.65625 -155.210938 100.546875 -152.789062 100.546875 -150.3125 C 100.546875 -148.726562 100.65625 -147.144531 100.875 -145.5625 C 101.101562 -143.988281 101.21875 -142.296875 101.21875 -140.484375 C 101.445312 -134.171875 101.445312 -127.851562 101.21875 -121.53125 C 101.21875 -117.019531 101.160156 -112.503906 101.046875 -107.984375 C 100.929688 -103.472656 100.875 -98.960938 100.875 -94.453125 C 100.875 -90.835938 101.15625 -87.222656 101.71875 -83.609375 C 102.289062 -80.003906 102.347656 -76.394531 101.890625 -72.78125 C 101.671875 -69.851562 101.898438 -66.976562 102.578125 -64.15625 C 103.253906 -61.332031 103.476562 -58.453125 103.25 -55.515625 C 103.019531 -53.484375 103.070312 -51.453125 103.40625 -49.421875 C 103.75 -47.390625 104.035156 -45.359375 104.265625 -43.328125 C 104.710938 -39.265625 105.101562 -35.203125 105.4375 -31.140625 C 105.78125 -27.078125 106.179688 -23.015625 106.640625 -18.953125 C 107.085938 -16.703125 107.535156 -14.390625 107.984375 -12.015625 C 108.441406 -9.648438 108.894531 -7.222656 109.34375 -4.734375 C 110.019531 -0.453125 110.753906 3.832031 111.546875 8.125 C 112.335938 12.414062 113.179688 16.703125 114.078125 20.984375 C 114.304688 22.117188 114.644531 23.25 115.09375 24.375 C 115.550781 25.5 116.117188 26.628906 116.796875 27.765625 C 118.597656 22.796875 120.515625 17.828125 122.546875 12.859375 C 124.578125 7.898438 126.492188 2.9375 128.296875 -2.03125 C 130.785156 -8.570312 133.15625 -15.171875 135.40625 -21.828125 C 137.664062 -28.492188 139.925781 -35.097656 142.1875 -41.640625 C 143.988281 -46.828125 145.789062 -52.070312 147.59375 -57.375 C 149.40625 -62.6875 151.210938 -68.050781 153.015625 -73.46875 C 153.691406 -75.71875 154.367188 -77.914062 155.046875 -80.0625 C 155.722656 -82.207031 156.515625 -84.40625 157.421875 -86.65625 C 157.421875 -86.882812 158.378906 -88.519531 160.296875 -91.5625 C 162.210938 -94.613281 164.75 -97.492188 167.90625 -100.203125 C 171.070312 -102.910156 174.570312 -103.8125 178.40625 -102.90625 Z M 8.125 -36.21875 C 15.125 -51.789062 22.117188 -67.421875 29.109375 -83.109375 C 36.109375 -98.796875 43.109375 -114.535156 50.109375 -130.328125 C 48.753906 -130.109375 48.078125 -129.882812 48.078125 -129.65625 C 45.816406 -126.71875 43.390625 -123.722656 40.796875 -120.671875 C 38.203125 -117.628906 35.890625 -114.53125 33.859375 -111.375 C 32.046875 -108.4375 30.460938 -105.390625 29.109375 -102.234375 C 27.753906 -99.078125 26.289062 -95.914062 24.71875 -92.75 C 24.488281 -92.070312 24.144531 -91.507812 23.6875 -91.0625 C 23.238281 -90.613281 22.789062 -90.160156 22.34375 -89.703125 C 22.113281 -88.804688 21.941406 -87.960938 21.828125 -87.171875 C 21.722656 -86.378906 21.554688 -85.535156 21.328125 -84.640625 C 19.972656 -81.253906 18.617188 -77.921875 17.265625 -74.640625 C 15.910156 -71.367188 14.671875 -68.039062 13.546875 -64.65625 C 12.191406 -60.375 11.003906 -56.085938 9.984375 -51.796875 C 8.972656 -47.503906 7.898438 -43.21875 6.765625 -38.9375 C 6.546875 -38.476562 6.488281 -38.078125 6.59375 -37.734375 C 6.707031 -37.398438 6.765625 -37.007812 6.765625 -36.5625 C 7.222656 -36.332031 7.675781 -36.21875 8.125 -36.21875 Z M 81.921875 -11.84375 C 82.148438 -11.84375 82.320312 -11.84375 82.4375 -11.84375 C 82.550781 -11.84375 82.71875 -11.84375 82.9375 -11.84375 C 82.039062 -19.75 81.023438 -27.59375 79.890625 -35.375 C 78.765625 -43.164062 77.640625 -50.894531 76.515625 -58.5625 C 76.285156 -58.5625 76.113281 -58.5625 76 -58.5625 C 75.882812 -58.5625 75.71875 -58.5625 75.5 -58.5625 C 76.625 -50.894531 77.75 -43.164062 78.875 -35.375 C 80.007812 -27.59375 81.023438 -19.75 81.921875 -11.84375 Z M 81.921875 -11.84375 "/></g></g></g><g fill="#2563eb" fill-opacity="1"><g transform="translate(323.16579, 351.289323)"><g><path d="M 125.59375 -100.875 C 129.207031 -99.300781 131.742188 -96.820312 133.203125 -93.4375 C 134.671875 -90.050781 134.726562 -86.550781 133.375 -82.9375 L 82.265625 41.984375 C 82.035156 42.878906 81.75 43.78125 81.40625 44.6875 C 81.070312 45.59375 80.679688 46.609375 80.234375 47.734375 C 80.234375 47.734375 79.328125 49.535156 77.515625 53.140625 C 75.710938 56.753906 73.175781 60.757812 69.90625 65.15625 C 66.632812 69.5625 62.6875 73.117188 58.0625 75.828125 C 53.4375 78.535156 48.1875 78.988281 42.3125 77.1875 C 39.601562 76.28125 37.460938 75.828125 35.890625 75.828125 C 29.796875 74.472656 25.617188 70.976562 23.359375 65.34375 C 22.453125 63.082031 21.4375 60.9375 20.3125 58.90625 C 19.1875 56.875 18.171875 54.726562 17.265625 52.46875 C 16.359375 49.988281 15.566406 47.453125 14.890625 44.859375 C 14.210938 42.265625 13.535156 39.613281 12.859375 36.90625 C 11.960938 33.0625 11.117188 29.222656 10.328125 25.390625 C 9.535156 21.554688 8.6875 17.71875 7.78125 13.875 C 7.5625 12.75 7.394531 11.507812 7.28125 10.15625 C 7.164062 8.800781 6.992188 7.445312 6.765625 6.09375 C 6.546875 4.0625 6.320312 2.085938 6.09375 0.171875 C 5.863281 -1.742188 5.523438 -3.71875 5.078125 -5.75 C 4.847656 -8.914062 4.5625 -12.191406 4.21875 -15.578125 C 3.882812 -18.960938 3.492188 -22.234375 3.046875 -25.390625 C 2.816406 -27.421875 2.703125 -29.507812 2.703125 -31.65625 C 2.703125 -33.800781 2.476562 -35.890625 2.03125 -37.921875 C 1.800781 -38.816406 1.347656 -39.601562 0.671875 -40.28125 C -0.00390625 -40.957031 -0.566406 -41.75 -1.015625 -42.65625 C -1.460938 -43.5625 -1.6875 -44.238281 -1.6875 -44.6875 C -1.6875 -45.8125 -1.628906 -46.769531 -1.515625 -47.5625 C -1.410156 -48.351562 -1.242188 -49.203125 -1.015625 -50.109375 C -0.566406 -53.035156 -0.175781 -55.910156 0.15625 -58.734375 C 0.5 -61.554688 0.671875 -64.4375 0.671875 -67.375 C 0.898438 -70.53125 0.84375 -73.628906 0.5 -76.671875 C 0.164062 -79.722656 0 -82.710938 0 -85.640625 C 0 -87.671875 0 -89.703125 0 -91.734375 C 0 -93.765625 0.113281 -95.6875 0.34375 -97.5 C 0.789062 -101.332031 1.179688 -105 1.515625 -108.5 C 1.859375 -112 2.144531 -115.550781 2.375 -119.15625 C 2.59375 -120.507812 2.644531 -121.804688 2.53125 -123.046875 C 2.425781 -124.296875 2.484375 -125.597656 2.703125 -126.953125 C 3.160156 -130.554688 3.554688 -134.050781 3.890625 -137.4375 C 4.234375 -140.820312 4.515625 -144.207031 4.734375 -147.59375 C 5.191406 -150.757812 5.585938 -153.863281 5.921875 -156.90625 C 6.265625 -159.957031 6.660156 -162.945312 7.109375 -165.875 C 8.234375 -171.070312 9.300781 -176.265625 10.3125 -181.453125 C 11.332031 -186.640625 12.410156 -191.832031 13.546875 -197.03125 C 15.578125 -206.507812 17.945312 -215.535156 20.65625 -224.109375 C 22.007812 -228.398438 23.585938 -232.578125 25.390625 -236.640625 C 27.191406 -240.703125 29.222656 -244.648438 31.484375 -248.484375 C 32.609375 -250.066406 33.566406 -251.703125 34.359375 -253.390625 C 35.148438 -255.078125 36 -256.710938 36.90625 -258.296875 C 37.800781 -259.648438 38.753906 -260.890625 39.765625 -262.015625 C 40.785156 -263.148438 42.085938 -263.941406 43.671875 -264.390625 C 44.796875 -264.835938 45.863281 -265.398438 46.875 -266.078125 C 47.894531 -266.753906 48.859375 -267.429688 49.765625 -268.109375 C 49.992188 -268.109375 50.160156 -268.222656 50.265625 -268.453125 C 50.378906 -268.679688 50.550781 -268.796875 50.78125 -268.796875 C 53.039062 -268.335938 54.507812 -268.785156 55.1875 -270.140625 C 55.863281 -271.492188 56.648438 -272.738281 57.546875 -273.875 C 57.546875 -274.09375 57.773438 -274.09375 58.234375 -273.875 C 59.128906 -274.320312 59.972656 -274.710938 60.765625 -275.046875 C 61.554688 -275.390625 62.40625 -275.675781 63.3125 -275.90625 C 63.3125 -275.90625 63.3125 -275.957031 63.3125 -276.0625 C 63.3125 -276.175781 63.3125 -276.234375 63.3125 -276.234375 C 64.207031 -276.910156 65.109375 -277.585938 66.015625 -278.265625 C 66.921875 -278.941406 67.9375 -279.734375 69.0625 -280.640625 C 69.507812 -279.734375 70.015625 -278.941406 70.578125 -278.265625 C 71.148438 -277.585938 71.546875 -276.800781 71.765625 -275.90625 C 72.222656 -272.96875 72.789062 -270.085938 73.46875 -267.265625 C 74.144531 -264.441406 74.59375 -261.566406 74.8125 -258.640625 C 75.269531 -253.671875 75.609375 -248.757812 75.828125 -243.90625 C 76.054688 -239.0625 76.171875 -234.15625 76.171875 -229.1875 C 76.171875 -226.925781 75.941406 -224.609375 75.484375 -222.234375 C 75.035156 -219.867188 74.585938 -217.445312 74.140625 -214.96875 C 73.910156 -211.132812 73.570312 -207.296875 73.125 -203.453125 C 72.675781 -199.617188 72.335938 -195.785156 72.109375 -191.953125 C 71.660156 -184.273438 71.320312 -176.484375 71.09375 -168.578125 C 70.863281 -160.679688 70.523438 -152.785156 70.078125 -144.890625 C 69.847656 -140.148438 69.675781 -135.351562 69.5625 -130.5 C 69.457031 -125.644531 69.175781 -120.847656 68.71875 -116.109375 C 68.5 -110.015625 68.160156 -103.921875 67.703125 -97.828125 C 67.253906 -91.734375 66.914062 -85.644531 66.6875 -79.5625 C 66.46875 -73.46875 66.1875 -67.425781 65.84375 -61.4375 C 65.507812 -55.457031 65.34375 -49.421875 65.34375 -43.328125 C 65.113281 -34.304688 64.941406 -25.222656 64.828125 -16.078125 C 64.710938 -6.941406 64.65625 2.253906 64.65625 11.515625 L 107.65625 -93.4375 C 109.007812 -97.039062 111.429688 -99.578125 114.921875 -101.046875 C 118.421875 -102.515625 121.976562 -102.457031 125.59375 -100.875 Z M 43.328125 -40.28125 C 43.785156 -53.820312 44.125 -67.304688 44.34375 -80.734375 C 44.570312 -94.160156 44.800781 -107.644531 45.03125 -121.1875 C 44.800781 -121.1875 44.628906 -121.1875 44.515625 -121.1875 C 44.398438 -121.1875 44.34375 -121.1875 44.34375 -121.1875 C 42.3125 -107.875 41.410156 -94.445312 41.640625 -80.90625 C 41.867188 -67.363281 42.429688 -53.820312 43.328125 -40.28125 Z M 43.328125 -40.28125 "/></g></g></g><g fill="#2563eb" fill-opacity="1"><g transform="translate(430.820258, 351.289323)"><g><path d="M 144.546875 -100.546875 C 147.929688 -98.960938 150.300781 -96.363281 151.65625 -92.75 C 153.007812 -89.144531 152.898438 -85.648438 151.328125 -82.265625 C 150.421875 -80.003906 148.046875 -75.207031 144.203125 -67.875 C 140.367188 -60.539062 135.347656 -52.191406 129.140625 -42.828125 C 122.941406 -33.460938 115.78125 -24.429688 107.65625 -15.734375 C 99.53125 -7.046875 90.726562 -0.222656 81.25 4.734375 C 79.664062 6.316406 77.859375 7.554688 75.828125 8.453125 C 73.796875 9.359375 71.765625 10.378906 69.734375 11.515625 C 66.804688 12.867188 63.703125 13.597656 60.421875 13.703125 C 57.148438 13.816406 53.9375 13.648438 50.78125 13.203125 C 47.164062 12.523438 43.609375 11.847656 40.109375 11.171875 C 36.617188 10.492188 33.066406 9.703125 29.453125 8.796875 C 22.453125 7.222656 17.035156 3.273438 13.203125 -3.046875 C 12.753906 -3.722656 12.300781 -4.738281 11.84375 -6.09375 C 11.394531 -7.21875 10.890625 -8.234375 10.328125 -9.140625 C 9.765625 -10.046875 9.253906 -10.945312 8.796875 -11.84375 C 8.347656 -12.519531 7.894531 -13.140625 7.4375 -13.703125 C 6.988281 -14.273438 6.539062 -14.898438 6.09375 -15.578125 C 4.738281 -18.734375 3.441406 -21.773438 2.203125 -24.703125 C 0.960938 -27.640625 -0.222656 -30.578125 -1.359375 -33.515625 C -2.484375 -37.347656 -3.550781 -41.179688 -4.5625 -45.015625 C -5.582031 -48.859375 -5.976562 -52.8125 -5.75 -56.875 C -5.53125 -60.9375 -5.472656 -65 -5.578125 -69.0625 C -5.691406 -73.125 -5.523438 -77.070312 -5.078125 -80.90625 C -4.847656 -84.0625 -4.335938 -87.050781 -3.546875 -89.875 C -2.765625 -92.695312 -1.921875 -95.578125 -1.015625 -98.515625 C 1.691406 -105.960938 5.078125 -113.519531 9.140625 -121.1875 C 11.398438 -125.476562 13.710938 -129.710938 16.078125 -133.890625 C 18.453125 -138.066406 20.878906 -142.1875 23.359375 -146.25 C 25.617188 -149.632812 27.988281 -152.960938 30.46875 -156.234375 C 32.945312 -159.503906 35.539062 -162.609375 38.25 -165.546875 C 40.507812 -168.023438 42.992188 -170.335938 45.703125 -172.484375 C 48.410156 -174.628906 51.234375 -176.601562 54.171875 -178.40625 C 54.847656 -178.851562 56.878906 -179.753906 60.265625 -181.109375 C 63.648438 -182.460938 67.597656 -183.535156 72.109375 -184.328125 C 76.617188 -185.117188 81.070312 -185.003906 85.46875 -183.984375 C 89.875 -182.972656 93.488281 -180.265625 96.3125 -175.859375 C 99.132812 -171.460938 100.316406 -164.640625 99.859375 -155.390625 C 99.410156 -150.867188 98.734375 -146.238281 97.828125 -141.5 C 95.796875 -134.050781 93.539062 -126.601562 91.0625 -119.15625 C 90.382812 -116.90625 89.535156 -114.765625 88.515625 -112.734375 C 87.503906 -110.703125 86.4375 -108.671875 85.3125 -106.640625 C 84.40625 -104.609375 83.332031 -102.519531 82.09375 -100.375 C 80.851562 -98.226562 79.554688 -96.023438 78.203125 -93.765625 C 77.296875 -92.191406 76.164062 -90.671875 74.8125 -89.203125 C 73.457031 -87.734375 72.21875 -86.097656 71.09375 -84.296875 C 70.644531 -83.617188 70.132812 -82.941406 69.5625 -82.265625 C 69 -81.585938 68.492188 -80.910156 68.046875 -80.234375 C 66.921875 -78.648438 65.734375 -76.957031 64.484375 -75.15625 C 63.242188 -73.351562 61.835938 -71.773438 60.265625 -70.421875 C 58.003906 -68.390625 55.6875 -66.410156 53.3125 -64.484375 C 50.945312 -62.566406 48.523438 -60.707031 46.046875 -58.90625 C 45.367188 -58.226562 44.691406 -57.609375 44.015625 -57.046875 C 43.335938 -56.484375 42.882812 -55.632812 42.65625 -54.5 C 42.425781 -51.34375 42.140625 -48.128906 41.796875 -44.859375 C 41.460938 -41.585938 41.1875 -38.367188 40.96875 -35.203125 C 40.738281 -34.304688 41.019531 -33.289062 41.8125 -32.15625 C 42.601562 -31.03125 43.109375 -29.90625 43.328125 -28.78125 C 44.003906 -26.519531 45.300781 -24.878906 47.21875 -23.859375 C 49.144531 -22.847656 50.894531 -21.78125 52.46875 -20.65625 C 53.375 -19.976562 54.726562 -19.863281 56.53125 -20.3125 C 60.375 -20.757812 64.039062 -21.546875 67.53125 -22.671875 C 71.03125 -23.804688 74.363281 -25.503906 77.53125 -27.765625 C 79.5625 -29.335938 81.535156 -30.914062 83.453125 -32.5 C 85.367188 -34.082031 87.34375 -35.660156 89.375 -37.234375 C 97.269531 -45.816406 104.429688 -55.46875 110.859375 -66.1875 C 117.296875 -76.90625 122.320312 -86.097656 125.9375 -93.765625 C 127.738281 -97.148438 130.390625 -99.519531 133.890625 -100.875 C 137.390625 -102.226562 140.941406 -102.117188 144.546875 -100.546875 Z M 54.171875 -101.890625 C 53.492188 -99.640625 52.816406 -97.328125 52.140625 -94.953125 C 51.460938 -92.585938 50.671875 -90.160156 49.765625 -87.671875 C 49.992188 -87.453125 50.332031 -87.34375 50.78125 -87.34375 C 58.457031 -97.269531 64.890625 -107.816406 70.078125 -118.984375 C 75.265625 -130.160156 78.988281 -141.957031 81.25 -154.375 C 79.21875 -152.789062 77.804688 -150.8125 77.015625 -148.4375 C 76.222656 -146.070312 74.585938 -144.328125 72.109375 -143.203125 C 71.660156 -140.941406 70.585938 -138.851562 68.890625 -136.9375 C 67.203125 -135.019531 65.90625 -132.816406 65 -130.328125 C 64.09375 -128.078125 63.078125 -125.878906 61.953125 -123.734375 C 60.828125 -121.585938 59.8125 -119.273438 58.90625 -116.796875 C 58 -114.535156 57.207031 -112.109375 56.53125 -109.515625 C 55.851562 -106.921875 55.066406 -104.378906 54.171875 -101.890625 Z M 13.875 -92.421875 C 14.78125 -95.128906 15.628906 -97.835938 16.421875 -100.546875 C 17.210938 -103.253906 18.054688 -105.960938 18.953125 -108.671875 C 18.734375 -108.671875 18.566406 -108.722656 18.453125 -108.828125 C 18.335938 -108.941406 18.164062 -109 17.9375 -109 C 17.039062 -106.289062 16.195312 -103.582031 15.40625 -100.875 C 14.613281 -98.164062 13.765625 -95.570312 12.859375 -93.09375 C 13.085938 -92.863281 13.257812 -92.75 13.375 -92.75 C 13.488281 -92.75 13.65625 -92.640625 13.875 -92.421875 Z M 13.875 -92.421875 "/></g></g></g><g fill="#2563eb" fill-opacity="1"><g transform="translate(556.078632, 351.289323)"><g><path d="M 184.5 -100.546875 C 187.882812 -98.960938 190.195312 -96.304688 191.4375 -92.578125 C 192.675781 -88.859375 192.394531 -85.304688 190.59375 -81.921875 C 190.363281 -81.703125 188.613281 -78.429688 185.34375 -72.109375 C 182.070312 -65.785156 177.84375 -58.113281 172.65625 -49.09375 C 172.425781 -48.863281 172.253906 -48.46875 172.140625 -47.90625 C 172.023438 -47.34375 171.742188 -46.832031 171.296875 -46.375 C 170.847656 -45.25 170.285156 -44.117188 169.609375 -42.984375 C 168.929688 -41.859375 168.140625 -40.734375 167.234375 -39.609375 C 166.109375 -37.578125 164.640625 -35.320312 162.828125 -32.84375 C 155.378906 -20.65625 148.890625 -10.890625 143.359375 -3.546875 C 137.835938 3.785156 132.816406 9.59375 128.296875 13.875 C 126.941406 15.457031 125.53125 17.035156 124.0625 18.609375 C 122.601562 20.191406 121.195312 21.890625 119.84375 23.703125 C 118.9375 25.054688 117.75 25.785156 116.28125 25.890625 C 114.8125 26.003906 113.515625 26.0625 112.390625 26.0625 C 111.710938 26.0625 111.035156 26.0625 110.359375 26.0625 C 109.679688 26.0625 109.003906 26.0625 108.328125 26.0625 C 107.648438 26.0625 106.972656 26.117188 106.296875 26.234375 C 105.617188 26.347656 104.941406 26.40625 104.265625 26.40625 C 102.910156 26.40625 101.332031 26.179688 99.53125 25.734375 C 97.945312 25.734375 96.25 25.675781 94.4375 25.5625 C 92.632812 25.445312 90.832031 25.390625 89.03125 25.390625 C 87 25.160156 85.25 24.3125 83.78125 22.84375 C 82.320312 21.382812 81.476562 19.410156 81.25 16.921875 C 81.019531 13.535156 80.734375 10.09375 80.390625 6.59375 C 80.054688 3.101562 80.003906 -0.445312 80.234375 -4.0625 C 81.140625 -10.832031 82.097656 -17.601562 83.109375 -24.375 C 84.128906 -31.144531 85.085938 -38.03125 85.984375 -45.03125 C 86.660156 -48.1875 87.335938 -51.457031 88.015625 -54.84375 C 88.691406 -58.226562 89.367188 -61.5 90.046875 -64.65625 C 90.953125 -68.945312 91.796875 -73.125 92.578125 -77.1875 C 93.367188 -81.25 94.21875 -85.421875 95.125 -89.703125 C 96.03125 -94.222656 96.820312 -98.851562 97.5 -103.59375 C 98.175781 -108.332031 98.851562 -112.957031 99.53125 -117.46875 C 99.53125 -117.695312 99.53125 -117.863281 99.53125 -117.96875 C 99.53125 -118.082031 99.53125 -118.140625 99.53125 -118.140625 C 98.394531 -116.785156 97.316406 -115.375 96.296875 -113.90625 C 95.285156 -112.445312 94.21875 -110.925781 93.09375 -109.34375 C 92.1875 -107.988281 91.394531 -106.578125 90.71875 -105.109375 C 90.039062 -103.640625 89.253906 -102.117188 88.359375 -100.546875 C 86.097656 -96.484375 83.953125 -92.53125 81.921875 -88.6875 C 81.023438 -86.882812 80.125 -85.023438 79.21875 -83.109375 C 78.3125 -81.191406 77.410156 -79.21875 76.515625 -77.1875 C 75.609375 -74.707031 74.644531 -72.164062 73.625 -69.5625 C 72.613281 -66.96875 71.546875 -64.316406 70.421875 -61.609375 C 69.742188 -59.804688 69.117188 -57.890625 68.546875 -55.859375 C 67.984375 -53.828125 67.253906 -51.910156 66.359375 -50.109375 C 65.453125 -47.847656 64.546875 -45.472656 63.640625 -42.984375 C 62.742188 -40.503906 61.84375 -38.023438 60.9375 -35.546875 C 60.03125 -32.609375 59.066406 -29.503906 58.046875 -26.234375 C 57.035156 -22.960938 55.96875 -19.75 54.84375 -16.59375 C 53.9375 -13.65625 53.085938 -10.601562 52.296875 -7.4375 C 51.515625 -4.28125 50.671875 -1.125 49.765625 2.03125 C 49.316406 4.0625 48.640625 5.53125 47.734375 6.4375 C 47.503906 6.65625 47.050781 6.707031 46.375 6.59375 C 45.695312 6.488281 44.910156 6.4375 44.015625 6.4375 C 43.109375 7.789062 41.640625 8.410156 39.609375 8.296875 C 37.578125 8.179688 36 7.332031 34.875 5.75 C 33.0625 7.332031 30.859375 8.179688 28.265625 8.296875 C 25.671875 8.410156 23.359375 8.015625 21.328125 7.109375 C 20.421875 6.660156 19.742188 6.4375 19.296875 6.4375 C 17.941406 7.332031 16.585938 7.609375 15.234375 7.265625 C 13.878906 6.929688 12.523438 6.65625 11.171875 6.4375 C 9.367188 6.4375 8.238281 5.304688 7.78125 3.046875 C 6.207031 -0.785156 5.082031 -4.789062 4.40625 -8.96875 C 3.726562 -13.144531 3.273438 -17.378906 3.046875 -21.671875 C 2.816406 -24.597656 2.53125 -27.414062 2.1875 -30.125 C 1.851562 -32.832031 1.578125 -35.65625 1.359375 -38.59375 C 1.359375 -40.394531 1.359375 -42.140625 1.359375 -43.828125 C 1.359375 -45.523438 1.359375 -47.164062 1.359375 -48.75 C 1.128906 -53.039062 0.898438 -57.382812 0.671875 -61.78125 C 0.453125 -66.1875 0.226562 -70.53125 0 -74.8125 C -0.226562 -79.332031 -0.394531 -83.847656 -0.5 -88.359375 C -0.613281 -92.867188 -0.671875 -97.269531 -0.671875 -101.5625 C -0.671875 -106.070312 -0.613281 -110.640625 -0.5 -115.265625 C -0.394531 -119.890625 -0.226562 -124.460938 0 -128.984375 C 0.445312 -133.265625 1.007812 -137.4375 1.6875 -141.5 C 2.363281 -145.5625 3.71875 -149.515625 5.75 -153.359375 C 6.207031 -154.035156 6.4375 -154.710938 6.4375 -155.390625 C 6.4375 -156.066406 6.546875 -156.742188 6.765625 -157.421875 C 7.441406 -158.546875 8.003906 -159.613281 8.453125 -160.625 C 8.910156 -161.644531 9.929688 -162.269531 11.515625 -162.5 C 12.191406 -162.71875 12.8125 -163.222656 13.375 -164.015625 C 13.9375 -164.804688 14.554688 -165.539062 15.234375 -166.21875 C 15.460938 -165.988281 15.628906 -165.757812 15.734375 -165.53125 C 15.847656 -165.3125 16.019531 -164.976562 16.25 -164.53125 C 16.695312 -165.65625 17.144531 -166.664062 17.59375 -167.5625 C 18.050781 -168.46875 18.503906 -169.375 18.953125 -170.28125 C 19.628906 -169.601562 19.96875 -169.039062 19.96875 -168.59375 C 20.644531 -169.71875 21.378906 -170.84375 22.171875 -171.96875 C 22.960938 -173.101562 23.8125 -174.234375 24.71875 -175.359375 C 25.164062 -175.359375 25.445312 -175.359375 25.5625 -175.359375 C 25.675781 -175.359375 25.84375 -175.359375 26.0625 -175.359375 C 26.519531 -174.234375 27.140625 -172.992188 27.921875 -171.640625 C 28.710938 -170.285156 29.222656 -168.929688 29.453125 -167.578125 C 31.710938 -158.097656 33.742188 -148.050781 35.546875 -137.4375 C 36.671875 -131.125 37.628906 -124.863281 38.421875 -118.65625 C 39.210938 -112.445312 40.0625 -106.179688 40.96875 -99.859375 C 41.414062 -96.253906 41.804688 -92.644531 42.140625 -89.03125 C 42.484375 -85.425781 42.878906 -81.816406 43.328125 -78.203125 C 43.554688 -76.171875 43.78125 -74.140625 44 -72.109375 C 44.226562 -70.078125 44.457031 -67.820312 44.6875 -65.34375 C 45.8125 -67.144531 46.878906 -68.890625 47.890625 -70.578125 C 48.910156 -72.273438 49.875 -73.914062 50.78125 -75.5 C 52.8125 -79.101562 54.84375 -82.765625 56.875 -86.484375 C 58.90625 -90.210938 61.050781 -93.769531 63.3125 -97.15625 C 67.144531 -103.019531 71.035156 -108.828125 74.984375 -114.578125 C 78.929688 -120.335938 83.050781 -126.039062 87.34375 -131.6875 C 89.820312 -134.84375 92.414062 -137.71875 95.125 -140.3125 C 97.832031 -142.914062 100.65625 -145.457031 103.59375 -147.9375 C 104.71875 -149.0625 105.898438 -150.019531 107.140625 -150.8125 C 108.378906 -151.601562 109.675781 -152.453125 111.03125 -153.359375 C 114.195312 -155.390625 116.566406 -154.597656 118.140625 -150.984375 C 119.046875 -148.722656 119.894531 -146.519531 120.6875 -144.375 C 121.476562 -142.238281 122.097656 -140.039062 122.546875 -137.78125 C 123.222656 -134.625 123.84375 -131.40625 124.40625 -128.125 C 124.96875 -124.851562 125.363281 -121.523438 125.59375 -118.140625 C 125.820312 -115.210938 125.820312 -112.28125 125.59375 -109.34375 C 125.363281 -106.40625 125.140625 -103.359375 124.921875 -100.203125 C 124.691406 -97.941406 124.40625 -95.679688 124.0625 -93.421875 C 123.726562 -91.171875 123.335938 -88.914062 122.890625 -86.65625 C 122.429688 -83.050781 121.921875 -79.5 121.359375 -76 C 120.796875 -72.5 120.175781 -68.945312 119.5 -65.34375 C 119.269531 -63.082031 118.875 -60.878906 118.3125 -58.734375 C 117.75 -56.585938 117.242188 -54.390625 116.796875 -52.140625 C 116.335938 -49.429688 115.882812 -46.773438 115.4375 -44.171875 C 114.988281 -41.578125 114.535156 -39.039062 114.078125 -36.5625 C 113.859375 -35.207031 113.632812 -33.851562 113.40625 -32.5 C 113.175781 -31.144531 112.953125 -29.90625 112.734375 -28.78125 C 112.503906 -25.164062 112.160156 -21.550781 111.703125 -17.9375 C 111.253906 -14.332031 110.804688 -10.722656 110.359375 -7.109375 C 110.359375 -7.109375 110.359375 -7.050781 110.359375 -6.9375 C 110.359375 -6.820312 110.359375 -6.765625 110.359375 -6.765625 C 114.867188 -11.503906 120.226562 -18.332031 126.4375 -27.25 C 132.644531 -36.164062 139.191406 -46.488281 146.078125 -58.21875 C 152.960938 -69.957031 159.5625 -82.035156 165.875 -94.453125 C 167.6875 -97.835938 170.394531 -100.148438 174 -101.390625 C 177.613281 -102.628906 181.113281 -102.347656 184.5 -100.546875 Z M 184.5 -100.546875 "/></g></g></g><g fill="#2563eb" fill-opacity="1"><g transform="translate(721.622765, 351.289323)"><g><path d="M 40.96875 -328.03125 C 42.320312 -327.132812 43 -326.796875 43 -327.015625 C 44.570312 -328.597656 46.09375 -330.125 47.5625 -331.59375 C 49.03125 -333.0625 50.554688 -334.582031 52.140625 -336.15625 C 52.816406 -335.03125 53.546875 -333.957031 54.328125 -332.9375 C 55.117188 -331.925781 55.628906 -330.859375 55.859375 -329.734375 C 56.984375 -326.566406 57.882812 -323.347656 58.5625 -320.078125 C 59.238281 -316.804688 60.03125 -313.59375 60.9375 -310.4375 C 61.613281 -306.820312 62.289062 -303.265625 62.96875 -299.765625 C 63.644531 -296.265625 64.320312 -292.710938 65 -289.109375 C 65.445312 -285.492188 65.894531 -281.878906 66.34375 -278.265625 C 66.800781 -274.660156 67.144531 -271.050781 67.375 -267.4375 C 67.820312 -264.5 68.101562 -261.507812 68.21875 -258.46875 C 68.332031 -255.425781 68.5 -252.320312 68.71875 -249.15625 C 68.71875 -248.707031 68.773438 -248.253906 68.890625 -247.796875 C 69.003906 -247.347656 69.175781 -246.898438 69.40625 -246.453125 C 73.238281 -247.578125 76.898438 -248.703125 80.390625 -249.828125 C 83.890625 -250.960938 87.445312 -251.984375 91.0625 -252.890625 C 94.894531 -254.015625 98.5625 -255.195312 102.0625 -256.4375 C 105.5625 -257.675781 109.117188 -258.859375 112.734375 -259.984375 C 116.566406 -261.335938 120.398438 -262.691406 124.234375 -264.046875 C 128.078125 -265.398438 131.800781 -266.753906 135.40625 -268.109375 C 135.863281 -268.109375 136.429688 -267.992188 137.109375 -267.765625 C 137.785156 -267.546875 138.125 -267.210938 138.125 -266.765625 C 138.570312 -265.179688 139.019531 -263.597656 139.46875 -262.015625 C 139.925781 -260.441406 140.15625 -258.75 140.15625 -256.9375 C 140.375 -256.257812 140.203125 -255.523438 139.640625 -254.734375 C 139.078125 -253.953125 138.570312 -253.335938 138.125 -252.890625 C 130.894531 -249.273438 123.554688 -245.773438 116.109375 -242.390625 C 112.953125 -240.804688 109.679688 -239.394531 106.296875 -238.15625 C 102.910156 -236.914062 99.640625 -235.734375 96.484375 -234.609375 C 92.191406 -233.023438 87.84375 -231.382812 83.4375 -229.6875 C 79.039062 -228 74.703125 -226.253906 70.421875 -224.453125 C 69.515625 -224.222656 68.664062 -223.257812 67.875 -221.5625 C 67.082031 -219.875 66.800781 -218.128906 67.03125 -216.328125 C 67.476562 -214.515625 67.757812 -212.707031 67.875 -210.90625 C 67.988281 -209.101562 67.59375 -207.296875 66.6875 -205.484375 C 66.007812 -204.128906 65.835938 -202.660156 66.171875 -201.078125 C 66.515625 -199.503906 66.6875 -197.925781 66.6875 -196.34375 C 66.46875 -194.988281 66.242188 -193.691406 66.015625 -192.453125 C 65.785156 -191.210938 65.445312 -189.914062 65 -188.5625 C 64.769531 -187.4375 64.65625 -186.25 64.65625 -185 C 64.65625 -183.757812 64.546875 -182.578125 64.328125 -181.453125 C 64.097656 -179.867188 63.925781 -178.398438 63.8125 -177.046875 C 63.695312 -175.691406 63.53125 -174.226562 63.3125 -172.65625 C 63.3125 -171.75 63.3125 -170.898438 63.3125 -170.109375 C 63.3125 -169.316406 63.195312 -168.472656 62.96875 -167.578125 C 62.96875 -166.671875 62.96875 -165.707031 62.96875 -164.6875 C 62.96875 -163.675781 62.851562 -162.71875 62.625 -161.8125 C 61.945312 -157.53125 61.328125 -153.242188 60.765625 -148.953125 C 60.203125 -144.660156 59.46875 -140.484375 58.5625 -136.421875 C 58.113281 -134.617188 58 -132.703125 58.21875 -130.671875 C 58.445312 -128.640625 57.773438 -126.722656 56.203125 -124.921875 C 55.972656 -124.460938 55.914062 -123.722656 56.03125 -122.703125 C 56.144531 -121.691406 56.085938 -120.738281 55.859375 -119.84375 C 55.628906 -118.707031 55.34375 -117.519531 55 -116.28125 C 54.664062 -115.039062 54.390625 -113.859375 54.171875 -112.734375 C 53.941406 -111.597656 53.9375 -110.410156 54.15625 -109.171875 C 54.382812 -107.929688 54.390625 -106.75 54.171875 -105.625 C 53.710938 -99.976562 53.144531 -94.390625 52.46875 -88.859375 C 51.789062 -83.335938 51.226562 -77.753906 50.78125 -72.109375 C 50.550781 -69.171875 50.320312 -66.234375 50.09375 -63.296875 C 49.875 -60.367188 49.648438 -57.4375 49.421875 -54.5 C 49.203125 -52.25 48.921875 -49.878906 48.578125 -47.390625 C 48.242188 -44.910156 47.960938 -42.429688 47.734375 -39.953125 C 47.503906 -37.015625 47.332031 -34.019531 47.21875 -30.96875 C 47.113281 -27.925781 46.945312 -24.9375 46.71875 -22 C 46.488281 -19.070312 46.257812 -16.023438 46.03125 -12.859375 C 45.8125 -9.703125 45.585938 -6.546875 45.359375 -3.390625 C 45.140625 -0.222656 44.914062 2.992188 44.6875 6.265625 C 44.457031 9.535156 44.34375 12.863281 44.34375 16.25 C 44.125 21.664062 43.957031 27.140625 43.84375 32.671875 C 43.726562 38.203125 43.554688 43.675781 43.328125 49.09375 C 43.328125 52.476562 43.210938 55.863281 42.984375 59.25 C 42.765625 62.632812 42.539062 66.019531 42.3125 69.40625 C 42.09375 70.300781 41.867188 71.085938 41.640625 71.765625 C 41.410156 72.441406 41.070312 73.117188 40.625 73.796875 C 40.175781 74.929688 39.5 75.5 38.59375 75.5 C 37.46875 75.039062 36.171875 75.148438 34.703125 75.828125 C 33.234375 76.503906 32.273438 75.71875 31.828125 73.46875 C 31.367188 71.207031 30.914062 69.398438 30.46875 68.046875 C 30.46875 69.171875 30.46875 70.351562 30.46875 71.59375 C 30.46875 72.84375 30.46875 74.367188 30.46875 76.171875 C 29.113281 75.722656 27.816406 75.328125 26.578125 74.984375 C 25.335938 74.648438 24.039062 74.367188 22.6875 74.140625 C 21.78125 73.910156 20.929688 73.851562 20.140625 73.96875 C 19.347656 74.082031 18.503906 74.023438 17.609375 73.796875 C 16.472656 73.796875 15.34375 73.234375 14.21875 72.109375 C 11.738281 68.953125 10.101562 65.507812 9.3125 61.78125 C 8.519531 58.0625 7.671875 54.394531 6.765625 50.78125 C 5.640625 45.363281 4.960938 39.832031 4.734375 34.1875 C 4.515625 30.125 4.289062 26.003906 4.0625 21.828125 C 3.832031 17.660156 3.609375 13.429688 3.390625 9.140625 C 3.160156 6.203125 2.929688 3.207031 2.703125 0.15625 C 2.484375 -2.882812 2.257812 -5.867188 2.03125 -8.796875 C 2.03125 -11.285156 2.03125 -13.710938 2.03125 -16.078125 C 2.03125 -18.453125 1.914062 -20.878906 1.6875 -23.359375 C 1.6875 -26.066406 1.570312 -28.832031 1.34375 -31.65625 C 1.125 -34.476562 1.015625 -37.351562 1.015625 -40.28125 C 0.785156 -43.445312 0.671875 -46.664062 0.671875 -49.9375 C 0.671875 -53.207031 0.5625 -56.421875 0.34375 -59.578125 C 0.34375 -62.066406 0.285156 -64.664062 0.171875 -67.375 C 0.0546875 -70.082031 0 -72.675781 0 -75.15625 C 0 -81.695312 0.0546875 -88.238281 0.171875 -94.78125 C 0.285156 -101.332031 0.34375 -107.878906 0.34375 -114.421875 C 0.34375 -118.710938 0.285156 -122.941406 0.171875 -127.109375 C 0.0546875 -131.285156 0 -135.519531 0 -139.8125 C 0.226562 -145 0.453125 -150.128906 0.671875 -155.203125 C 0.898438 -160.285156 1.128906 -165.425781 1.359375 -170.625 C 1.578125 -174.6875 1.851562 -178.75 2.1875 -182.8125 C 2.53125 -186.875 2.816406 -190.9375 3.046875 -195 C 3.273438 -196.570312 3.441406 -198.148438 3.546875 -199.734375 C 3.660156 -201.316406 3.832031 -202.894531 4.0625 -204.46875 C 1.125 -204.019531 -1.640625 -203.625 -4.234375 -203.28125 C -6.828125 -202.945312 -9.363281 -202.554688 -11.84375 -202.109375 C -14.332031 -201.878906 -16.875 -201.648438 -19.46875 -201.421875 C -22.0625 -201.203125 -24.597656 -201.203125 -27.078125 -201.421875 C -30.242188 -201.421875 -33.40625 -201.644531 -36.5625 -202.09375 C -39.71875 -202.550781 -42.878906 -202.894531 -46.046875 -203.125 C -47.171875 -203.34375 -48.070312 -204.015625 -48.75 -205.140625 C -49.425781 -206.273438 -49.539062 -207.40625 -49.09375 -208.53125 C -48.414062 -211.46875 -47.0625 -213.78125 -45.03125 -215.46875 C -43 -217.164062 -40.851562 -218.578125 -38.59375 -219.703125 C -36.332031 -221.054688 -33.789062 -222.070312 -30.96875 -222.75 C -28.15625 -223.425781 -25.503906 -224.101562 -23.015625 -224.78125 C -20.535156 -225.457031 -18.109375 -226.132812 -15.734375 -226.8125 C -13.367188 -227.488281 -10.945312 -228.164062 -8.46875 -228.84375 C -7.5625 -229.070312 -6.65625 -229.1875 -5.75 -229.1875 C -4.851562 -229.1875 -3.953125 -229.300781 -3.046875 -229.53125 C -1.242188 -229.976562 0.445312 -230.3125 2.03125 -230.53125 C 3.613281 -230.757812 5.191406 -230.988281 6.765625 -231.21875 C 7.441406 -234.601562 8.175781 -237.988281 8.96875 -241.375 C 9.757812 -244.757812 10.492188 -248.257812 11.171875 -251.875 C 11.617188 -255.03125 12.066406 -258.128906 12.515625 -261.171875 C 12.972656 -264.222656 13.539062 -267.210938 14.21875 -270.140625 C 15.125 -274.203125 16.023438 -278.265625 16.921875 -282.328125 C 17.828125 -286.390625 18.734375 -290.34375 19.640625 -294.1875 C 20.765625 -297.570312 21.945312 -300.898438 23.1875 -304.171875 C 24.425781 -307.441406 25.722656 -310.65625 27.078125 -313.8125 C 27.304688 -314.269531 27.816406 -314.609375 28.609375 -314.828125 C 29.398438 -315.054688 30.132812 -315.285156 30.8125 -315.515625 C 31.707031 -316.410156 32.609375 -317.363281 33.515625 -318.375 C 34.421875 -319.394531 35.320312 -320.472656 36.21875 -321.609375 C 36.21875 -319.796875 36.21875 -317.988281 36.21875 -316.1875 C 36.21875 -314.382812 36.21875 -312.46875 36.21875 -310.4375 C 37.125 -313.59375 37.914062 -316.582031 38.59375 -319.40625 C 39.269531 -322.226562 40.0625 -325.101562 40.96875 -328.03125 Z M 33.171875 -274.546875 C 32.953125 -274.773438 32.613281 -274.890625 32.15625 -274.890625 C 31.476562 -268.566406 30.800781 -262.300781 30.125 -256.09375 C 29.445312 -249.894531 28.660156 -243.632812 27.765625 -237.3125 C 28.441406 -237.3125 29.003906 -237.195312 29.453125 -236.96875 C 30.128906 -243.289062 30.75 -249.550781 31.3125 -255.75 C 31.875 -261.957031 32.492188 -268.222656 33.171875 -274.546875 Z M 33.171875 -274.546875 "/></g></g></g><g fill="#10b981" fill-opacity="1"><g transform="translate(795.427727, 351.289323)"><g><path d="M 38.25 67.03125 C 36.445312 67.03125 35.207031 67.144531 34.53125 67.375 C 34.300781 67.375 34.070312 67.425781 33.84375 67.53125 C 33.625 67.644531 33.289062 67.703125 32.84375 67.703125 C 29.90625 67.253906 27.023438 66.914062 24.203125 66.6875 C 21.378906 66.46875 18.503906 66.019531 15.578125 65.34375 C 14.671875 65.113281 13.765625 64.429688 12.859375 63.296875 C 11.960938 62.171875 11.175781 61.160156 10.5 60.265625 C 10.039062 59.359375 9.695312 58.394531 9.46875 57.375 C 9.25 56.363281 8.914062 55.40625 8.46875 54.5 C 8.238281 52.695312 7.953125 50.835938 7.609375 48.921875 C 7.273438 47.003906 6.992188 45.140625 6.765625 43.328125 C 6.546875 40.617188 6.265625 37.910156 5.921875 35.203125 C 5.585938 32.492188 5.191406 29.898438 4.734375 27.421875 C 4.515625 24.710938 4.40625 22.0625 4.40625 19.46875 C 4.40625 16.875 4.40625 14.222656 4.40625 11.515625 C 4.175781 9.023438 4.0625 6.425781 4.0625 3.71875 C 4.0625 1.007812 4.0625 -1.582031 4.0625 -4.0625 C 4.0625 -5.863281 4.117188 -7.78125 4.234375 -9.8125 C 4.347656 -11.84375 4.40625 -13.765625 4.40625 -15.578125 C 4.625 -18.503906 4.675781 -21.378906 4.5625 -24.203125 C 4.457031 -27.023438 4.515625 -29.90625 4.734375 -32.84375 C 4.960938 -35.550781 5.1875 -38.203125 5.40625 -40.796875 C 5.632812 -43.390625 5.863281 -45.925781 6.09375 -48.40625 C 6.320312 -50.664062 6.4375 -52.976562 6.4375 -55.34375 C 6.4375 -57.71875 6.546875 -60.035156 6.765625 -62.296875 C 6.992188 -64.328125 7.21875 -66.410156 7.4375 -68.546875 C 7.664062 -70.691406 7.894531 -72.78125 8.125 -74.8125 C 8.351562 -76.394531 8.578125 -77.921875 8.796875 -79.390625 C 9.023438 -80.859375 9.253906 -82.378906 9.484375 -83.953125 C 9.929688 -86.429688 10.378906 -88.96875 10.828125 -91.5625 C 11.285156 -94.164062 11.625 -96.59375 11.84375 -98.84375 C 12.300781 -101.332031 12.695312 -103.816406 13.03125 -106.296875 C 13.375 -108.773438 13.65625 -111.144531 13.875 -113.40625 C 14.332031 -115.207031 14.671875 -117.066406 14.890625 -118.984375 C 15.117188 -120.910156 15.457031 -122.773438 15.90625 -124.578125 C 16.582031 -127.734375 17.316406 -130.722656 18.109375 -133.546875 C 18.898438 -136.367188 19.75 -139.25 20.65625 -142.1875 C 21.101562 -144.21875 21.550781 -146.25 22 -148.28125 C 22.457031 -150.3125 22.910156 -152.34375 23.359375 -154.375 C 24.035156 -156.851562 24.769531 -159.273438 25.5625 -161.640625 C 26.351562 -164.015625 27.195312 -166.332031 28.09375 -168.59375 C 29 -171.070312 29.898438 -173.664062 30.796875 -176.375 C 31.703125 -179.082031 32.609375 -181.675781 33.515625 -184.15625 C 34.640625 -187.320312 35.878906 -190.367188 37.234375 -193.296875 C 38.585938 -196.234375 39.832031 -199.171875 40.96875 -202.109375 C 41.863281 -203.910156 42.765625 -205.710938 43.671875 -207.515625 C 44.578125 -209.328125 45.476562 -211.019531 46.375 -212.59375 C 47.507812 -215.300781 49.203125 -217.5 51.453125 -219.1875 C 53.710938 -220.882812 55.972656 -222.523438 58.234375 -224.109375 C 58.453125 -224.109375 59.015625 -223.882812 59.921875 -223.4375 C 60.367188 -224.332031 60.757812 -225.234375 61.09375 -226.140625 C 61.4375 -227.046875 61.945312 -227.609375 62.625 -227.828125 C 64.4375 -228.285156 65.847656 -229.191406 66.859375 -230.546875 C 67.878906 -231.898438 69.175781 -232.800781 70.75 -233.25 C 72.78125 -230.988281 74.019531 -228.332031 74.46875 -225.28125 C 74.925781 -222.238281 75.71875 -219.253906 76.84375 -216.328125 C 78.65625 -216.773438 80.570312 -217.394531 82.59375 -218.1875 C 84.625 -218.976562 86.65625 -219.597656 88.6875 -220.046875 C 91.175781 -220.722656 93.601562 -221.34375 95.96875 -221.90625 C 98.34375 -222.46875 100.769531 -223.085938 103.25 -223.765625 C 104.832031 -224.222656 106.351562 -224.675781 107.8125 -225.125 C 109.28125 -225.570312 110.804688 -225.910156 112.390625 -226.140625 C 113.972656 -226.585938 115.492188 -227.09375 116.953125 -227.65625 C 118.421875 -228.226562 119.945312 -228.398438 121.53125 -228.171875 C 124.007812 -228.171875 126.546875 -228.507812 129.140625 -229.1875 C 131.742188 -229.863281 134.285156 -230.316406 136.765625 -230.546875 C 139.242188 -230.765625 141.78125 -231.039062 144.375 -231.375 C 146.976562 -231.71875 149.519531 -232.003906 152 -232.234375 C 154.03125 -232.460938 156.0625 -232.519531 158.09375 -232.40625 C 160.125 -232.289062 162.15625 -232.347656 164.1875 -232.578125 C 166.664062 -232.578125 169.035156 -232.628906 171.296875 -232.734375 C 173.554688 -232.847656 175.8125 -233.019531 178.0625 -233.25 C 181.226562 -233.695312 184.445312 -233.921875 187.71875 -233.921875 C 190.988281 -233.921875 194.203125 -233.921875 197.359375 -233.921875 C 200.972656 -233.921875 203.234375 -232.226562 204.140625 -228.84375 C 205.035156 -225.238281 205.9375 -221.515625 206.84375 -217.671875 C 207.75 -213.835938 208.085938 -209.890625 207.859375 -205.828125 C 207.859375 -205.378906 207.914062 -204.867188 208.03125 -204.296875 C 208.144531 -203.734375 208.3125 -203.113281 208.53125 -202.4375 C 205.601562 -201.757812 202.726562 -201.082031 199.90625 -200.40625 C 197.082031 -199.726562 194.203125 -199.164062 191.265625 -198.71875 C 189.234375 -198.488281 187.144531 -198.257812 185 -198.03125 C 182.863281 -197.8125 180.78125 -197.476562 178.75 -197.03125 C 176.257812 -196.570312 173.882812 -196.0625 171.625 -195.5 C 169.375 -194.9375 167.007812 -194.429688 164.53125 -193.984375 C 162.5 -193.753906 160.46875 -193.410156 158.4375 -192.953125 C 156.40625 -192.503906 154.375 -192.054688 152.34375 -191.609375 C 150.082031 -191.378906 147.878906 -191.148438 145.734375 -190.921875 C 143.585938 -190.703125 141.5 -190.367188 139.46875 -189.921875 C 137.894531 -189.691406 136.257812 -189.40625 134.5625 -189.0625 C 132.875 -188.726562 131.238281 -188.445312 129.65625 -188.21875 C 128.070312 -188 126.488281 -187.890625 124.90625 -187.890625 C 123.332031 -187.890625 121.753906 -187.773438 120.171875 -187.546875 C 116.566406 -187.316406 113.015625 -187.085938 109.515625 -186.859375 C 106.015625 -186.640625 102.457031 -186.304688 98.84375 -185.859375 C 97.269531 -185.859375 95.804688 -185.859375 94.453125 -185.859375 C 93.097656 -185.859375 91.628906 -185.859375 90.046875 -185.859375 C 88.460938 -185.859375 86.828125 -185.859375 85.140625 -185.859375 C 83.453125 -185.859375 81.703125 -185.859375 79.890625 -185.859375 C 78.765625 -185.398438 78.203125 -185.0625 78.203125 -184.84375 C 77.972656 -183.257812 77.800781 -181.789062 77.6875 -180.4375 C 77.582031 -179.082031 77.414062 -177.726562 77.1875 -176.375 C 76.957031 -175.25 76.671875 -174.117188 76.328125 -172.984375 C 75.992188 -171.859375 75.828125 -170.734375 75.828125 -169.609375 C 75.828125 -167.796875 75.882812 -165.988281 76 -164.1875 C 76.113281 -162.382812 76.285156 -160.578125 76.515625 -158.765625 C 76.960938 -156.054688 77.351562 -153.347656 77.6875 -150.640625 C 78.03125 -147.929688 78.316406 -145.222656 78.546875 -142.515625 C 78.765625 -139.804688 78.929688 -137.097656 79.046875 -134.390625 C 79.160156 -131.679688 79.21875 -128.972656 79.21875 -126.265625 C 79.21875 -124.691406 79.160156 -123.054688 79.046875 -121.359375 C 78.929688 -119.671875 78.765625 -118.035156 78.546875 -116.453125 C 78.316406 -114.191406 79.21875 -113.289062 81.25 -113.75 C 84.40625 -114.195312 87.5625 -114.757812 90.71875 -115.4375 C 93.882812 -116.113281 97.046875 -116.566406 100.203125 -116.796875 C 101.328125 -117.242188 102.566406 -117.410156 103.921875 -117.296875 C 105.273438 -117.179688 106.628906 -117.238281 107.984375 -117.46875 C 110.015625 -117.914062 112.101562 -118.253906 114.25 -118.484375 C 116.394531 -118.710938 118.484375 -118.9375 120.515625 -119.15625 C 123.222656 -119.613281 125.875 -119.84375 128.46875 -119.84375 C 131.0625 -119.84375 133.601562 -119.953125 136.09375 -120.171875 C 137.445312 -120.171875 138.125 -119.492188 138.125 -118.140625 C 138.570312 -115.210938 139.019531 -112.335938 139.46875 -109.515625 C 139.925781 -106.691406 140.378906 -103.8125 140.828125 -100.875 C 140.828125 -100.195312 140.375 -99.632812 139.46875 -99.1875 C 136.988281 -97.382812 134.28125 -96.085938 131.34375 -95.296875 C 128.414062 -94.503906 125.484375 -93.65625 122.546875 -92.75 C 120.742188 -92.300781 118.878906 -91.796875 116.953125 -91.234375 C 115.035156 -90.671875 113.175781 -90.160156 111.375 -89.703125 C 109.789062 -89.253906 108.097656 -88.859375 106.296875 -88.515625 C 104.492188 -88.179688 102.6875 -87.789062 100.875 -87.34375 C 97.71875 -86.4375 94.503906 -85.585938 91.234375 -84.796875 C 87.960938 -84.015625 84.75 -83.171875 81.59375 -82.265625 C 81.363281 -82.265625 81.078125 -82.320312 80.734375 -82.4375 C 80.398438 -82.550781 80.007812 -82.609375 79.5625 -82.609375 C 77.070312 -82.609375 75.71875 -81.476562 75.5 -79.21875 C 74.820312 -75.601562 74.253906 -71.988281 73.796875 -68.375 C 73.347656 -64.769531 72.785156 -61.160156 72.109375 -57.546875 C 71.878906 -55.515625 71.539062 -53.539062 71.09375 -51.625 C 70.644531 -49.707031 70.191406 -47.847656 69.734375 -46.046875 C 69.054688 -42.878906 68.378906 -39.660156 67.703125 -36.390625 C 67.023438 -33.117188 66.347656 -29.90625 65.671875 -26.75 C 64.316406 -21.78125 62.960938 -16.8125 61.609375 -11.84375 C 60.253906 -6.882812 58.898438 -1.804688 57.546875 3.390625 C 56.421875 7.671875 55.179688 12.066406 53.828125 16.578125 C 52.472656 21.097656 51.117188 25.613281 49.765625 30.125 C 48.859375 33.96875 47.84375 37.804688 46.71875 41.640625 C 45.59375 45.472656 44.460938 49.3125 43.328125 53.15625 C 42.429688 55.632812 41.585938 58 40.796875 60.25 C 40.003906 62.507812 39.15625 64.769531 38.25 67.03125 Z M 45.03125 -175.359375 C 41.1875 -164.523438 38.132812 -153.519531 35.875 -142.34375 C 33.625 -131.175781 31.820312 -119.835938 30.46875 -108.328125 C 32.945312 -119.609375 35.367188 -130.832031 37.734375 -142 C 40.109375 -153.175781 42.539062 -164.296875 45.03125 -175.359375 Z M 61.28125 -78.875 C 61.050781 -78.875 60.820312 -78.929688 60.59375 -79.046875 C 60.375 -79.160156 60.035156 -79.21875 59.578125 -79.21875 C 58.003906 -74.03125 56.878906 -68.671875 56.203125 -63.140625 C 55.523438 -57.609375 54.507812 -52.25 53.15625 -47.0625 C 52.925781 -46.601562 52.867188 -46.09375 52.984375 -45.53125 C 53.097656 -44.96875 53.15625 -44.460938 53.15625 -44.015625 C 53.375 -44.015625 53.539062 -44.015625 53.65625 -44.015625 C 53.769531 -44.015625 53.941406 -44.015625 54.171875 -44.015625 C 55.296875 -49.878906 56.476562 -55.6875 57.71875 -61.4375 C 58.957031 -67.195312 60.144531 -73.007812 61.28125 -78.875 Z M 61.28125 -78.875 "/></g></g></g><g fill="#10b981" fill-opacity="1"><g transform="translate(925.087091, 351.289323)"><g><path d="M 125.59375 -100.875 C 129.207031 -99.300781 131.742188 -96.820312 133.203125 -93.4375 C 134.671875 -90.050781 134.726562 -86.550781 133.375 -82.9375 L 82.265625 41.984375 C 82.035156 42.878906 81.75 43.78125 81.40625 44.6875 C 81.070312 45.59375 80.679688 46.609375 80.234375 47.734375 C 80.234375 47.734375 79.328125 49.535156 77.515625 53.140625 C 75.710938 56.753906 73.175781 60.757812 69.90625 65.15625 C 66.632812 69.5625 62.6875 73.117188 58.0625 75.828125 C 53.4375 78.535156 48.1875 78.988281 42.3125 77.1875 C 39.601562 76.28125 37.460938 75.828125 35.890625 75.828125 C 29.796875 74.472656 25.617188 70.976562 23.359375 65.34375 C 22.453125 63.082031 21.4375 60.9375 20.3125 58.90625 C 19.1875 56.875 18.171875 54.726562 17.265625 52.46875 C 16.359375 49.988281 15.566406 47.453125 14.890625 44.859375 C 14.210938 42.265625 13.535156 39.613281 12.859375 36.90625 C 11.960938 33.0625 11.117188 29.222656 10.328125 25.390625 C 9.535156 21.554688 8.6875 17.71875 7.78125 13.875 C 7.5625 12.75 7.394531 11.507812 7.28125 10.15625 C 7.164062 8.800781 6.992188 7.445312 6.765625 6.09375 C 6.546875 4.0625 6.320312 2.085938 6.09375 0.171875 C 5.863281 -1.742188 5.523438 -3.71875 5.078125 -5.75 C 4.847656 -8.914062 4.5625 -12.191406 4.21875 -15.578125 C 3.882812 -18.960938 3.492188 -22.234375 3.046875 -25.390625 C 2.816406 -27.421875 2.703125 -29.507812 2.703125 -31.65625 C 2.703125 -33.800781 2.476562 -35.890625 2.03125 -37.921875 C 1.800781 -38.816406 1.347656 -39.601562 0.671875 -40.28125 C -0.00390625 -40.957031 -0.566406 -41.75 -1.015625 -42.65625 C -1.460938 -43.5625 -1.6875 -44.238281 -1.6875 -44.6875 C -1.6875 -45.8125 -1.628906 -46.769531 -1.515625 -47.5625 C -1.410156 -48.351562 -1.242188 -49.203125 -1.015625 -50.109375 C -0.566406 -53.035156 -0.175781 -55.910156 0.15625 -58.734375 C 0.5 -61.554688 0.671875 -64.4375 0.671875 -67.375 C 0.898438 -70.53125 0.84375 -73.628906 0.5 -76.671875 C 0.164062 -79.722656 0 -82.710938 0 -85.640625 C 0 -87.671875 0 -89.703125 0 -91.734375 C 0 -93.765625 0.113281 -95.6875 0.34375 -97.5 C 0.789062 -101.332031 1.179688 -105 1.515625 -108.5 C 1.859375 -112 2.144531 -115.550781 2.375 -119.15625 C 2.59375 -120.507812 2.644531 -121.804688 2.53125 -123.046875 C 2.425781 -124.296875 2.484375 -125.597656 2.703125 -126.953125 C 3.160156 -130.554688 3.554688 -134.050781 3.890625 -137.4375 C 4.234375 -140.820312 4.515625 -144.207031 4.734375 -147.59375 C 5.191406 -150.757812 5.585938 -153.863281 5.921875 -156.90625 C 6.265625 -159.957031 6.660156 -162.945312 7.109375 -165.875 C 8.234375 -171.070312 9.300781 -176.265625 10.3125 -181.453125 C 11.332031 -186.640625 12.410156 -191.832031 13.546875 -197.03125 C 15.578125 -206.507812 17.945312 -215.535156 20.65625 -224.109375 C 22.007812 -228.398438 23.585938 -232.578125 25.390625 -236.640625 C 27.191406 -240.703125 29.222656 -244.648438 31.484375 -248.484375 C 32.609375 -250.066406 33.566406 -251.703125 34.359375 -253.390625 C 35.148438 -255.078125 36 -256.710938 36.90625 -258.296875 C 37.800781 -259.648438 38.753906 -260.890625 39.765625 -262.015625 C 40.785156 -263.148438 42.085938 -263.941406 43.671875 -264.390625 C 44.796875 -264.835938 45.863281 -265.398438 46.875 -266.078125 C 47.894531 -266.753906 48.859375 -267.429688 49.765625 -268.109375 C 49.992188 -268.109375 50.160156 -268.222656 50.265625 -268.453125 C 50.378906 -268.679688 50.550781 -268.796875 50.78125 -268.796875 C 53.039062 -268.335938 54.507812 -268.785156 55.1875 -270.140625 C 55.863281 -271.492188 56.648438 -272.738281 57.546875 -273.875 C 57.546875 -274.09375 57.773438 -274.09375 58.234375 -273.875 C 59.128906 -274.320312 59.972656 -274.710938 60.765625 -275.046875 C 61.554688 -275.390625 62.40625 -275.675781 63.3125 -275.90625 C 63.3125 -275.90625 63.3125 -275.957031 63.3125 -276.0625 C 63.3125 -276.175781 63.3125 -276.234375 63.3125 -276.234375 C 64.207031 -276.910156 65.109375 -277.585938 66.015625 -278.265625 C 66.921875 -278.941406 67.9375 -279.734375 69.0625 -280.640625 C 69.507812 -279.734375 70.015625 -278.941406 70.578125 -278.265625 C 71.148438 -277.585938 71.546875 -276.800781 71.765625 -275.90625 C 72.222656 -272.96875 72.789062 -270.085938 73.46875 -267.265625 C 74.144531 -264.441406 74.59375 -261.566406 74.8125 -258.640625 C 75.269531 -253.671875 75.609375 -248.757812 75.828125 -243.90625 C 76.054688 -239.0625 76.171875 -234.15625 76.171875 -229.1875 C 76.171875 -226.925781 75.941406 -224.609375 75.484375 -222.234375 C 75.035156 -219.867188 74.585938 -217.445312 74.140625 -214.96875 C 73.910156 -211.132812 73.570312 -207.296875 73.125 -203.453125 C 72.675781 -199.617188 72.335938 -195.785156 72.109375 -191.953125 C 71.660156 -184.273438 71.320312 -176.484375 71.09375 -168.578125 C 70.863281 -160.679688 70.523438 -152.785156 70.078125 -144.890625 C 69.847656 -140.148438 69.675781 -135.351562 69.5625 -130.5 C 69.457031 -125.644531 69.175781 -120.847656 68.71875 -116.109375 C 68.5 -110.015625 68.160156 -103.921875 67.703125 -97.828125 C 67.253906 -91.734375 66.914062 -85.644531 66.6875 -79.5625 C 66.46875 -73.46875 66.1875 -67.425781 65.84375 -61.4375 C 65.507812 -55.457031 65.34375 -49.421875 65.34375 -43.328125 C 65.113281 -34.304688 64.941406 -25.222656 64.828125 -16.078125 C 64.710938 -6.941406 64.65625 2.253906 64.65625 11.515625 L 107.65625 -93.4375 C 109.007812 -97.039062 111.429688 -99.578125 114.921875 -101.046875 C 118.421875 -102.515625 121.976562 -102.457031 125.59375 -100.875 Z M 43.328125 -40.28125 C 43.785156 -53.820312 44.125 -67.304688 44.34375 -80.734375 C 44.570312 -94.160156 44.800781 -107.644531 45.03125 -121.1875 C 44.800781 -121.1875 44.628906 -121.1875 44.515625 -121.1875 C 44.398438 -121.1875 44.34375 -121.1875 44.34375 -121.1875 C 42.3125 -107.875 41.410156 -94.445312 41.640625 -80.90625 C 41.867188 -67.363281 42.429688 -53.820312 43.328125 -40.28125 Z M 43.328125 -40.28125 "/></g></g></g><g fill="#10b981" fill-opacity="1"><g transform="translate(1032.741545, 351.289323)"><g><path d="M 147.265625 -97.15625 C 149.742188 -94.21875 150.8125 -90.832031 150.46875 -87 C 150.132812 -83.164062 148.390625 -80.007812 145.234375 -77.53125 C 145.003906 -77.300781 142.742188 -75.832031 138.453125 -73.125 C 134.171875 -70.414062 128.472656 -67.765625 121.359375 -65.171875 C 114.253906 -62.578125 106.070312 -61.28125 96.8125 -61.28125 C 96.59375 -61.28125 96.253906 -61.28125 95.796875 -61.28125 C 95.347656 -61.28125 94.898438 -61.28125 94.453125 -61.28125 C 93.992188 -59.019531 93.484375 -56.757812 92.921875 -54.5 C 92.359375 -52.25 91.851562 -49.878906 91.40625 -47.390625 C 90.5 -44.234375 89.535156 -41.019531 88.515625 -37.75 C 87.503906 -34.476562 86.4375 -31.257812 85.3125 -28.09375 C 83.957031 -24.03125 82.265625 -19.96875 80.234375 -15.90625 C 80.234375 -15.6875 80.0625 -15.40625 79.71875 -15.0625 C 79.382812 -14.726562 79.101562 -14.332031 78.875 -13.875 C 78.425781 -12.976562 77.972656 -12.019531 77.515625 -11 C 77.066406 -9.988281 76.503906 -9.03125 75.828125 -8.125 C 74.929688 -6.769531 73.859375 -5.414062 72.609375 -4.0625 C 71.367188 -2.707031 70.1875 -1.351562 69.0625 0 C 68.613281 0.675781 67.9375 1.46875 67.03125 2.375 C 65 4.625 62.628906 6.03125 59.921875 6.59375 C 57.210938 7.164062 54.503906 7.453125 51.796875 7.453125 C 47.960938 7.453125 44.179688 7.453125 40.453125 7.453125 C 36.734375 7.453125 32.953125 7.335938 29.109375 7.109375 C 26.179688 6.660156 23.304688 6.4375 20.484375 6.4375 C 17.660156 6.4375 15.007812 5.644531 12.53125 4.0625 C 11.625 3.613281 10.601562 3.050781 9.46875 2.375 C 8.34375 1.695312 7.554688 0.90625 7.109375 0 C 5.523438 -2.257812 4 -4.515625 2.53125 -6.765625 C 1.070312 -9.023438 -0.222656 -11.285156 -1.359375 -13.546875 C -2.484375 -16.023438 -3.441406 -18.675781 -4.234375 -21.5 C -5.023438 -24.320312 -5.644531 -27.085938 -6.09375 -29.796875 C -6.769531 -33.859375 -7.332031 -37.863281 -7.78125 -41.8125 C -8.238281 -45.757812 -8.578125 -49.765625 -8.796875 -53.828125 C -8.796875 -56.304688 -8.570312 -58.84375 -8.125 -61.4375 C -7.675781 -64.039062 -7.335938 -66.695312 -7.109375 -69.40625 C -6.660156 -72.113281 -6.265625 -74.820312 -5.921875 -77.53125 C -5.585938 -80.238281 -5.082031 -82.941406 -4.40625 -85.640625 C -3.5 -89.484375 -2.476562 -93.320312 -1.34375 -97.15625 C -0.21875 -100.988281 0.90625 -104.710938 2.03125 -108.328125 C 4.0625 -114.648438 6.488281 -120.742188 9.3125 -126.609375 C 12.132812 -132.472656 15.6875 -137.890625 19.96875 -142.859375 C 20.644531 -143.535156 21.320312 -144.15625 22 -144.71875 C 22.675781 -145.28125 23.351562 -145.789062 24.03125 -146.25 C 24.707031 -146.925781 25.722656 -147.710938 27.078125 -148.609375 C 28.890625 -150.191406 30.582031 -151.71875 32.15625 -153.1875 C 33.738281 -154.65625 35.320312 -156.175781 36.90625 -157.75 C 39.613281 -159.78125 41.867188 -159.78125 43.671875 -157.75 C 46.148438 -159.5625 48.628906 -161.484375 51.109375 -163.515625 C 53.597656 -165.546875 55.972656 -167.347656 58.234375 -168.921875 C 62.972656 -172.085938 68.390625 -172.992188 74.484375 -171.640625 C 77.640625 -170.734375 80.117188 -169.265625 81.921875 -167.234375 C 83.734375 -165.203125 85.425781 -162.945312 87 -160.46875 C 89.03125 -156.851562 90.609375 -152.957031 91.734375 -148.78125 C 92.867188 -144.601562 93.882812 -140.484375 94.78125 -136.421875 C 96.132812 -130.785156 97.035156 -125.203125 97.484375 -119.671875 C 97.941406 -114.140625 98.285156 -108.441406 98.515625 -102.578125 C 98.734375 -100.316406 98.785156 -98.113281 98.671875 -95.96875 C 98.566406 -93.820312 98.515625 -91.507812 98.515625 -89.03125 C 104.378906 -89.257812 109.453125 -90.21875 113.734375 -91.90625 C 118.023438 -93.601562 121.410156 -95.238281 123.890625 -96.8125 C 126.378906 -98.394531 127.625 -99.1875 127.625 -99.1875 C 130.78125 -101.664062 134.273438 -102.734375 138.109375 -102.390625 C 141.953125 -102.054688 145.003906 -100.3125 147.265625 -97.15625 Z M 9.140625 -82.9375 C 9.585938 -85.414062 9.976562 -87.835938 10.3125 -90.203125 C 10.65625 -92.578125 11.054688 -94.894531 11.515625 -97.15625 C 11.285156 -97.15625 11.054688 -97.15625 10.828125 -97.15625 C 10.609375 -97.15625 10.382812 -97.15625 10.15625 -97.15625 C 9.925781 -94.894531 9.640625 -92.632812 9.296875 -90.375 C 8.960938 -88.125 8.570312 -85.757812 8.125 -83.28125 C 8.570312 -83.28125 8.910156 -83.164062 9.140625 -82.9375 Z M 56.875 -140.828125 C 55.96875 -138.796875 54.953125 -136.875 53.828125 -135.0625 C 52.703125 -133.257812 51.910156 -131.34375 51.453125 -129.3125 C 51.234375 -128.414062 50.953125 -127.457031 50.609375 -126.4375 C 50.273438 -125.425781 50.109375 -124.351562 50.109375 -123.21875 C 51.003906 -120.289062 52.296875 -117.078125 53.984375 -113.578125 C 55.679688 -110.078125 58.113281 -106.75 61.28125 -103.59375 C 62.175781 -102.914062 63.128906 -102.238281 64.140625 -101.5625 C 65.160156 -100.882812 66.125 -100.09375 67.03125 -99.1875 C 67.707031 -100.539062 68.046875 -101.21875 68.046875 -101.21875 C 68.492188 -104.832031 68.882812 -108.382812 69.21875 -111.875 C 69.5625 -115.375 69.394531 -118.929688 68.71875 -122.546875 C 68.269531 -125.703125 67.765625 -128.800781 67.203125 -131.84375 C 66.640625 -134.894531 65.566406 -137.890625 63.984375 -140.828125 C 63.078125 -142.859375 62.285156 -143.929688 61.609375 -144.046875 C 60.929688 -144.160156 59.804688 -143.539062 58.234375 -142.1875 C 58.003906 -141.957031 57.773438 -141.726562 57.546875 -141.5 C 57.328125 -141.28125 57.101562 -141.054688 56.875 -140.828125 Z M 47.390625 -37.234375 C 48.523438 -39.046875 49.710938 -40.851562 50.953125 -42.65625 C 52.191406 -44.457031 53.148438 -46.375 53.828125 -48.40625 C 55.410156 -52.019531 56.820312 -55.578125 58.0625 -59.078125 C 59.300781 -62.578125 60.484375 -66.128906 61.609375 -69.734375 C 56.421875 -72.441406 51.796875 -75.429688 47.734375 -78.703125 C 43.671875 -81.984375 40.171875 -85.425781 37.234375 -89.03125 C 37.015625 -88.582031 36.90625 -88.019531 36.90625 -87.34375 C 36.675781 -84.1875 36.390625 -80.96875 36.046875 -77.6875 C 35.710938 -74.414062 35.429688 -71.203125 35.203125 -68.046875 C 34.984375 -67.140625 34.757812 -66.234375 34.53125 -65.328125 C 34.300781 -64.429688 34.1875 -63.53125 34.1875 -62.625 C 34.414062 -60.375 34.695312 -58.175781 35.03125 -56.03125 C 35.375 -53.882812 35.546875 -51.679688 35.546875 -49.421875 C 35.316406 -46.035156 36.160156 -43.382812 38.078125 -41.46875 C 40.003906 -39.550781 42.320312 -37.914062 45.03125 -36.5625 C 46.15625 -36.5625 46.941406 -36.785156 47.390625 -37.234375 Z M 47.390625 -37.234375 "/></g></g></g><g fill="#10b981" fill-opacity="1"><g transform="translate(1160.369692, 351.289323)"><g><path d="M 214.625 -98.171875 C 217.113281 -95.234375 218.1875 -91.90625 217.84375 -88.1875 C 217.507812 -84.46875 215.757812 -81.363281 212.59375 -78.875 C 212.375 -78.65625 210.285156 -77.242188 206.328125 -74.640625 C 202.378906 -72.046875 197.078125 -69.507812 190.421875 -67.03125 C 183.765625 -64.550781 176.375 -63.535156 168.25 -63.984375 C 167.34375 -64.210938 166.492188 -64.328125 165.703125 -64.328125 C 164.921875 -64.328125 163.960938 -64.4375 162.828125 -64.65625 C 154.703125 -66.007812 147.253906 -69.054688 140.484375 -73.796875 C 139.585938 -71.316406 138.800781 -68.722656 138.125 -66.015625 C 137.445312 -63.304688 136.65625 -60.710938 135.75 -58.234375 C 134.84375 -55.296875 133.992188 -52.359375 133.203125 -49.421875 C 132.421875 -46.492188 131.578125 -43.445312 130.671875 -40.28125 C 129.992188 -38.476562 129.257812 -36.617188 128.46875 -34.703125 C 127.675781 -32.785156 127.054688 -30.921875 126.609375 -29.109375 C 125.929688 -27.535156 125.363281 -25.898438 124.90625 -24.203125 C 124.457031 -22.515625 123.894531 -20.878906 123.21875 -19.296875 C 122.769531 -17.710938 122.316406 -16.019531 121.859375 -14.21875 C 121.410156 -12.414062 120.625 -10.722656 119.5 -9.140625 C 117.019531 -4.847656 113.179688 -2.929688 107.984375 -3.390625 C 105.734375 -3.609375 103.363281 -3.71875 100.875 -3.71875 C 98.394531 -3.71875 95.914062 -3.71875 93.4375 -3.71875 C 88.019531 -3.71875 84.632812 -6.316406 83.28125 -11.515625 C 82.15625 -15.578125 81.140625 -19.582031 80.234375 -23.53125 C 79.328125 -27.476562 78.425781 -31.484375 77.53125 -35.546875 C 76.851562 -38.484375 76.34375 -41.414062 76 -44.34375 C 75.664062 -47.28125 75.269531 -50.21875 74.8125 -53.15625 C 74.8125 -53.15625 74.8125 -53.207031 74.8125 -53.3125 C 74.8125 -53.425781 74.585938 -53.597656 74.140625 -53.828125 C 73.910156 -52.703125 73.625 -51.628906 73.28125 -50.609375 C 72.945312 -49.597656 72.554688 -48.523438 72.109375 -47.390625 C 70.984375 -44.003906 69.910156 -40.675781 68.890625 -37.40625 C 67.878906 -34.132812 66.804688 -30.804688 65.671875 -27.421875 C 64.773438 -24.710938 63.988281 -21.945312 63.3125 -19.125 C 62.632812 -16.300781 61.726562 -13.535156 60.59375 -10.828125 C 59.914062 -8.578125 59.179688 -6.320312 58.390625 -4.0625 C 57.609375 -1.800781 56.878906 0.453125 56.203125 2.703125 C 55.523438 4.960938 54.898438 7.164062 54.328125 9.3125 C 53.765625 11.457031 53.144531 13.65625 52.46875 15.90625 C 51.789062 17.9375 51.113281 19.96875 50.4375 22 C 49.757812 24.03125 49.082031 26.0625 48.40625 28.09375 C 48.1875 29 48.019531 29.898438 47.90625 30.796875 C 47.789062 31.703125 47.847656 32.609375 48.078125 33.515625 C 48.523438 35.773438 48.296875 37.75 47.390625 39.4375 C 46.492188 41.132812 45.816406 42.882812 45.359375 44.6875 C 45.140625 45.363281 44.972656 46.097656 44.859375 46.890625 C 44.742188 47.679688 44.460938 48.414062 44.015625 49.09375 C 43.785156 49.769531 43.441406 50.390625 42.984375 50.953125 C 42.535156 51.515625 41.75 51.570312 40.625 51.125 C 40.394531 51.125 40.222656 51.066406 40.109375 50.953125 C 40.003906 50.835938 39.953125 50.78125 39.953125 50.78125 C 37.460938 52.363281 34.863281 53.097656 32.15625 52.984375 C 29.445312 52.867188 26.851562 52.695312 24.375 52.46875 C 22.113281 52.019531 19.742188 51.90625 17.265625 52.125 C 14.785156 52.351562 12.414062 51.679688 10.15625 50.109375 C 8.800781 49.203125 7.503906 48.179688 6.265625 47.046875 C 5.023438 45.921875 3.835938 44.796875 2.703125 43.671875 C 1.128906 41.640625 -0.332031 39.550781 -1.6875 37.40625 C -3.039062 35.257812 -3.945312 32.832031 -4.40625 30.125 C -4.625 27.644531 -5.128906 25.21875 -5.921875 22.84375 C -6.710938 20.476562 -7.332031 18.054688 -7.78125 15.578125 C -8.007812 14.441406 -8.125 13.3125 -8.125 12.1875 C -8.125 11.0625 -8.238281 10.046875 -8.46875 9.140625 C -8.6875 3.953125 -8.851562 -1.289062 -8.96875 -6.59375 C -9.082031 -11.90625 -9.023438 -17.15625 -8.796875 -22.34375 C -8.578125 -26.175781 -8.351562 -29.953125 -8.125 -33.671875 C -7.894531 -37.398438 -7.671875 -41.070312 -7.453125 -44.6875 C -6.992188 -49.195312 -6.484375 -53.765625 -5.921875 -58.390625 C -5.359375 -63.023438 -4.851562 -67.597656 -4.40625 -72.109375 C -3.726562 -77.296875 -3.050781 -82.367188 -2.375 -87.328125 C -1.695312 -92.296875 -0.90625 -97.265625 0 -102.234375 C 0.675781 -105.390625 1.519531 -108.660156 2.53125 -112.046875 C 3.550781 -115.429688 4.515625 -118.707031 5.421875 -121.875 C 5.867188 -123.445312 6.375 -125.023438 6.9375 -126.609375 C 7.5 -128.191406 7.894531 -129.769531 8.125 -131.34375 C 9.476562 -135.863281 11.960938 -139.25 15.578125 -141.5 C 16.253906 -141.957031 17.097656 -142.238281 18.109375 -142.34375 C 19.128906 -142.457031 19.75 -142.175781 19.96875 -141.5 C 20.425781 -142.632812 21.835938 -143.820312 24.203125 -145.0625 C 26.578125 -146.300781 29.003906 -147.257812 31.484375 -147.9375 C 33.960938 -148.613281 35.316406 -148.390625 35.546875 -147.265625 C 36.898438 -143.203125 38.253906 -139.140625 39.609375 -135.078125 C 40.960938 -131.015625 42.09375 -126.835938 43 -122.546875 C 43.894531 -118.253906 44.566406 -113.90625 45.015625 -109.5 C 45.472656 -105.101562 45.925781 -100.648438 46.375 -96.140625 C 46.832031 -93.878906 47.171875 -91.617188 47.390625 -89.359375 C 47.617188 -87.109375 47.847656 -84.742188 48.078125 -82.265625 C 48.523438 -79.785156 48.75 -77.242188 48.75 -74.640625 C 48.75 -72.046875 48.863281 -69.507812 49.09375 -67.03125 C 49.539062 -62.0625 49.875 -57.148438 50.09375 -52.296875 C 50.320312 -47.453125 50.773438 -42.429688 51.453125 -37.234375 C 51.910156 -38.367188 52.363281 -39.554688 52.8125 -40.796875 C 53.257812 -42.035156 53.710938 -43.21875 54.171875 -44.34375 C 56.648438 -50.21875 59.1875 -56.144531 61.78125 -62.125 C 64.375 -68.101562 67.023438 -73.914062 69.734375 -79.5625 C 70.867188 -82.039062 72.054688 -84.578125 73.296875 -87.171875 C 74.535156 -89.765625 75.945312 -92.191406 77.53125 -94.453125 C 79.101562 -96.929688 81.472656 -99.1875 84.640625 -101.21875 C 85.085938 -101.445312 85.929688 -101.222656 87.171875 -100.546875 C 88.410156 -99.867188 89.367188 -99.191406 90.046875 -98.515625 C 91.847656 -96.253906 93.203125 -93.828125 94.109375 -91.234375 C 95.015625 -88.640625 95.804688 -85.988281 96.484375 -83.28125 C 97.609375 -79.445312 98.617188 -75.550781 99.515625 -71.59375 C 100.421875 -67.644531 101.210938 -63.640625 101.890625 -59.578125 C 102.796875 -56.421875 103.472656 -53.148438 103.921875 -49.765625 C 104.378906 -46.378906 104.945312 -43.109375 105.625 -39.953125 C 105.625 -39.492188 105.960938 -38.585938 106.640625 -37.234375 C 108.890625 -42.203125 111.03125 -47.054688 113.0625 -51.796875 C 115.09375 -56.535156 117.125 -61.160156 119.15625 -65.671875 C 120.507812 -68.835938 121.863281 -72.113281 123.21875 -75.5 C 124.570312 -78.882812 125.925781 -82.15625 127.28125 -85.3125 C 127.28125 -85.3125 127.28125 -85.421875 127.28125 -85.640625 C 126.15625 -86.992188 124.972656 -88.40625 123.734375 -89.875 C 122.492188 -91.34375 121.304688 -92.867188 120.171875 -94.453125 C 117.460938 -97.378906 115.546875 -100.535156 114.421875 -103.921875 C 112.835938 -108.210938 111.820312 -113.066406 111.375 -118.484375 C 111.375 -123.453125 111.769531 -128.304688 112.5625 -133.046875 C 113.351562 -137.785156 114.648438 -142.410156 116.453125 -146.921875 C 117.578125 -149.398438 119.039062 -151.539062 120.84375 -153.34375 C 122.65625 -155.15625 124.460938 -156.960938 126.265625 -158.765625 C 129.429688 -162.378906 132.988281 -164.296875 136.9375 -164.515625 C 140.882812 -164.742188 144.890625 -164.410156 148.953125 -163.515625 C 149.859375 -163.285156 150.757812 -162.660156 151.65625 -161.640625 C 152.5625 -160.628906 153.128906 -159.5625 153.359375 -158.4375 C 154.484375 -155.5 155.269531 -152.445312 155.71875 -149.28125 C 156.175781 -146.125 156.066406 -142.851562 155.390625 -139.46875 C 154.484375 -136.082031 153.914062 -132.640625 153.6875 -129.140625 C 153.46875 -125.648438 153.128906 -122.097656 152.671875 -118.484375 C 152.453125 -117.359375 152.226562 -116.117188 152 -114.765625 C 151.769531 -113.410156 151.429688 -112.164062 150.984375 -111.03125 L 148.953125 -103.25 C 154.816406 -97.15625 160.910156 -93.429688 167.234375 -92.078125 C 172.203125 -91.398438 176.769531 -91.738281 180.9375 -93.09375 C 185.113281 -94.445312 188.5 -95.96875 191.09375 -97.65625 C 193.695312 -99.351562 195 -100.203125 195 -100.203125 C 198.15625 -102.679688 201.59375 -103.75 205.3125 -103.40625 C 209.039062 -103.070312 212.144531 -101.328125 214.625 -98.171875 Z M 15.90625 -97.5 C 16.132812 -99.75 16.25 -101.945312 16.25 -104.09375 C 16.25 -106.238281 16.363281 -108.441406 16.59375 -110.703125 C 16.59375 -110.703125 16.535156 -110.703125 16.421875 -110.703125 C 16.304688 -110.703125 16.132812 -110.703125 15.90625 -110.703125 C 15.6875 -108.441406 15.519531 -106.238281 15.40625 -104.09375 C 15.289062 -101.945312 15.117188 -99.75 14.890625 -97.5 C 15.117188 -97.5 15.289062 -97.5 15.40625 -97.5 C 15.519531 -97.5 15.6875 -97.5 15.90625 -97.5 Z M 16.921875 -111.71875 C 17.378906 -114.195312 17.71875 -116.789062 17.9375 -119.5 C 18.164062 -122.207031 18.394531 -124.800781 18.625 -127.28125 C 18.394531 -127.507812 18.054688 -127.625 17.609375 -127.625 C 17.378906 -124.914062 17.148438 -122.265625 16.921875 -119.671875 C 16.703125 -117.078125 16.363281 -114.425781 15.90625 -111.71875 C 16.132812 -111.71875 16.304688 -111.71875 16.421875 -111.71875 C 16.535156 -111.71875 16.703125 -111.71875 16.921875 -111.71875 Z M 131.015625 -138.453125 C 130.785156 -134.847656 130.835938 -131.460938 131.171875 -128.296875 C 131.515625 -125.140625 132.816406 -122.09375 135.078125 -119.15625 C 135.523438 -118.9375 135.972656 -118.710938 136.421875 -118.484375 C 136.878906 -118.253906 137.21875 -118.03125 137.4375 -117.8125 C 137.664062 -118.257812 137.835938 -118.648438 137.953125 -118.984375 C 138.066406 -119.328125 138.234375 -119.613281 138.453125 -119.84375 C 138.910156 -121.414062 139.25 -122.992188 139.46875 -124.578125 C 139.695312 -126.160156 139.925781 -127.738281 140.15625 -129.3125 C 140.601562 -132.019531 140.992188 -134.726562 141.328125 -137.4375 C 141.671875 -140.144531 141.957031 -142.96875 142.1875 -145.90625 C 142.40625 -147.257812 142.0625 -148.21875 141.15625 -148.78125 C 140.257812 -149.34375 139.132812 -149.285156 137.78125 -148.609375 C 133.71875 -147.035156 131.460938 -143.648438 131.015625 -138.453125 Z M 131.015625 -138.453125 "/></g></g></g><g fill="#1f2937" fill-opacity="1"><g transform="translate(375.900728, 526.367004)"><g><path d="M 11.578125 -11 L 12.25 -6.390625 L 13.234375 -10.546875 L 20.125 -34.890625 L 24.015625 -34.890625 L 30.75 -10.546875 L 31.703125 -6.328125 L 32.453125 -11.015625 L 37.859375 -34.890625 L 42.484375 -34.890625 L 34.03125 0 L 29.828125 0 L 22.640625 -25.421875 L 22.09375 -28.078125 L 21.546875 -25.421875 L 14.09375 0 L 9.890625 0 L 1.46875 -34.890625 L 6.0625 -34.890625 Z M 11.578125 -11 "/></g></g></g><g fill="#1f2937" fill-opacity="1"><g transform="translate(423.76216, 526.367004)"><g><path d="M 30.890625 -16.3125 C 30.890625 -12.894531 30.3125 -9.910156 29.15625 -7.359375 C 28.007812 -4.816406 26.378906 -2.875 24.265625 -1.53125 C 22.160156 -0.1875 19.703125 0.484375 16.890625 0.484375 C 14.140625 0.484375 11.703125 -0.191406 9.578125 -1.546875 C 7.453125 -2.898438 5.800781 -4.828125 4.625 -7.328125 C 3.457031 -9.828125 2.859375 -12.722656 2.828125 -16.015625 L 2.828125 -18.53125 C 2.828125 -21.882812 3.410156 -24.84375 4.578125 -27.40625 C 5.742188 -29.976562 7.390625 -31.945312 9.515625 -33.3125 C 11.648438 -34.6875 14.09375 -35.375 16.84375 -35.375 C 19.644531 -35.375 22.109375 -34.695312 24.234375 -33.34375 C 26.367188 -32 28.007812 -30.039062 29.15625 -27.46875 C 30.3125 -24.90625 30.890625 -21.925781 30.890625 -18.53125 Z M 26.3125 -18.578125 C 26.3125 -22.710938 25.476562 -25.882812 23.8125 -28.09375 C 22.15625 -30.3125 19.832031 -31.421875 16.84375 -31.421875 C 13.9375 -31.421875 11.648438 -30.3125 9.984375 -28.09375 C 8.316406 -25.882812 7.457031 -22.816406 7.40625 -18.890625 L 7.40625 -16.3125 C 7.40625 -12.300781 8.25 -9.148438 9.9375 -6.859375 C 11.625 -4.566406 13.941406 -3.421875 16.890625 -3.421875 C 19.867188 -3.421875 22.171875 -4.503906 23.796875 -6.671875 C 25.421875 -8.835938 26.257812 -11.941406 26.3125 -15.984375 Z M 26.3125 -18.578125 "/></g></g></g><g fill="#1f2937" fill-opacity="1"><g transform="translate(461.822509, 526.367004)"><g><path d="M 16.84375 -14.109375 L 8.65625 -14.109375 L 8.65625 0 L 4.03125 0 L 4.03125 -34.890625 L 15.578125 -34.890625 C 19.503906 -34.890625 22.523438 -33.992188 24.640625 -32.203125 C 26.765625 -30.421875 27.828125 -27.816406 27.828125 -24.390625 C 27.828125 -22.222656 27.238281 -20.332031 26.0625 -18.71875 C 24.882812 -17.101562 23.25 -15.894531 21.15625 -15.09375 L 29.359375 -0.28125 L 29.359375 0 L 24.421875 0 Z M 8.65625 -17.875 L 15.71875 -17.875 C 18 -17.875 19.816406 -18.460938 21.171875 -19.640625 C 22.523438 -20.828125 23.203125 -22.410156 23.203125 -24.390625 C 23.203125 -26.546875 22.554688 -28.195312 21.265625 -29.34375 C 19.984375 -30.5 18.128906 -31.085938 15.703125 -31.109375 L 8.65625 -31.109375 Z M 8.65625 -17.875 "/></g></g></g><g fill="#1f2937" fill-opacity="1"><g transform="translate(496.360218, 526.367004)"><g><path d="M 12.921875 -16.21875 L 8.65625 -11.796875 L 8.65625 0 L 4.046875 0 L 4.046875 -34.890625 L 8.65625 -34.890625 L 8.65625 -17.640625 L 24.15625 -34.890625 L 29.71875 -34.890625 L 15.984375 -19.484375 L 30.796875 0 L 25.28125 0 Z M 12.921875 -16.21875 "/></g></g></g><g fill="#1f2937" fill-opacity="1"><g transform="translate(531.449089, 526.367004)"><g><path d="M 3.453125 -2.328125 C 3.453125 -3.085938 3.675781 -3.722656 4.125 -4.234375 C 4.582031 -4.753906 5.265625 -5.015625 6.171875 -5.015625 C 7.085938 -5.015625 7.78125 -4.753906 8.25 -4.234375 C 8.726562 -3.722656 8.96875 -3.085938 8.96875 -2.328125 C 8.96875 -1.585938 8.726562 -0.96875 8.25 -0.46875 C 7.78125 0.0195312 7.085938 0.265625 6.171875 0.265625 C 5.265625 0.265625 4.582031 0.0195312 4.125 -0.46875 C 3.675781 -0.96875 3.453125 -1.585938 3.453125 -2.328125 Z M 3.453125 -2.328125 "/></g></g></g><g fill="#1f2937" fill-opacity="1"><g transform="translate(548.68513, 526.367004)"><g/></g></g><g fill="#1f2937" fill-opacity="1"><g transform="translate(565.154338, 526.367004)"><g><path d="M 28.15625 -31.109375 L 16.9375 -31.109375 L 16.9375 0 L 12.359375 0 L 12.359375 -31.109375 L 1.171875 -31.109375 L 1.171875 -34.890625 L 28.15625 -34.890625 Z M 28.15625 -31.109375 "/></g></g></g><g fill="#1f2937" fill-opacity="1"><g transform="translate(598.757469, 526.367004)"><g><path d="M 16.84375 -14.109375 L 8.65625 -14.109375 L 8.65625 0 L 4.03125 0 L 4.03125 -34.890625 L 15.578125 -34.890625 C 19.503906 -34.890625 22.523438 -33.992188 24.640625 -32.203125 C 26.765625 -30.421875 27.828125 -27.816406 27.828125 -24.390625 C 27.828125 -22.222656 27.238281 -20.332031 26.0625 -18.71875 C 24.882812 -17.101562 23.25 -15.894531 21.15625 -15.09375 L 29.359375 -0.28125 L 29.359375 0 L 24.421875 0 Z M 8.65625 -17.875 L 15.71875 -17.875 C 18 -17.875 19.816406 -18.460938 21.171875 -19.640625 C 22.523438 -20.828125 23.203125 -22.410156 23.203125 -24.390625 C 23.203125 -26.546875 22.554688 -28.195312 21.265625 -29.34375 C 19.984375 -30.5 18.128906 -31.085938 15.703125 -31.109375 L 8.65625 -31.109375 Z M 8.65625 -17.875 "/></g></g></g><g fill="#1f2937" fill-opacity="1"><g transform="translate(633.295164, 526.367004)"><g><path d="M 23.3125 -9.109375 L 8.703125 -9.109375 L 5.421875 0 L 0.671875 0 L 14 -34.890625 L 18.015625 -34.890625 L 31.375 0 L 26.640625 0 Z M 10.09375 -12.890625 L 21.953125 -12.890625 L 16.015625 -29.21875 Z M 10.09375 -12.890625 "/></g></g></g><g fill="#1f2937" fill-opacity="1"><g transform="translate(669.630152, 526.367004)"><g><path d="M 29.71875 -11.078125 C 29.28125 -7.378906 27.914062 -4.523438 25.625 -2.515625 C 23.332031 -0.515625 20.285156 0.484375 16.484375 0.484375 C 12.359375 0.484375 9.054688 -0.992188 6.578125 -3.953125 C 4.097656 -6.910156 2.859375 -10.863281 2.859375 -15.8125 L 2.859375 -19.171875 C 2.859375 -22.410156 3.4375 -25.257812 4.59375 -27.71875 C 5.75 -30.1875 7.390625 -32.078125 9.515625 -33.390625 C 11.640625 -34.710938 14.097656 -35.375 16.890625 -35.375 C 20.597656 -35.375 23.570312 -34.335938 25.8125 -32.265625 C 28.050781 -30.203125 29.351562 -27.335938 29.71875 -23.671875 L 25.09375 -23.671875 C 24.6875 -26.453125 23.816406 -28.460938 22.484375 -29.703125 C 21.148438 -30.953125 19.285156 -31.578125 16.890625 -31.578125 C 13.953125 -31.578125 11.648438 -30.488281 9.984375 -28.3125 C 8.316406 -26.144531 7.484375 -23.054688 7.484375 -19.046875 L 7.484375 -15.671875 C 7.484375 -11.890625 8.269531 -8.878906 9.84375 -6.640625 C 11.425781 -4.398438 13.640625 -3.28125 16.484375 -3.28125 C 19.046875 -3.28125 21.007812 -3.859375 22.375 -5.015625 C 23.738281 -6.179688 24.644531 -8.203125 25.09375 -11.078125 Z M 29.71875 -11.078125 "/></g></g></g><g fill="#1f2937" fill-opacity="1"><g transform="translate(705.893235, 526.367004)"><g><path d="M 12.921875 -16.21875 L 8.65625 -11.796875 L 8.65625 0 L 4.046875 0 L 4.046875 -34.890625 L 8.65625 -34.890625 L 8.65625 -17.640625 L 24.15625 -34.890625 L 29.71875 -34.890625 L 15.984375 -19.484375 L 30.796875 0 L 25.28125 0 Z M 12.921875 -16.21875 "/></g></g></g><g fill="#1f2937" fill-opacity="1"><g transform="translate(740.982091, 526.367004)"><g><path d="M 3.453125 -2.328125 C 3.453125 -3.085938 3.675781 -3.722656 4.125 -4.234375 C 4.582031 -4.753906 5.265625 -5.015625 6.171875 -5.015625 C 7.085938 -5.015625 7.78125 -4.753906 8.25 -4.234375 C 8.726562 -3.722656 8.96875 -3.085938 8.96875 -2.328125 C 8.96875 -1.585938 8.726562 -0.96875 8.25 -0.46875 C 7.78125 0.0195312 7.085938 0.265625 6.171875 0.265625 C 5.265625 0.265625 4.582031 0.0195312 4.125 -0.46875 C 3.675781 -0.96875 3.453125 -1.585938 3.453125 -2.328125 Z M 3.453125 -2.328125 "/></g></g></g><g fill="#1f2937" fill-opacity="1"><g transform="translate(758.218132, 526.367004)"><g/></g></g><g fill="#1f2937" fill-opacity="1"><g transform="translate(774.687339, 526.367004)"><g><path d="M 8.984375 0 L 4.390625 0 L 4.390625 -34.890625 L 8.984375 -34.890625 Z M 8.984375 0 "/></g></g></g><g fill="#1f2937" fill-opacity="1"><g transform="translate(792.354752, 526.367004)"><g><path d="M 10 -34.890625 L 21.40625 -6.421875 L 32.8125 -34.890625 L 38.78125 -34.890625 L 38.78125 0 L 34.171875 0 L 34.171875 -13.59375 L 34.609375 -28.25 L 23.15625 0 L 19.625 0 L 8.203125 -28.1875 L 8.65625 -13.59375 L 8.65625 0 L 4.046875 0 L 4.046875 -34.890625 Z M 10 -34.890625 "/></g></g></g><g fill="#1f2937" fill-opacity="1"><g transform="translate(839.521227, 526.367004)"><g><path d="M 8.65625 -13.65625 L 8.65625 0 L 4.046875 0 L 4.046875 -34.890625 L 16.921875 -34.890625 C 20.734375 -34.890625 23.722656 -33.914062 25.890625 -31.96875 C 28.054688 -30.019531 29.140625 -27.441406 29.140625 -24.234375 C 29.140625 -20.835938 28.082031 -18.222656 25.96875 -16.390625 C 23.851562 -14.566406 20.820312 -13.65625 16.875 -13.65625 Z M 8.65625 -17.421875 L 16.921875 -17.421875 C 19.378906 -17.421875 21.265625 -18 22.578125 -19.15625 C 23.890625 -20.3125 24.546875 -21.984375 24.546875 -24.171875 C 24.546875 -26.253906 23.890625 -27.914062 22.578125 -29.15625 C 21.265625 -30.40625 19.46875 -31.054688 17.1875 -31.109375 L 8.65625 -31.109375 Z M 8.65625 -17.421875 "/></g></g></g><g fill="#1f2937" fill-opacity="1"><g transform="translate(874.801792, 526.367004)"><g><path d="M 16.84375 -14.109375 L 8.65625 -14.109375 L 8.65625 0 L 4.03125 0 L 4.03125 -34.890625 L 15.578125 -34.890625 C 19.503906 -34.890625 22.523438 -33.992188 24.640625 -32.203125 C 26.765625 -30.421875 27.828125 -27.816406 27.828125 -24.390625 C 27.828125 -22.222656 27.238281 -20.332031 26.0625 -18.71875 C 24.882812 -17.101562 23.25 -15.894531 21.15625 -15.09375 L 29.359375 -0.28125 L 29.359375 0 L 24.421875 0 Z M 8.65625 -17.875 L 15.71875 -17.875 C 18 -17.875 19.816406 -18.460938 21.171875 -19.640625 C 22.523438 -20.828125 23.203125 -22.410156 23.203125 -24.390625 C 23.203125 -26.546875 22.554688 -28.195312 21.265625 -29.34375 C 19.984375 -30.5 18.128906 -31.085938 15.703125 -31.109375 L 8.65625 -31.109375 Z M 8.65625 -17.875 "/></g></g></g><g fill="#1f2937" fill-opacity="1"><g transform="translate(909.339529, 526.367004)"><g><path d="M 30.890625 -16.3125 C 30.890625 -12.894531 30.3125 -9.910156 29.15625 -7.359375 C 28.007812 -4.816406 26.378906 -2.875 24.265625 -1.53125 C 22.160156 -0.1875 19.703125 0.484375 16.890625 0.484375 C 14.140625 0.484375 11.703125 -0.191406 9.578125 -1.546875 C 7.453125 -2.898438 5.800781 -4.828125 4.625 -7.328125 C 3.457031 -9.828125 2.859375 -12.722656 2.828125 -16.015625 L 2.828125 -18.53125 C 2.828125 -21.882812 3.410156 -24.84375 4.578125 -27.40625 C 5.742188 -29.976562 7.390625 -31.945312 9.515625 -33.3125 C 11.648438 -34.6875 14.09375 -35.375 16.84375 -35.375 C 19.644531 -35.375 22.109375 -34.695312 24.234375 -33.34375 C 26.367188 -32 28.007812 -30.039062 29.15625 -27.46875 C 30.3125 -24.90625 30.890625 -21.925781 30.890625 -18.53125 Z M 26.3125 -18.578125 C 26.3125 -22.710938 25.476562 -25.882812 23.8125 -28.09375 C 22.15625 -30.3125 19.832031 -31.421875 16.84375 -31.421875 C 13.9375 -31.421875 11.648438 -30.3125 9.984375 -28.09375 C 8.316406 -25.882812 7.457031 -22.816406 7.40625 -18.890625 L 7.40625 -16.3125 C 7.40625 -12.300781 8.25 -9.148438 9.9375 -6.859375 C 11.625 -4.566406 13.941406 -3.421875 16.890625 -3.421875 C 19.867188 -3.421875 22.171875 -4.503906 23.796875 -6.671875 C 25.421875 -8.835938 26.257812 -11.941406 26.3125 -15.984375 Z M 26.3125 -18.578125 "/></g></g></g><g fill="#1f2937" fill-opacity="1"><g transform="translate(947.399835, 526.367004)"><g><path d="M 15.59375 -6.109375 L 25.5625 -34.890625 L 30.609375 -34.890625 L 17.65625 0 L 13.59375 0 L 0.671875 -34.890625 L 5.671875 -34.890625 Z M 15.59375 -6.109375 "/></g></g></g><g fill="#1f2937" fill-opacity="1"><g transform="translate(982.944013, 526.367004)"><g><path d="M 23.765625 -16.125 L 8.65625 -16.125 L 8.65625 -3.765625 L 26.21875 -3.765625 L 26.21875 0 L 4.046875 0 L 4.046875 -34.890625 L 25.984375 -34.890625 L 25.984375 -31.109375 L 8.65625 -31.109375 L 8.65625 -19.890625 L 23.765625 -19.890625 Z M 23.765625 -16.125 "/></g></g></g><g fill="#1f2937" fill-opacity="1"><g transform="translate(1015.157274, 526.367004)"><g><path d="M 3.453125 -2.328125 C 3.453125 -3.085938 3.675781 -3.722656 4.125 -4.234375 C 4.582031 -4.753906 5.265625 -5.015625 6.171875 -5.015625 C 7.085938 -5.015625 7.78125 -4.753906 8.25 -4.234375 C 8.726562 -3.722656 8.96875 -3.085938 8.96875 -2.328125 C 8.96875 -1.585938 8.726562 -0.96875 8.25 -0.46875 C 7.78125 0.0195312 7.085938 0.265625 6.171875 0.265625 C 5.265625 0.265625 4.582031 0.0195312 4.125 -0.46875 C 3.675781 -0.96875 3.453125 -1.585938 3.453125 -2.328125 Z M 3.453125 -2.328125 "/></g></g></g></g></g></svg>