<svg xmlns="http://www.w3.org/2000/svg" xmlns:xlink="http://www.w3.org/1999/xlink" width="180" zoomAndPan="magnify" viewBox="0 0 135 135.000003" height="180" preserveAspectRatio="xMidYMid meet" version="1.0"><defs><g/><clipPath id="7b2c7944cc"><path d="M 9 0 L 128 0 L 128 134.007812 L 9 134.007812 Z M 9 0 " clip-rule="nonzero"/></clipPath><clipPath id="d610ea40f8"><rect x="0" width="119" y="0" height="135"/></clipPath></defs><g clip-path="url(#7b2c7944cc)"><g transform="matrix(1, 0, 0, 1, 9, -0.000000000000003367)"><g clip-path="url(#d610ea40f8)"><g fill="#2563eb" fill-opacity="1"><g transform="translate(15.840541, 98.975487)"><g><path d="M 57.453125 -75.296875 C 56.742188 -75.296875 56.085938 -75.3125 55.484375 -75.34375 C 54.890625 -75.382812 54.28125 -75.367188 53.65625 -75.296875 C 52.457031 -75.160156 51.222656 -74.953125 49.953125 -74.671875 C 49.390625 -74.597656 48.804688 -74.472656 48.203125 -74.296875 C 47.609375 -74.117188 47.03125 -73.960938 46.46875 -73.828125 C 45.757812 -73.679688 45.070312 -73.519531 44.40625 -73.34375 C 43.738281 -73.164062 43.019531 -72.972656 42.25 -72.765625 C 41.6875 -72.691406 41.101562 -72.566406 40.5 -72.390625 C 39.90625 -72.210938 39.328125 -72.054688 38.765625 -71.921875 C 38.335938 -71.847656 37.910156 -71.738281 37.484375 -71.59375 C 37.066406 -71.457031 36.644531 -71.320312 36.21875 -71.1875 C 35.800781 -71.113281 35.378906 -71.023438 34.953125 -70.921875 C 34.535156 -70.816406 34.113281 -70.691406 33.6875 -70.546875 C 33.195312 -70.472656 32.671875 -70.363281 32.109375 -70.21875 C 31.546875 -70.082031 30.984375 -69.945312 30.421875 -69.8125 C 30.140625 -69.738281 29.890625 -69.613281 29.671875 -69.4375 C 29.460938 -69.257812 29.21875 -69.101562 28.9375 -68.96875 C 29.070312 -67.695312 29.191406 -66.410156 29.296875 -65.109375 C 29.410156 -63.804688 29.503906 -62.484375 29.578125 -61.140625 C 29.640625 -60.859375 29.617188 -60.578125 29.515625 -60.296875 C 29.410156 -60.015625 29.359375 -59.734375 29.359375 -59.453125 C 29.285156 -59.316406 29.265625 -59.140625 29.296875 -58.921875 C 29.335938 -58.710938 29.320312 -58.539062 29.25 -58.40625 C 29.25 -57.695312 29.226562 -56.972656 29.1875 -56.234375 C 29.15625 -55.492188 29.109375 -54.738281 29.046875 -53.96875 C 28.972656 -53.050781 28.882812 -52.132812 28.78125 -51.21875 C 28.675781 -50.300781 28.550781 -49.382812 28.40625 -48.46875 C 28.332031 -47.625 28.28125 -46.78125 28.25 -45.9375 C 28.21875 -45.09375 28.164062 -44.25 28.09375 -43.40625 C 28.09375 -43.332031 28.09375 -43.273438 28.09375 -43.234375 C 28.09375 -43.203125 28.09375 -43.1875 28.09375 -43.1875 C 27.664062 -42.488281 27.453125 -41.71875 27.453125 -40.875 C 27.453125 -40.03125 27.382812 -39.21875 27.25 -38.4375 C 27.101562 -37.59375 27.03125 -36.726562 27.03125 -35.84375 C 27.03125 -34.96875 26.890625 -34.109375 26.609375 -33.265625 C 26.472656 -32.773438 26.382812 -32.300781 26.34375 -31.84375 C 26.3125 -31.382812 26.222656 -30.976562 26.078125 -30.625 C 25.796875 -29.925781 25.707031 -29.1875 25.8125 -28.40625 C 25.925781 -27.632812 25.734375 -26.894531 25.234375 -26.1875 C 25.097656 -25.90625 25.0625 -25.585938 25.125 -25.234375 C 25.195312 -24.890625 25.164062 -24.539062 25.03125 -24.1875 C 24.675781 -23.34375 24.570312 -22.425781 24.71875 -21.4375 C 24.851562 -20.875 24.710938 -20.273438 24.296875 -19.640625 C 23.941406 -19.003906 23.78125 -18.351562 23.8125 -17.6875 C 23.851562 -17.019531 23.800781 -16.367188 23.65625 -15.734375 C 23.582031 -15.660156 23.5625 -15.570312 23.59375 -15.46875 C 23.632812 -15.363281 23.617188 -15.273438 23.546875 -15.203125 C 23.054688 -14.921875 22.863281 -14.535156 22.96875 -14.046875 C 23.070312 -13.554688 23.054688 -13.097656 22.921875 -12.671875 C 22.921875 -12.671875 22.921875 -12.632812 22.921875 -12.5625 C 22.921875 -12.5 22.921875 -12.46875 22.921875 -12.46875 C 22.421875 -11.96875 22.207031 -11.382812 22.28125 -10.71875 C 22.351562 -10.050781 22.285156 -9.4375 22.078125 -8.875 C 21.796875 -8.164062 21.582031 -7.476562 21.4375 -6.8125 C 21.300781 -6.144531 21.160156 -5.421875 21.015625 -4.640625 C 20.804688 -3.378906 20.59375 -2.097656 20.375 -0.796875 C 20.164062 0.503906 19.921875 1.828125 19.640625 3.171875 C 19.566406 3.867188 19.441406 4.535156 19.265625 5.171875 C 19.097656 5.804688 18.941406 6.476562 18.796875 7.1875 C 18.722656 7.675781 18.648438 8.164062 18.578125 8.65625 C 18.515625 9.15625 18.410156 9.6875 18.265625 10.25 C 18.203125 10.738281 18.082031 11.265625 17.90625 11.828125 C 17.726562 12.390625 17.566406 12.988281 17.421875 13.625 C 17.210938 13.34375 17.054688 13.148438 16.953125 13.046875 C 16.847656 12.941406 16.796875 12.890625 16.796875 12.890625 C 16.515625 12.953125 16.234375 13.035156 15.953125 13.140625 C 15.671875 13.253906 15.390625 13.3125 15.109375 13.3125 C 14.960938 13.3125 14.800781 13.238281 14.625 13.09375 C 14.445312 12.957031 14.253906 12.851562 14.046875 12.78125 C 13.765625 13.132812 13.234375 13.328125 12.453125 13.359375 C 11.679688 13.390625 11.085938 13.160156 10.671875 12.671875 C 9.828125 13.023438 9.035156 13.039062 8.296875 12.71875 C 7.554688 12.40625 7.007812 11.789062 6.65625 10.875 C 6.300781 9.820312 6.070312 8.75 5.96875 7.65625 C 5.863281 6.5625 5.8125 5.453125 5.8125 4.328125 C 5.738281 3.273438 5.664062 2.21875 5.59375 1.15625 C 5.519531 0.101562 5.414062 -0.945312 5.28125 -2 C 5.28125 -2.28125 5.28125 -2.546875 5.28125 -2.796875 C 5.28125 -3.046875 5.28125 -3.3125 5.28125 -3.59375 C 5.28125 -5.351562 5.257812 -7.09375 5.21875 -8.8125 C 5.1875 -10.539062 5.171875 -12.285156 5.171875 -14.046875 C 5.097656 -15.242188 5.078125 -16.457031 5.109375 -17.6875 C 5.148438 -18.914062 5.242188 -20.128906 5.390625 -21.328125 C 5.523438 -22.316406 5.609375 -23.335938 5.640625 -24.390625 C 5.679688 -25.453125 5.738281 -26.472656 5.8125 -27.453125 C 5.945312 -28.648438 6.117188 -29.863281 6.328125 -31.09375 C 6.546875 -32.332031 6.722656 -33.550781 6.859375 -34.75 C 7.003906 -35.519531 7.078125 -36.273438 7.078125 -37.015625 C 7.078125 -37.753906 7.179688 -38.476562 7.390625 -39.1875 C 7.535156 -39.882812 7.625 -40.601562 7.65625 -41.34375 C 7.6875 -42.082031 7.914062 -42.804688 8.34375 -43.515625 C 8.476562 -43.648438 8.507812 -43.859375 8.4375 -44.140625 C 8.375 -44.421875 8.378906 -44.703125 8.453125 -44.984375 C 8.734375 -46.398438 9.03125 -47.828125 9.34375 -49.265625 C 9.664062 -50.710938 9.96875 -52.140625 10.25 -53.546875 C 10.53125 -55.097656 10.898438 -56.59375 11.359375 -58.03125 C 11.816406 -59.476562 12.289062 -60.90625 12.78125 -62.3125 C 12.914062 -62.800781 13.050781 -63.273438 13.1875 -63.734375 C 13.332031 -64.191406 13.476562 -64.664062 13.625 -65.15625 C 13.269531 -65.09375 12.898438 -65.039062 12.515625 -65 C 12.128906 -64.96875 11.757812 -64.878906 11.40625 -64.734375 C 10.84375 -64.671875 10.257812 -64.53125 9.65625 -64.3125 C 9.0625 -64.101562 8.484375 -63.925781 7.921875 -63.78125 C 7.210938 -63.71875 6.503906 -63.628906 5.796875 -63.515625 C 5.097656 -63.410156 4.398438 -63.328125 3.703125 -63.265625 C 2.566406 -63.117188 1.472656 -62.972656 0.421875 -62.828125 C -0.628906 -62.691406 -1.71875 -62.585938 -2.84375 -62.515625 C -3.625 -62.453125 -4.4375 -62.421875 -5.28125 -62.421875 C -6.125 -62.421875 -6.929688 -62.453125 -7.703125 -62.515625 C -8.484375 -62.585938 -9.242188 -62.691406 -9.984375 -62.828125 C -10.722656 -62.972656 -11.476562 -63.082031 -12.25 -63.15625 C -12.8125 -63.226562 -13.195312 -63.457031 -13.40625 -63.84375 C -13.625 -64.226562 -13.625 -64.664062 -13.40625 -65.15625 C -13.34375 -65.300781 -13.273438 -65.441406 -13.203125 -65.578125 C -13.128906 -65.722656 -13.09375 -65.863281 -13.09375 -66 C -12.957031 -66.351562 -12.800781 -66.671875 -12.625 -66.953125 C -12.445312 -67.234375 -12.144531 -67.445312 -11.71875 -67.59375 C -11.507812 -67.664062 -11.316406 -67.804688 -11.140625 -68.015625 C -10.960938 -68.222656 -10.769531 -68.398438 -10.5625 -68.546875 C -10 -69.109375 -9.414062 -69.546875 -8.8125 -69.859375 C -8.21875 -70.171875 -7.566406 -70.4375 -6.859375 -70.65625 C -6.015625 -70.9375 -5.1875 -71.21875 -4.375 -71.5 C -3.570312 -71.78125 -2.75 -72.0625 -1.90625 -72.34375 C -1.34375 -72.550781 -0.757812 -72.757812 -0.15625 -72.96875 C 0.4375 -73.1875 1.015625 -73.363281 1.578125 -73.5 C 2.210938 -73.71875 2.828125 -73.945312 3.421875 -74.1875 C 4.023438 -74.4375 4.644531 -74.628906 5.28125 -74.765625 C 5.5625 -74.910156 5.84375 -74.984375 6.125 -74.984375 C 6.40625 -74.984375 6.6875 -75.019531 6.96875 -75.09375 C 7.738281 -75.375 8.507812 -75.65625 9.28125 -75.9375 C 10.0625 -76.21875 10.835938 -76.5 11.609375 -76.78125 C 12.035156 -76.914062 12.457031 -77 12.875 -77.03125 C 13.300781 -77.070312 13.757812 -77.128906 14.25 -77.203125 C 14.882812 -77.335938 15.519531 -77.507812 16.15625 -77.71875 C 16.789062 -77.9375 17.460938 -78.113281 18.171875 -78.25 C 18.515625 -78.394531 18.894531 -78.5 19.3125 -78.5625 C 19.738281 -78.632812 20.164062 -78.707031 20.59375 -78.78125 C 20.945312 -78.851562 21.316406 -78.941406 21.703125 -79.046875 C 22.085938 -79.148438 22.492188 -79.238281 22.921875 -79.3125 C 23.265625 -79.382812 23.648438 -79.4375 24.078125 -79.46875 C 24.503906 -79.507812 24.925781 -79.5625 25.34375 -79.625 C 25.414062 -79.625 25.484375 -79.609375 25.546875 -79.578125 C 25.617188 -79.546875 25.691406 -79.5625 25.765625 -79.625 C 26.753906 -79.976562 27.789062 -80.222656 28.875 -80.359375 C 29.96875 -80.503906 31.046875 -80.648438 32.109375 -80.796875 C 33.085938 -81.003906 34.085938 -81.210938 35.109375 -81.421875 C 36.128906 -81.628906 37.171875 -81.769531 38.234375 -81.84375 C 38.796875 -81.84375 39.359375 -81.910156 39.921875 -82.046875 C 40.484375 -82.191406 41.046875 -82.300781 41.609375 -82.375 C 42.734375 -82.519531 43.859375 -82.695312 44.984375 -82.90625 C 46.109375 -83.113281 47.238281 -83.21875 48.375 -83.21875 C 49.144531 -83.289062 49.953125 -83.328125 50.796875 -83.328125 C 51.640625 -83.328125 52.484375 -83.148438 53.328125 -82.796875 C 53.960938 -82.515625 54.578125 -82.25 55.171875 -82 C 55.773438 -81.757812 56.21875 -81.285156 56.5 -80.578125 C 56.78125 -80.015625 56.972656 -79.414062 57.078125 -78.78125 C 57.179688 -78.144531 57.269531 -77.515625 57.34375 -76.890625 C 57.414062 -76.535156 57.453125 -76.003906 57.453125 -75.296875 Z M 19.109375 -66.53125 C 18.128906 -63.4375 17.300781 -60.320312 16.625 -57.1875 C 15.957031 -54.050781 15.378906 -50.9375 14.890625 -47.84375 C 14.398438 -44.738281 13.976562 -41.617188 13.625 -38.484375 C 13.269531 -35.359375 12.882812 -32.210938 12.46875 -29.046875 C 12.46875 -29.046875 12.484375 -29.046875 12.515625 -29.046875 C 12.546875 -29.046875 12.5625 -29.046875 12.5625 -29.046875 C 13.6875 -35.304688 14.773438 -41.550781 15.828125 -47.78125 C 16.890625 -54.019531 17.984375 -60.269531 19.109375 -66.53125 Z M 19.109375 -66.53125 "/></g></g></g><g fill="#10b981" fill-opacity="1"><g transform="translate(52.065112, 98.975487)"><g><path d="M 11.9375 20.90625 C 11.375 20.90625 10.984375 20.941406 10.765625 21.015625 C 10.703125 21.015625 10.632812 21.03125 10.5625 21.0625 C 10.488281 21.101562 10.382812 21.125 10.25 21.125 C 9.332031 20.976562 8.429688 20.867188 7.546875 20.796875 C 6.671875 20.734375 5.773438 20.59375 4.859375 20.375 C 4.578125 20.3125 4.296875 20.101562 4.015625 19.75 C 3.734375 19.394531 3.488281 19.078125 3.28125 18.796875 C 3.132812 18.515625 3.023438 18.210938 2.953125 17.890625 C 2.878906 17.578125 2.773438 17.28125 2.640625 17 C 2.566406 16.4375 2.476562 15.851562 2.375 15.25 C 2.269531 14.65625 2.179688 14.078125 2.109375 13.515625 C 2.035156 12.671875 1.945312 11.828125 1.84375 10.984375 C 1.738281 10.140625 1.617188 9.328125 1.484375 8.546875 C 1.410156 7.703125 1.375 6.875 1.375 6.0625 C 1.375 5.257812 1.375 4.4375 1.375 3.59375 C 1.300781 2.8125 1.265625 2 1.265625 1.15625 C 1.265625 0.3125 1.265625 -0.492188 1.265625 -1.265625 C 1.265625 -1.828125 1.28125 -2.425781 1.3125 -3.0625 C 1.351562 -3.695312 1.375 -4.296875 1.375 -4.859375 C 1.445312 -5.773438 1.460938 -6.671875 1.421875 -7.546875 C 1.390625 -8.429688 1.410156 -9.332031 1.484375 -10.25 C 1.546875 -11.09375 1.613281 -11.914062 1.6875 -12.71875 C 1.757812 -13.53125 1.832031 -14.328125 1.90625 -15.109375 C 1.96875 -15.804688 2 -16.523438 2 -17.265625 C 2 -18.003906 2.035156 -18.726562 2.109375 -19.4375 C 2.179688 -20.0625 2.25 -20.707031 2.3125 -21.375 C 2.382812 -22.050781 2.457031 -22.707031 2.53125 -23.34375 C 2.601562 -23.832031 2.671875 -24.304688 2.734375 -24.765625 C 2.804688 -25.222656 2.878906 -25.695312 2.953125 -26.1875 C 3.097656 -26.96875 3.238281 -27.757812 3.375 -28.5625 C 3.519531 -29.375 3.628906 -30.132812 3.703125 -30.84375 C 3.835938 -31.613281 3.957031 -32.382812 4.0625 -33.15625 C 4.164062 -33.9375 4.253906 -34.675781 4.328125 -35.375 C 4.472656 -35.9375 4.578125 -36.515625 4.640625 -37.109375 C 4.710938 -37.710938 4.820312 -38.296875 4.96875 -38.859375 C 5.175781 -39.847656 5.398438 -40.78125 5.640625 -41.65625 C 5.890625 -42.539062 6.15625 -43.441406 6.4375 -44.359375 C 6.582031 -44.992188 6.722656 -45.625 6.859375 -46.25 C 7.003906 -46.882812 7.144531 -47.519531 7.28125 -48.15625 C 7.5 -48.925781 7.726562 -49.679688 7.96875 -50.421875 C 8.21875 -51.160156 8.484375 -51.882812 8.765625 -52.59375 C 9.046875 -53.363281 9.328125 -54.171875 9.609375 -55.015625 C 9.890625 -55.867188 10.171875 -56.679688 10.453125 -57.453125 C 10.804688 -58.441406 11.191406 -59.390625 11.609375 -60.296875 C 12.035156 -61.210938 12.425781 -62.128906 12.78125 -63.046875 C 13.0625 -63.609375 13.34375 -64.171875 13.625 -64.734375 C 13.90625 -65.296875 14.1875 -65.828125 14.46875 -66.328125 C 14.820312 -67.171875 15.347656 -67.851562 16.046875 -68.375 C 16.753906 -68.90625 17.460938 -69.414062 18.171875 -69.90625 C 18.234375 -69.90625 18.40625 -69.835938 18.6875 -69.703125 C 18.832031 -69.984375 18.957031 -70.265625 19.0625 -70.546875 C 19.164062 -70.828125 19.320312 -71.003906 19.53125 -71.078125 C 20.09375 -71.210938 20.53125 -71.488281 20.84375 -71.90625 C 21.164062 -72.332031 21.578125 -72.617188 22.078125 -72.765625 C 22.703125 -72.054688 23.082031 -71.226562 23.21875 -70.28125 C 23.363281 -69.332031 23.613281 -68.398438 23.96875 -67.484375 C 24.53125 -67.628906 25.128906 -67.820312 25.765625 -68.0625 C 26.398438 -68.3125 27.035156 -68.503906 27.671875 -68.640625 C 28.441406 -68.859375 29.195312 -69.050781 29.9375 -69.21875 C 30.675781 -69.394531 31.429688 -69.59375 32.203125 -69.8125 C 32.703125 -69.945312 33.179688 -70.082031 33.640625 -70.21875 C 34.097656 -70.363281 34.570312 -70.472656 35.0625 -70.546875 C 35.550781 -70.691406 36.023438 -70.847656 36.484375 -71.015625 C 36.941406 -71.191406 37.414062 -71.25 37.90625 -71.1875 C 38.6875 -71.1875 39.476562 -71.289062 40.28125 -71.5 C 41.09375 -71.707031 41.890625 -71.847656 42.671875 -71.921875 C 43.441406 -71.992188 44.226562 -72.082031 45.03125 -72.1875 C 45.84375 -72.289062 46.640625 -72.378906 47.421875 -72.453125 C 48.054688 -72.515625 48.6875 -72.53125 49.3125 -72.5 C 49.945312 -72.46875 50.582031 -72.484375 51.21875 -72.546875 C 51.988281 -72.546875 52.726562 -72.5625 53.4375 -72.59375 C 54.144531 -72.632812 54.847656 -72.691406 55.546875 -72.765625 C 56.535156 -72.898438 57.539062 -72.96875 58.5625 -72.96875 C 59.582031 -72.96875 60.582031 -72.96875 61.5625 -72.96875 C 62.695312 -72.96875 63.40625 -72.441406 63.6875 -71.390625 C 63.96875 -70.265625 64.25 -69.101562 64.53125 -67.90625 C 64.8125 -66.707031 64.914062 -65.472656 64.84375 -64.203125 C 64.84375 -64.066406 64.859375 -63.910156 64.890625 -63.734375 C 64.929688 -63.554688 64.988281 -63.363281 65.0625 -63.15625 C 64.144531 -62.945312 63.242188 -62.734375 62.359375 -62.515625 C 61.484375 -62.304688 60.585938 -62.132812 59.671875 -62 C 59.035156 -61.925781 58.382812 -61.851562 57.71875 -61.78125 C 57.050781 -61.707031 56.398438 -61.601562 55.765625 -61.46875 C 54.984375 -61.320312 54.238281 -61.160156 53.53125 -60.984375 C 52.832031 -60.804688 52.097656 -60.648438 51.328125 -60.515625 C 50.691406 -60.441406 50.054688 -60.332031 49.421875 -60.1875 C 48.785156 -60.050781 48.15625 -59.914062 47.53125 -59.78125 C 46.820312 -59.707031 46.132812 -59.632812 45.46875 -59.5625 C 44.800781 -59.488281 44.148438 -59.382812 43.515625 -59.25 C 43.015625 -59.175781 42.5 -59.085938 41.96875 -58.984375 C 41.445312 -58.878906 40.941406 -58.789062 40.453125 -58.71875 C 39.953125 -58.644531 39.457031 -58.609375 38.96875 -58.609375 C 38.476562 -58.609375 37.984375 -58.570312 37.484375 -58.5 C 36.359375 -58.4375 35.25 -58.367188 34.15625 -58.296875 C 33.070312 -58.222656 31.96875 -58.117188 30.84375 -57.984375 C 30.34375 -57.984375 29.878906 -57.984375 29.453125 -57.984375 C 29.035156 -57.984375 28.582031 -57.984375 28.09375 -57.984375 C 27.601562 -57.984375 27.09375 -57.984375 26.5625 -57.984375 C 26.03125 -57.984375 25.484375 -57.984375 24.921875 -57.984375 C 24.566406 -57.835938 24.390625 -57.726562 24.390625 -57.65625 C 24.328125 -57.164062 24.273438 -56.707031 24.234375 -56.28125 C 24.203125 -55.863281 24.148438 -55.441406 24.078125 -55.015625 C 24.003906 -54.671875 23.914062 -54.320312 23.8125 -53.96875 C 23.707031 -53.613281 23.65625 -53.257812 23.65625 -52.90625 C 23.65625 -52.34375 23.671875 -51.78125 23.703125 -51.21875 C 23.742188 -50.65625 23.800781 -50.09375 23.875 -49.53125 C 24.007812 -48.6875 24.128906 -47.84375 24.234375 -47 C 24.335938 -46.15625 24.425781 -45.3125 24.5 -44.46875 C 24.570312 -43.613281 24.625 -42.765625 24.65625 -41.921875 C 24.695312 -41.078125 24.71875 -40.234375 24.71875 -39.390625 C 24.71875 -38.898438 24.695312 -38.390625 24.65625 -37.859375 C 24.625 -37.328125 24.570312 -36.816406 24.5 -36.328125 C 24.425781 -35.628906 24.707031 -35.347656 25.34375 -35.484375 C 26.332031 -35.628906 27.316406 -35.804688 28.296875 -36.015625 C 29.285156 -36.222656 30.273438 -36.363281 31.265625 -36.4375 C 31.609375 -36.570312 31.992188 -36.625 32.421875 -36.59375 C 32.847656 -36.5625 33.269531 -36.578125 33.6875 -36.640625 C 34.320312 -36.785156 34.972656 -36.890625 35.640625 -36.953125 C 36.304688 -37.023438 36.957031 -37.097656 37.59375 -37.171875 C 38.4375 -37.316406 39.265625 -37.390625 40.078125 -37.390625 C 40.890625 -37.390625 41.679688 -37.421875 42.453125 -37.484375 C 42.878906 -37.484375 43.09375 -37.273438 43.09375 -36.859375 C 43.226562 -35.941406 43.363281 -35.039062 43.5 -34.15625 C 43.644531 -33.28125 43.789062 -32.382812 43.9375 -31.46875 C 43.9375 -31.257812 43.796875 -31.082031 43.515625 -30.9375 C 42.734375 -30.375 41.882812 -29.96875 40.96875 -29.71875 C 40.0625 -29.476562 39.148438 -29.21875 38.234375 -28.9375 C 37.671875 -28.789062 37.085938 -28.628906 36.484375 -28.453125 C 35.890625 -28.285156 35.3125 -28.128906 34.75 -27.984375 C 34.25 -27.847656 33.71875 -27.722656 33.15625 -27.609375 C 32.59375 -27.503906 32.03125 -27.382812 31.46875 -27.25 C 30.488281 -26.96875 29.488281 -26.703125 28.46875 -26.453125 C 27.445312 -26.203125 26.441406 -25.9375 25.453125 -25.65625 C 25.378906 -25.65625 25.289062 -25.671875 25.1875 -25.703125 C 25.082031 -25.742188 24.957031 -25.765625 24.8125 -25.765625 C 24.039062 -25.765625 23.617188 -25.414062 23.546875 -24.71875 C 23.335938 -23.582031 23.160156 -22.453125 23.015625 -21.328125 C 22.878906 -20.203125 22.707031 -19.078125 22.5 -17.953125 C 22.425781 -17.316406 22.316406 -16.695312 22.171875 -16.09375 C 22.035156 -15.5 21.894531 -14.921875 21.75 -14.359375 C 21.539062 -13.378906 21.332031 -12.378906 21.125 -11.359375 C 20.914062 -10.335938 20.703125 -9.332031 20.484375 -8.34375 C 20.066406 -6.789062 19.644531 -5.238281 19.21875 -3.6875 C 18.800781 -2.144531 18.378906 -0.5625 17.953125 1.0625 C 17.597656 2.394531 17.207031 3.765625 16.78125 5.171875 C 16.363281 6.578125 15.945312 7.988281 15.53125 9.40625 C 15.25 10.59375 14.929688 11.785156 14.578125 12.984375 C 14.222656 14.179688 13.867188 15.378906 13.515625 16.578125 C 13.234375 17.359375 12.96875 18.097656 12.71875 18.796875 C 12.476562 19.503906 12.21875 20.207031 11.9375 20.90625 Z M 14.046875 -54.703125 C 12.847656 -51.328125 11.894531 -47.894531 11.1875 -44.40625 C 10.488281 -40.925781 9.925781 -37.390625 9.5 -33.796875 C 10.28125 -37.316406 11.039062 -40.816406 11.78125 -44.296875 C 12.519531 -47.785156 13.273438 -51.253906 14.046875 -54.703125 Z M 19.109375 -24.609375 C 19.046875 -24.609375 18.976562 -24.625 18.90625 -24.65625 C 18.832031 -24.695312 18.726562 -24.71875 18.59375 -24.71875 C 18.09375 -23.09375 17.738281 -21.414062 17.53125 -19.6875 C 17.320312 -17.96875 17.003906 -16.300781 16.578125 -14.6875 C 16.503906 -14.539062 16.484375 -14.378906 16.515625 -14.203125 C 16.554688 -14.023438 16.578125 -13.867188 16.578125 -13.734375 C 16.648438 -13.734375 16.703125 -13.734375 16.734375 -13.734375 C 16.773438 -13.734375 16.828125 -13.734375 16.890625 -13.734375 C 17.242188 -15.554688 17.613281 -17.363281 18 -19.15625 C 18.394531 -20.957031 18.765625 -22.773438 19.109375 -24.609375 Z M 19.109375 -24.609375 "/></g></g></g></g></g></g></svg>