<svg xmlns="http://www.w3.org/2000/svg" xmlns:xlink="http://www.w3.org/1999/xlink" width="300" zoomAndPan="magnify" viewBox="0 0 224.87999 112.499997" height="150" preserveAspectRatio="xMidYMid meet" version="1.0"><defs><g/><clipPath id="acaaecc249"><rect x="0" width="192" y="0" height="93"/></clipPath></defs><g transform="matrix(1, 0, 0, 1, 15, 15)"><g clip-path="url(#acaaecc249)"><g fill="#2563eb" fill-opacity="1"><g transform="translate(7.724855, 48.590809)"><g><path d="M 25.28125 -33.140625 C 24.976562 -33.140625 24.691406 -33.144531 24.421875 -33.15625 C 24.160156 -33.175781 23.890625 -33.171875 23.609375 -33.140625 C 23.085938 -33.078125 22.546875 -32.984375 21.984375 -32.859375 C 21.734375 -32.828125 21.476562 -32.769531 21.21875 -32.6875 C 20.957031 -32.613281 20.703125 -32.550781 20.453125 -32.5 C 20.140625 -32.4375 19.835938 -32.363281 19.546875 -32.28125 C 19.253906 -32.207031 18.9375 -32.125 18.59375 -32.03125 C 18.34375 -32 18.085938 -31.941406 17.828125 -31.859375 C 17.566406 -31.785156 17.3125 -31.71875 17.0625 -31.65625 C 16.875 -31.625 16.6875 -31.578125 16.5 -31.515625 C 16.3125 -31.453125 16.125 -31.390625 15.9375 -31.328125 C 15.757812 -31.296875 15.578125 -31.253906 15.390625 -31.203125 C 15.203125 -31.160156 15.015625 -31.109375 14.828125 -31.046875 C 14.609375 -31.015625 14.375 -30.96875 14.125 -30.90625 C 13.882812 -30.84375 13.640625 -30.78125 13.390625 -30.71875 C 13.265625 -30.695312 13.15625 -30.644531 13.0625 -30.5625 C 12.96875 -30.488281 12.859375 -30.421875 12.734375 -30.359375 C 12.796875 -29.796875 12.847656 -29.226562 12.890625 -28.65625 C 12.941406 -28.082031 12.984375 -27.503906 13.015625 -26.921875 C 13.046875 -26.796875 13.035156 -26.671875 12.984375 -26.546875 C 12.941406 -26.421875 12.921875 -26.296875 12.921875 -26.171875 C 12.890625 -26.109375 12.878906 -26.03125 12.890625 -25.9375 C 12.910156 -25.84375 12.90625 -25.765625 12.875 -25.703125 C 12.875 -25.390625 12.863281 -25.070312 12.84375 -24.75 C 12.832031 -24.425781 12.8125 -24.09375 12.78125 -23.75 C 12.75 -23.351562 12.707031 -22.953125 12.65625 -22.546875 C 12.613281 -22.140625 12.5625 -21.738281 12.5 -21.34375 C 12.46875 -20.96875 12.441406 -20.59375 12.421875 -20.21875 C 12.410156 -19.84375 12.390625 -19.472656 12.359375 -19.109375 C 12.359375 -19.078125 12.359375 -19.050781 12.359375 -19.03125 C 12.359375 -19.019531 12.359375 -19.015625 12.359375 -19.015625 C 12.179688 -18.703125 12.09375 -18.359375 12.09375 -17.984375 C 12.09375 -17.617188 12.0625 -17.265625 12 -16.921875 C 11.9375 -16.546875 11.90625 -16.164062 11.90625 -15.78125 C 11.90625 -15.394531 11.84375 -15.015625 11.71875 -14.640625 C 11.65625 -14.421875 11.613281 -14.210938 11.59375 -14.015625 C 11.582031 -13.816406 11.546875 -13.640625 11.484375 -13.484375 C 11.359375 -13.171875 11.316406 -12.84375 11.359375 -12.5 C 11.410156 -12.164062 11.328125 -11.84375 11.109375 -11.53125 C 11.046875 -11.40625 11.03125 -11.265625 11.0625 -11.109375 C 11.09375 -10.953125 11.078125 -10.796875 11.015625 -10.640625 C 10.859375 -10.273438 10.8125 -9.875 10.875 -9.4375 C 10.9375 -9.1875 10.875 -8.921875 10.6875 -8.640625 C 10.53125 -8.367188 10.457031 -8.082031 10.46875 -7.78125 C 10.488281 -7.488281 10.46875 -7.203125 10.40625 -6.921875 C 10.375 -6.890625 10.363281 -6.847656 10.375 -6.796875 C 10.394531 -6.753906 10.390625 -6.71875 10.359375 -6.6875 C 10.148438 -6.570312 10.066406 -6.40625 10.109375 -6.1875 C 10.160156 -5.96875 10.15625 -5.765625 10.09375 -5.578125 C 10.09375 -5.578125 10.09375 -5.5625 10.09375 -5.53125 C 10.09375 -5.5 10.09375 -5.484375 10.09375 -5.484375 C 9.875 -5.265625 9.78125 -5.007812 9.8125 -4.71875 C 9.84375 -4.425781 9.8125 -4.15625 9.71875 -3.90625 C 9.59375 -3.59375 9.5 -3.289062 9.4375 -3 C 9.375 -2.707031 9.3125 -2.390625 9.25 -2.046875 C 9.15625 -1.484375 9.0625 -0.914062 8.96875 -0.34375 C 8.875 0.226562 8.765625 0.804688 8.640625 1.390625 C 8.609375 1.703125 8.554688 2 8.484375 2.28125 C 8.410156 2.5625 8.34375 2.851562 8.28125 3.15625 C 8.25 3.375 8.21875 3.59375 8.1875 3.8125 C 8.15625 4.03125 8.109375 4.265625 8.046875 4.515625 C 8.015625 4.722656 7.957031 4.953125 7.875 5.203125 C 7.800781 5.453125 7.734375 5.71875 7.671875 6 C 7.578125 5.875 7.503906 5.785156 7.453125 5.734375 C 7.410156 5.691406 7.390625 5.671875 7.390625 5.671875 C 7.265625 5.703125 7.140625 5.738281 7.015625 5.78125 C 6.890625 5.832031 6.765625 5.859375 6.640625 5.859375 C 6.578125 5.859375 6.507812 5.828125 6.4375 5.765625 C 6.363281 5.703125 6.28125 5.65625 6.1875 5.625 C 6.0625 5.78125 5.828125 5.863281 5.484375 5.875 C 5.140625 5.894531 4.875 5.796875 4.6875 5.578125 C 4.320312 5.734375 3.972656 5.738281 3.640625 5.59375 C 3.316406 5.457031 3.078125 5.1875 2.921875 4.78125 C 2.773438 4.320312 2.675781 3.851562 2.625 3.375 C 2.582031 2.894531 2.5625 2.40625 2.5625 1.90625 C 2.53125 1.4375 2.5 0.96875 2.46875 0.5 C 2.4375 0.0390625 2.390625 -0.421875 2.328125 -0.890625 C 2.328125 -1.003906 2.328125 -1.113281 2.328125 -1.21875 C 2.328125 -1.332031 2.328125 -1.453125 2.328125 -1.578125 C 2.328125 -2.359375 2.316406 -3.125 2.296875 -3.875 C 2.285156 -4.632812 2.28125 -5.40625 2.28125 -6.1875 C 2.25 -6.707031 2.238281 -7.238281 2.25 -7.78125 C 2.269531 -8.320312 2.3125 -8.859375 2.375 -9.390625 C 2.4375 -9.828125 2.472656 -10.273438 2.484375 -10.734375 C 2.503906 -11.203125 2.53125 -11.65625 2.5625 -12.09375 C 2.625 -12.613281 2.695312 -13.144531 2.78125 -13.6875 C 2.875 -14.226562 2.953125 -14.765625 3.015625 -15.296875 C 3.078125 -15.640625 3.109375 -15.972656 3.109375 -16.296875 C 3.109375 -16.617188 3.15625 -16.9375 3.25 -17.25 C 3.3125 -17.550781 3.347656 -17.863281 3.359375 -18.1875 C 3.378906 -18.519531 3.484375 -18.84375 3.671875 -19.15625 C 3.734375 -19.21875 3.75 -19.304688 3.71875 -19.421875 C 3.6875 -19.546875 3.6875 -19.671875 3.71875 -19.796875 C 3.84375 -20.421875 3.972656 -21.050781 4.109375 -21.6875 C 4.253906 -22.320312 4.390625 -22.945312 4.515625 -23.5625 C 4.628906 -24.25 4.785156 -24.910156 4.984375 -25.546875 C 5.191406 -26.179688 5.40625 -26.804688 5.625 -27.421875 C 5.6875 -27.640625 5.75 -27.847656 5.8125 -28.046875 C 5.875 -28.253906 5.9375 -28.46875 6 -28.6875 C 5.84375 -28.65625 5.675781 -28.628906 5.5 -28.609375 C 5.332031 -28.597656 5.171875 -28.5625 5.015625 -28.5 C 4.773438 -28.46875 4.519531 -28.40625 4.25 -28.3125 C 3.988281 -28.21875 3.734375 -28.140625 3.484375 -28.078125 C 3.171875 -28.046875 2.859375 -28.003906 2.546875 -27.953125 C 2.242188 -27.910156 1.9375 -27.875 1.625 -27.84375 C 1.132812 -27.78125 0.65625 -27.71875 0.1875 -27.65625 C -0.28125 -27.59375 -0.757812 -27.546875 -1.25 -27.515625 C -1.59375 -27.484375 -1.945312 -27.46875 -2.3125 -27.46875 C -2.6875 -27.46875 -3.046875 -27.484375 -3.390625 -27.515625 C -3.734375 -27.546875 -4.066406 -27.59375 -4.390625 -27.65625 C -4.710938 -27.71875 -5.046875 -27.765625 -5.390625 -27.796875 C -5.640625 -27.828125 -5.8125 -27.925781 -5.90625 -28.09375 C -6 -28.269531 -6 -28.46875 -5.90625 -28.6875 C -5.875 -28.75 -5.84375 -28.804688 -5.8125 -28.859375 C -5.78125 -28.921875 -5.765625 -28.984375 -5.765625 -29.046875 C -5.703125 -29.203125 -5.628906 -29.34375 -5.546875 -29.46875 C -5.472656 -29.59375 -5.34375 -29.6875 -5.15625 -29.75 C -5.0625 -29.78125 -4.972656 -29.84375 -4.890625 -29.9375 C -4.816406 -30.03125 -4.738281 -30.109375 -4.65625 -30.171875 C -4.40625 -30.421875 -4.144531 -30.613281 -3.875 -30.75 C -3.613281 -30.882812 -3.328125 -31 -3.015625 -31.09375 C -2.648438 -31.21875 -2.285156 -31.34375 -1.921875 -31.46875 C -1.566406 -31.59375 -1.207031 -31.71875 -0.84375 -31.84375 C -0.59375 -31.9375 -0.332031 -32.03125 -0.0625 -32.125 C 0.195312 -32.21875 0.453125 -32.296875 0.703125 -32.359375 C 0.972656 -32.453125 1.238281 -32.550781 1.5 -32.65625 C 1.769531 -32.757812 2.046875 -32.84375 2.328125 -32.90625 C 2.453125 -32.96875 2.570312 -33 2.6875 -33 C 2.8125 -33 2.9375 -33.015625 3.0625 -33.046875 C 3.40625 -33.171875 3.75 -33.296875 4.09375 -33.421875 C 4.4375 -33.546875 4.773438 -33.671875 5.109375 -33.796875 C 5.296875 -33.859375 5.484375 -33.894531 5.671875 -33.90625 C 5.859375 -33.925781 6.0625 -33.953125 6.28125 -33.984375 C 6.550781 -34.046875 6.828125 -34.125 7.109375 -34.21875 C 7.390625 -34.3125 7.6875 -34.382812 8 -34.4375 C 8.15625 -34.5 8.320312 -34.546875 8.5 -34.578125 C 8.6875 -34.609375 8.875 -34.640625 9.0625 -34.671875 C 9.21875 -34.703125 9.378906 -34.738281 9.546875 -34.78125 C 9.722656 -34.832031 9.90625 -34.875 10.09375 -34.90625 C 10.238281 -34.9375 10.40625 -34.957031 10.59375 -34.96875 C 10.78125 -34.988281 10.96875 -35.015625 11.15625 -35.046875 C 11.1875 -35.046875 11.21875 -35.035156 11.25 -35.015625 C 11.28125 -35.003906 11.3125 -35.015625 11.34375 -35.046875 C 11.78125 -35.203125 12.238281 -35.3125 12.71875 -35.375 C 13.195312 -35.4375 13.664062 -35.5 14.125 -35.5625 C 14.5625 -35.65625 15.003906 -35.75 15.453125 -35.84375 C 15.898438 -35.9375 16.359375 -36 16.828125 -36.03125 C 17.078125 -36.03125 17.320312 -36.0625 17.5625 -36.125 C 17.8125 -36.1875 18.0625 -36.234375 18.3125 -36.265625 C 18.8125 -36.316406 19.304688 -36.390625 19.796875 -36.484375 C 20.296875 -36.578125 20.796875 -36.625 21.296875 -36.625 C 21.628906 -36.65625 21.984375 -36.671875 22.359375 -36.671875 C 22.734375 -36.671875 23.101562 -36.59375 23.46875 -36.4375 C 23.75 -36.320312 24.019531 -36.207031 24.28125 -36.09375 C 24.550781 -35.988281 24.75 -35.78125 24.875 -35.46875 C 25 -35.21875 25.082031 -34.953125 25.125 -34.671875 C 25.164062 -34.398438 25.203125 -34.125 25.234375 -33.84375 C 25.265625 -33.6875 25.28125 -33.453125 25.28125 -33.140625 Z M 8.40625 -29.28125 C 7.976562 -27.914062 7.613281 -26.546875 7.3125 -25.171875 C 7.019531 -23.796875 6.765625 -22.425781 6.546875 -21.0625 C 6.335938 -19.695312 6.15625 -18.320312 6 -16.9375 C 5.84375 -15.5625 5.671875 -14.175781 5.484375 -12.78125 C 5.484375 -12.78125 5.488281 -12.78125 5.5 -12.78125 C 5.519531 -12.78125 5.53125 -12.78125 5.53125 -12.78125 C 6.03125 -15.539062 6.507812 -18.289062 6.96875 -21.03125 C 7.4375 -23.769531 7.914062 -26.519531 8.40625 -29.28125 Z M 8.40625 -29.28125 "/></g></g></g><g fill="#2563eb" fill-opacity="1"><g transform="translate(23.668749, 48.590809)"><g><path d="M 24.5 -14.125 C 24.875 -14.03125 25.117188 -13.789062 25.234375 -13.40625 C 25.359375 -13.019531 25.40625 -12.59375 25.375 -12.125 C 25.34375 -11.664062 25.296875 -11.25 25.234375 -10.875 C 25.171875 -10.6875 25.117188 -10.492188 25.078125 -10.296875 C 25.035156 -10.097656 24.984375 -9.890625 24.921875 -9.671875 C 24.890625 -9.453125 24.828125 -9.21875 24.734375 -8.96875 C 24.640625 -8.71875 24.5625 -8.472656 24.5 -8.234375 C 24.46875 -8.109375 24.4375 -7.972656 24.40625 -7.828125 C 24.375 -7.691406 24.328125 -7.546875 24.265625 -7.390625 C 24.140625 -6.890625 24 -6.40625 23.84375 -5.9375 C 23.6875 -5.476562 23.53125 -5.003906 23.375 -4.515625 C 23.289062 -4.203125 23.21875 -3.890625 23.15625 -3.578125 C 23.09375 -3.265625 23.015625 -2.957031 22.921875 -2.65625 C 22.796875 -2.21875 22.660156 -1.773438 22.515625 -1.328125 C 22.378906 -0.878906 22.234375 -0.4375 22.078125 0 C 21.953125 0.40625 21.832031 0.800781 21.71875 1.1875 C 21.613281 1.570312 21.488281 1.953125 21.34375 2.328125 C 21.1875 2.722656 21.015625 3.128906 20.828125 3.546875 C 20.640625 3.972656 20.46875 4.398438 20.3125 4.828125 C 20.21875 5.046875 20.128906 5.285156 20.046875 5.546875 C 19.972656 5.816406 19.890625 6.078125 19.796875 6.328125 C 19.273438 7.566406 18.378906 8.289062 17.109375 8.5 C 16.890625 8.53125 16.675781 8.59375 16.46875 8.6875 C 16.269531 8.78125 16.050781 8.859375 15.8125 8.921875 C 15.5 8.984375 15.160156 9.035156 14.796875 9.078125 C 14.441406 9.128906 14.097656 9.140625 13.765625 9.109375 C 13.484375 9.109375 13.21875 8.953125 12.96875 8.640625 C 12.75 8.335938 12.539062 8.03125 12.34375 7.71875 C 12.144531 7.40625 11.96875 7.078125 11.8125 6.734375 C 11.46875 5.960938 11.175781 5.179688 10.9375 4.390625 C 10.707031 3.597656 10.5 2.800781 10.3125 2 C 10.070312 0.820312 9.84375 -0.359375 9.625 -1.546875 C 9.40625 -2.742188 9.25 -3.945312 9.15625 -5.15625 C 9.09375 -6.03125 9.019531 -6.898438 8.9375 -7.765625 C 8.863281 -8.628906 8.796875 -9.492188 8.734375 -10.359375 C 8.703125 -10.640625 8.691406 -10.925781 8.703125 -11.21875 C 8.722656 -11.519531 8.71875 -11.820312 8.6875 -12.125 C 8.6875 -12.21875 8.675781 -12.316406 8.65625 -12.421875 C 8.644531 -12.535156 8.609375 -12.65625 8.546875 -12.78125 C 8.453125 -12.6875 8.40625 -12.609375 8.40625 -12.546875 C 8.289062 -12.242188 8.160156 -11.921875 8.015625 -11.578125 C 7.878906 -11.234375 7.734375 -10.890625 7.578125 -10.546875 C 7.484375 -10.335938 7.394531 -10.113281 7.3125 -9.875 C 7.238281 -9.644531 7.140625 -9.40625 7.015625 -9.15625 C 6.703125 -8.476562 6.390625 -7.804688 6.078125 -7.140625 C 5.773438 -6.472656 5.46875 -5.796875 5.15625 -5.109375 C 4.9375 -4.710938 4.726562 -4.296875 4.53125 -3.859375 C 4.332031 -3.421875 4.125 -2.988281 3.90625 -2.5625 C 3.625 -1.96875 3.3125 -1.390625 2.96875 -0.828125 C 2.632812 -0.273438 2.203125 0.203125 1.671875 0.609375 C 1.421875 0.796875 1.140625 0.941406 0.828125 1.046875 C 0.523438 1.148438 0.21875 1.265625 -0.09375 1.390625 C -0.34375 1.453125 -0.601562 1.515625 -0.875 1.578125 C -1.15625 1.640625 -1.421875 1.703125 -1.671875 1.765625 C -2.078125 1.828125 -2.410156 1.769531 -2.671875 1.59375 C -2.929688 1.425781 -3.09375 1.160156 -3.15625 0.796875 C -3.21875 0.421875 -3.269531 0.0390625 -3.3125 -0.34375 C -3.363281 -0.738281 -3.375 -1.117188 -3.34375 -1.484375 C -3.28125 -2.234375 -3.207031 -2.976562 -3.125 -3.71875 C -3.050781 -4.457031 -2.953125 -5.1875 -2.828125 -5.90625 C -2.585938 -7.207031 -2.265625 -8.492188 -1.859375 -9.765625 C -1.453125 -11.035156 -0.972656 -12.289062 -0.421875 -13.53125 C 0.078125 -14.613281 0.632812 -15.640625 1.25 -16.609375 C 1.875 -17.585938 2.539062 -18.546875 3.25 -19.484375 C 3.59375 -19.941406 3.976562 -20.378906 4.40625 -20.796875 C 4.84375 -21.210938 5.359375 -21.53125 5.953125 -21.75 C 6.328125 -21.90625 6.710938 -22.003906 7.109375 -22.046875 C 7.515625 -22.097656 7.921875 -22.171875 8.328125 -22.265625 C 8.535156 -22.328125 8.65625 -22.40625 8.6875 -22.5 C 8.8125 -22.75 8.921875 -22.992188 9.015625 -23.234375 C 9.109375 -23.484375 9.1875 -23.734375 9.25 -23.984375 C 9.40625 -24.390625 9.550781 -24.785156 9.6875 -25.171875 C 9.832031 -25.554688 10.039062 -25.921875 10.3125 -26.265625 C 10.3125 -26.265625 10.46875 -26.347656 10.78125 -26.515625 C 11.09375 -26.691406 11.476562 -26.738281 11.9375 -26.65625 C 12.40625 -26.582031 12.875 -26.171875 13.34375 -25.421875 C 13.46875 -25.234375 13.546875 -25.097656 13.578125 -25.015625 C 13.640625 -24.921875 13.691406 -24.828125 13.734375 -24.734375 C 13.785156 -24.640625 13.828125 -24.546875 13.859375 -24.453125 C 13.941406 -24.140625 13.988281 -23.835938 14 -23.546875 C 14.019531 -23.253906 14.003906 -22.9375 13.953125 -22.59375 C 13.921875 -22.28125 13.890625 -21.960938 13.859375 -21.640625 C 13.828125 -21.316406 13.8125 -20.984375 13.8125 -20.640625 C 13.8125 -20.421875 13.828125 -20.203125 13.859375 -19.984375 C 13.890625 -19.765625 13.90625 -19.535156 13.90625 -19.296875 C 13.9375 -18.421875 13.9375 -17.550781 13.90625 -16.6875 C 13.90625 -16.070312 13.894531 -15.453125 13.875 -14.828125 C 13.863281 -14.210938 13.859375 -13.59375 13.859375 -12.96875 C 13.859375 -12.46875 13.894531 -11.96875 13.96875 -11.46875 C 14.039062 -10.976562 14.046875 -10.488281 13.984375 -10 C 13.960938 -9.59375 13.992188 -9.195312 14.078125 -8.8125 C 14.171875 -8.425781 14.203125 -8.03125 14.171875 -7.625 C 14.140625 -7.34375 14.144531 -7.0625 14.1875 -6.78125 C 14.238281 -6.507812 14.28125 -6.234375 14.3125 -5.953125 C 14.375 -5.390625 14.425781 -4.828125 14.46875 -4.265625 C 14.519531 -3.710938 14.578125 -3.160156 14.640625 -2.609375 C 14.703125 -2.296875 14.765625 -1.972656 14.828125 -1.640625 C 14.890625 -1.316406 14.953125 -0.988281 15.015625 -0.65625 C 15.109375 -0.0625 15.207031 0.523438 15.3125 1.109375 C 15.425781 1.703125 15.546875 2.289062 15.671875 2.875 C 15.703125 3.03125 15.742188 3.1875 15.796875 3.34375 C 15.859375 3.5 15.9375 3.65625 16.03125 3.8125 C 16.28125 3.132812 16.546875 2.453125 16.828125 1.765625 C 17.109375 1.085938 17.375 0.40625 17.625 -0.28125 C 17.957031 -1.175781 18.28125 -2.082031 18.59375 -3 C 18.90625 -3.914062 19.21875 -4.820312 19.53125 -5.71875 C 19.769531 -6.425781 20.015625 -7.144531 20.265625 -7.875 C 20.515625 -8.601562 20.765625 -9.34375 21.015625 -10.09375 C 21.109375 -10.394531 21.195312 -10.691406 21.28125 -10.984375 C 21.375 -11.285156 21.484375 -11.59375 21.609375 -11.90625 C 21.609375 -11.9375 21.738281 -12.160156 22 -12.578125 C 22.269531 -12.992188 22.617188 -13.382812 23.046875 -13.75 C 23.484375 -14.125 23.96875 -14.25 24.5 -14.125 Z M 1.109375 -4.96875 C 2.078125 -7.113281 3.039062 -9.257812 4 -11.40625 C 4.957031 -13.5625 5.914062 -15.722656 6.875 -17.890625 C 6.6875 -17.859375 6.59375 -17.828125 6.59375 -17.796875 C 6.289062 -17.398438 5.957031 -16.988281 5.59375 -16.5625 C 5.238281 -16.144531 4.925781 -15.722656 4.65625 -15.296875 C 4.40625 -14.890625 4.1875 -14.46875 4 -14.03125 C 3.8125 -13.601562 3.609375 -13.171875 3.390625 -12.734375 C 3.359375 -12.640625 3.3125 -12.5625 3.25 -12.5 C 3.1875 -12.4375 3.125 -12.375 3.0625 -12.3125 C 3.03125 -12.1875 3.003906 -12.070312 2.984375 -11.96875 C 2.972656 -11.863281 2.953125 -11.75 2.921875 -11.625 C 2.742188 -11.15625 2.5625 -10.695312 2.375 -10.25 C 2.1875 -9.800781 2.015625 -9.34375 1.859375 -8.875 C 1.671875 -8.289062 1.503906 -7.703125 1.359375 -7.109375 C 1.222656 -6.523438 1.082031 -5.9375 0.9375 -5.34375 C 0.90625 -5.28125 0.894531 -5.222656 0.90625 -5.171875 C 0.925781 -5.128906 0.9375 -5.078125 0.9375 -5.015625 C 0.988281 -4.984375 1.046875 -4.96875 1.109375 -4.96875 Z M 11.25 -1.625 C 11.28125 -1.625 11.300781 -1.625 11.3125 -1.625 C 11.332031 -1.625 11.359375 -1.625 11.390625 -1.625 C 11.265625 -2.707031 11.125 -3.785156 10.96875 -4.859375 C 10.8125 -5.929688 10.65625 -6.992188 10.5 -8.046875 C 10.46875 -8.046875 10.441406 -8.046875 10.421875 -8.046875 C 10.410156 -8.046875 10.390625 -8.046875 10.359375 -8.046875 C 10.515625 -6.992188 10.671875 -5.929688 10.828125 -4.859375 C 10.984375 -3.785156 11.125 -2.707031 11.25 -1.625 Z M 11.25 -1.625 "/></g></g></g><g fill="#2563eb" fill-opacity="1"><g transform="translate(45.423099, 48.590809)"><g><path d="M 17.25 -13.859375 C 17.738281 -13.640625 18.082031 -13.296875 18.28125 -12.828125 C 18.488281 -12.359375 18.5 -11.878906 18.3125 -11.390625 L 11.296875 5.765625 C 11.265625 5.890625 11.222656 6.015625 11.171875 6.140625 C 11.128906 6.265625 11.078125 6.398438 11.015625 6.546875 C 11.015625 6.546875 10.890625 6.796875 10.640625 7.296875 C 10.390625 7.796875 10.039062 8.347656 9.59375 8.953125 C 9.144531 9.554688 8.601562 10.039062 7.96875 10.40625 C 7.332031 10.78125 6.613281 10.84375 5.8125 10.59375 C 5.4375 10.46875 5.140625 10.40625 4.921875 10.40625 C 4.085938 10.226562 3.515625 9.75 3.203125 8.96875 C 3.078125 8.65625 2.9375 8.359375 2.78125 8.078125 C 2.632812 7.804688 2.5 7.515625 2.375 7.203125 C 2.25 6.859375 2.140625 6.507812 2.046875 6.15625 C 1.953125 5.800781 1.859375 5.4375 1.765625 5.0625 C 1.640625 4.539062 1.519531 4.015625 1.40625 3.484375 C 1.300781 2.960938 1.1875 2.4375 1.0625 1.90625 C 1.03125 1.75 1.003906 1.578125 0.984375 1.390625 C 0.972656 1.203125 0.957031 1.019531 0.9375 0.84375 C 0.90625 0.5625 0.875 0.285156 0.84375 0.015625 C 0.8125 -0.242188 0.765625 -0.515625 0.703125 -0.796875 C 0.671875 -1.222656 0.628906 -1.664062 0.578125 -2.125 C 0.535156 -2.59375 0.484375 -3.046875 0.421875 -3.484375 C 0.390625 -3.765625 0.375 -4.050781 0.375 -4.34375 C 0.375 -4.632812 0.34375 -4.921875 0.28125 -5.203125 C 0.25 -5.328125 0.1875 -5.4375 0.09375 -5.53125 C 0 -5.625 -0.078125 -5.734375 -0.140625 -5.859375 C -0.203125 -5.984375 -0.234375 -6.078125 -0.234375 -6.140625 C -0.234375 -6.296875 -0.222656 -6.425781 -0.203125 -6.53125 C -0.191406 -6.632812 -0.171875 -6.75 -0.140625 -6.875 C -0.078125 -7.28125 -0.0234375 -7.675781 0.015625 -8.0625 C 0.0664062 -8.445312 0.09375 -8.84375 0.09375 -9.25 C 0.125 -9.6875 0.113281 -10.113281 0.0625 -10.53125 C 0.0195312 -10.945312 0 -11.359375 0 -11.765625 C 0 -12.035156 0 -12.3125 0 -12.59375 C 0 -12.875 0.015625 -13.140625 0.046875 -13.390625 C 0.109375 -13.910156 0.160156 -14.410156 0.203125 -14.890625 C 0.253906 -15.378906 0.296875 -15.867188 0.328125 -16.359375 C 0.359375 -16.546875 0.363281 -16.722656 0.34375 -16.890625 C 0.332031 -17.066406 0.34375 -17.25 0.375 -17.4375 C 0.4375 -17.925781 0.488281 -18.398438 0.53125 -18.859375 C 0.582031 -19.328125 0.625 -19.796875 0.65625 -20.265625 C 0.71875 -20.703125 0.769531 -21.128906 0.8125 -21.546875 C 0.863281 -21.960938 0.914062 -22.375 0.96875 -22.78125 C 1.125 -23.488281 1.269531 -24.195312 1.40625 -24.90625 C 1.550781 -25.625 1.703125 -26.335938 1.859375 -27.046875 C 2.140625 -28.347656 2.460938 -29.585938 2.828125 -30.765625 C 3.015625 -31.359375 3.234375 -31.929688 3.484375 -32.484375 C 3.734375 -33.046875 4.015625 -33.59375 4.328125 -34.125 C 4.484375 -34.332031 4.613281 -34.550781 4.71875 -34.78125 C 4.820312 -35.019531 4.9375 -35.25 5.0625 -35.46875 C 5.1875 -35.65625 5.316406 -35.828125 5.453125 -35.984375 C 5.597656 -36.140625 5.78125 -36.242188 6 -36.296875 C 6.15625 -36.359375 6.300781 -36.4375 6.4375 -36.53125 C 6.570312 -36.625 6.703125 -36.71875 6.828125 -36.8125 C 6.859375 -36.8125 6.878906 -36.828125 6.890625 -36.859375 C 6.910156 -36.890625 6.9375 -36.90625 6.96875 -36.90625 C 7.28125 -36.84375 7.484375 -36.90625 7.578125 -37.09375 C 7.671875 -37.28125 7.78125 -37.453125 7.90625 -37.609375 C 7.90625 -37.640625 7.9375 -37.640625 8 -37.609375 C 8.125 -37.671875 8.238281 -37.722656 8.34375 -37.765625 C 8.445312 -37.816406 8.5625 -37.859375 8.6875 -37.890625 C 8.6875 -37.890625 8.6875 -37.894531 8.6875 -37.90625 C 8.6875 -37.925781 8.6875 -37.9375 8.6875 -37.9375 C 8.8125 -38.03125 8.9375 -38.117188 9.0625 -38.203125 C 9.1875 -38.296875 9.328125 -38.40625 9.484375 -38.53125 C 9.546875 -38.40625 9.613281 -38.296875 9.6875 -38.203125 C 9.769531 -38.117188 9.828125 -38.015625 9.859375 -37.890625 C 9.921875 -37.484375 10 -37.085938 10.09375 -36.703125 C 10.1875 -36.316406 10.242188 -35.921875 10.265625 -35.515625 C 10.328125 -34.828125 10.375 -34.148438 10.40625 -33.484375 C 10.4375 -32.828125 10.453125 -32.15625 10.453125 -31.46875 C 10.453125 -31.15625 10.421875 -30.835938 10.359375 -30.515625 C 10.296875 -30.191406 10.238281 -29.859375 10.1875 -29.515625 C 10.15625 -28.992188 10.109375 -28.46875 10.046875 -27.9375 C 9.984375 -27.40625 9.9375 -26.878906 9.90625 -26.359375 C 9.84375 -25.304688 9.796875 -24.234375 9.765625 -23.140625 C 9.734375 -22.054688 9.6875 -20.972656 9.625 -19.890625 C 9.59375 -19.242188 9.566406 -18.585938 9.546875 -17.921875 C 9.535156 -17.253906 9.5 -16.59375 9.4375 -15.9375 C 9.40625 -15.101562 9.359375 -14.265625 9.296875 -13.421875 C 9.234375 -12.585938 9.1875 -11.753906 9.15625 -10.921875 C 9.125 -10.085938 9.082031 -9.257812 9.03125 -8.4375 C 8.988281 -7.613281 8.96875 -6.785156 8.96875 -5.953125 C 8.9375 -4.710938 8.910156 -3.460938 8.890625 -2.203125 C 8.878906 -0.953125 8.875 0.304688 8.875 1.578125 L 14.78125 -12.828125 C 14.96875 -13.328125 15.300781 -13.675781 15.78125 -13.875 C 16.257812 -14.070312 16.75 -14.066406 17.25 -13.859375 Z M 5.953125 -5.53125 C 6.015625 -7.394531 6.0625 -9.25 6.09375 -11.09375 C 6.125 -12.9375 6.15625 -14.785156 6.1875 -16.640625 C 6.15625 -16.640625 6.128906 -16.640625 6.109375 -16.640625 C 6.097656 -16.640625 6.09375 -16.640625 6.09375 -16.640625 C 5.8125 -14.816406 5.6875 -12.972656 5.71875 -11.109375 C 5.75 -9.253906 5.828125 -7.394531 5.953125 -5.53125 Z M 5.953125 -5.53125 "/></g></g></g><g fill="#2563eb" fill-opacity="1"><g transform="translate(60.204897, 48.590809)"><g><path d="M 19.84375 -13.8125 C 20.3125 -13.59375 20.640625 -13.234375 20.828125 -12.734375 C 21.015625 -12.242188 21 -11.765625 20.78125 -11.296875 C 20.65625 -10.984375 20.328125 -10.320312 19.796875 -9.3125 C 19.273438 -8.3125 18.585938 -7.164062 17.734375 -5.875 C 16.878906 -4.59375 15.894531 -3.351562 14.78125 -2.15625 C 13.664062 -0.96875 12.457031 -0.03125 11.15625 0.65625 C 10.9375 0.863281 10.6875 1.03125 10.40625 1.15625 C 10.132812 1.28125 9.859375 1.421875 9.578125 1.578125 C 9.171875 1.765625 8.742188 1.863281 8.296875 1.875 C 7.847656 1.894531 7.40625 1.875 6.96875 1.8125 C 6.476562 1.71875 5.988281 1.625 5.5 1.53125 C 5.019531 1.4375 4.535156 1.328125 4.046875 1.203125 C 3.085938 0.992188 2.34375 0.453125 1.8125 -0.421875 C 1.75 -0.515625 1.6875 -0.65625 1.625 -0.84375 C 1.5625 -0.988281 1.488281 -1.125 1.40625 -1.25 C 1.332031 -1.375 1.265625 -1.5 1.203125 -1.625 C 1.140625 -1.71875 1.078125 -1.800781 1.015625 -1.875 C 0.960938 -1.957031 0.90625 -2.046875 0.84375 -2.140625 C 0.65625 -2.578125 0.472656 -2.992188 0.296875 -3.390625 C 0.128906 -3.796875 -0.03125 -4.203125 -0.1875 -4.609375 C -0.34375 -5.128906 -0.488281 -5.648438 -0.625 -6.171875 C -0.769531 -6.703125 -0.828125 -7.25 -0.796875 -7.8125 C -0.765625 -8.363281 -0.753906 -8.914062 -0.765625 -9.46875 C -0.785156 -10.03125 -0.765625 -10.578125 -0.703125 -11.109375 C -0.671875 -11.546875 -0.597656 -11.957031 -0.484375 -12.34375 C -0.378906 -12.726562 -0.265625 -13.125 -0.140625 -13.53125 C 0.234375 -14.550781 0.695312 -15.585938 1.25 -16.640625 C 1.5625 -17.234375 1.878906 -17.816406 2.203125 -18.390625 C 2.535156 -18.960938 2.867188 -19.523438 3.203125 -20.078125 C 3.515625 -20.546875 3.835938 -21.003906 4.171875 -21.453125 C 4.515625 -21.898438 4.875 -22.328125 5.25 -22.734375 C 5.5625 -23.078125 5.898438 -23.394531 6.265625 -23.6875 C 6.640625 -23.976562 7.03125 -24.25 7.4375 -24.5 C 7.53125 -24.5625 7.804688 -24.679688 8.265625 -24.859375 C 8.734375 -25.046875 9.273438 -25.191406 9.890625 -25.296875 C 10.515625 -25.410156 11.128906 -25.398438 11.734375 -25.265625 C 12.335938 -25.128906 12.832031 -24.757812 13.21875 -24.15625 C 13.613281 -23.550781 13.78125 -22.613281 13.71875 -21.34375 C 13.65625 -20.71875 13.5625 -20.082031 13.4375 -19.4375 C 13.15625 -18.40625 12.84375 -17.378906 12.5 -16.359375 C 12.40625 -16.046875 12.289062 -15.75 12.15625 -15.46875 C 12.019531 -15.195312 11.875 -14.921875 11.71875 -14.640625 C 11.59375 -14.359375 11.441406 -14.070312 11.265625 -13.78125 C 11.097656 -13.488281 10.921875 -13.1875 10.734375 -12.875 C 10.609375 -12.65625 10.453125 -12.445312 10.265625 -12.25 C 10.085938 -12.050781 9.921875 -11.828125 9.765625 -11.578125 C 9.703125 -11.484375 9.628906 -11.390625 9.546875 -11.296875 C 9.472656 -11.203125 9.40625 -11.109375 9.34375 -11.015625 C 9.1875 -10.796875 9.019531 -10.5625 8.84375 -10.3125 C 8.675781 -10.070312 8.488281 -9.859375 8.28125 -9.671875 C 7.96875 -9.390625 7.644531 -9.113281 7.3125 -8.84375 C 6.988281 -8.582031 6.660156 -8.332031 6.328125 -8.09375 C 6.234375 -8 6.140625 -7.910156 6.046875 -7.828125 C 5.953125 -7.753906 5.890625 -7.640625 5.859375 -7.484375 C 5.828125 -7.046875 5.785156 -6.601562 5.734375 -6.15625 C 5.691406 -5.707031 5.65625 -5.265625 5.625 -4.828125 C 5.59375 -4.710938 5.628906 -4.578125 5.734375 -4.421875 C 5.847656 -4.265625 5.921875 -4.109375 5.953125 -3.953125 C 6.046875 -3.640625 6.222656 -3.410156 6.484375 -3.265625 C 6.742188 -3.128906 6.984375 -2.984375 7.203125 -2.828125 C 7.328125 -2.742188 7.515625 -2.734375 7.765625 -2.796875 C 8.285156 -2.847656 8.785156 -2.953125 9.265625 -3.109375 C 9.753906 -3.265625 10.210938 -3.5 10.640625 -3.8125 C 10.921875 -4.03125 11.191406 -4.242188 11.453125 -4.453125 C 11.722656 -4.671875 11.992188 -4.890625 12.265625 -5.109375 C 13.359375 -6.285156 14.34375 -7.609375 15.21875 -9.078125 C 16.101562 -10.554688 16.796875 -11.820312 17.296875 -12.875 C 17.546875 -13.34375 17.910156 -13.664062 18.390625 -13.84375 C 18.867188 -14.03125 19.351562 -14.019531 19.84375 -13.8125 Z M 7.4375 -13.984375 C 7.34375 -13.679688 7.25 -13.363281 7.15625 -13.03125 C 7.0625 -12.707031 6.953125 -12.378906 6.828125 -12.046875 C 6.859375 -12.015625 6.90625 -12 6.96875 -12 C 8.019531 -13.351562 8.898438 -14.796875 9.609375 -16.328125 C 10.328125 -17.867188 10.84375 -19.492188 11.15625 -21.203125 C 10.875 -20.984375 10.675781 -20.707031 10.5625 -20.375 C 10.457031 -20.050781 10.238281 -19.8125 9.90625 -19.65625 C 9.84375 -19.351562 9.691406 -19.066406 9.453125 -18.796875 C 9.222656 -18.535156 9.046875 -18.234375 8.921875 -17.890625 C 8.796875 -17.585938 8.65625 -17.285156 8.5 -16.984375 C 8.351562 -16.691406 8.21875 -16.375 8.09375 -16.03125 C 7.96875 -15.726562 7.859375 -15.394531 7.765625 -15.03125 C 7.671875 -14.675781 7.5625 -14.328125 7.4375 -13.984375 Z M 1.90625 -12.6875 C 2.03125 -13.0625 2.144531 -13.429688 2.25 -13.796875 C 2.363281 -14.171875 2.484375 -14.546875 2.609375 -14.921875 C 2.578125 -14.921875 2.550781 -14.925781 2.53125 -14.9375 C 2.519531 -14.957031 2.5 -14.96875 2.46875 -14.96875 C 2.34375 -14.59375 2.222656 -14.21875 2.109375 -13.84375 C 2.003906 -13.476562 1.890625 -13.125 1.765625 -12.78125 C 1.796875 -12.75 1.816406 -12.734375 1.828125 -12.734375 C 1.847656 -12.734375 1.875 -12.71875 1.90625 -12.6875 Z M 1.90625 -12.6875 "/></g></g></g><g fill="#2563eb" fill-opacity="1"><g transform="translate(77.403848, 48.590809)"><g><path d="M 25.328125 -13.8125 C 25.796875 -13.59375 26.113281 -13.226562 26.28125 -12.71875 C 26.457031 -12.207031 26.421875 -11.71875 26.171875 -11.25 C 26.140625 -11.21875 25.898438 -10.765625 25.453125 -9.890625 C 25.003906 -9.023438 24.421875 -7.972656 23.703125 -6.734375 C 23.671875 -6.703125 23.644531 -6.648438 23.625 -6.578125 C 23.613281 -6.503906 23.578125 -6.4375 23.515625 -6.375 C 23.453125 -6.21875 23.375 -6.0625 23.28125 -5.90625 C 23.195312 -5.75 23.09375 -5.59375 22.96875 -5.4375 C 22.8125 -5.15625 22.609375 -4.847656 22.359375 -4.515625 C 21.335938 -2.835938 20.445312 -1.492188 19.6875 -0.484375 C 18.925781 0.515625 18.238281 1.3125 17.625 1.90625 C 17.4375 2.125 17.238281 2.335938 17.03125 2.546875 C 16.832031 2.765625 16.640625 3 16.453125 3.25 C 16.328125 3.4375 16.164062 3.535156 15.96875 3.546875 C 15.769531 3.566406 15.59375 3.578125 15.4375 3.578125 C 15.34375 3.578125 15.25 3.578125 15.15625 3.578125 C 15.0625 3.578125 14.96875 3.578125 14.875 3.578125 C 14.78125 3.578125 14.6875 3.582031 14.59375 3.59375 C 14.5 3.613281 14.40625 3.625 14.3125 3.625 C 14.125 3.625 13.910156 3.59375 13.671875 3.53125 C 13.453125 3.53125 13.21875 3.519531 12.96875 3.5 C 12.71875 3.488281 12.46875 3.484375 12.21875 3.484375 C 11.945312 3.453125 11.707031 3.332031 11.5 3.125 C 11.300781 2.925781 11.1875 2.660156 11.15625 2.328125 C 11.125 1.859375 11.082031 1.382812 11.03125 0.90625 C 10.988281 0.425781 10.984375 -0.0625 11.015625 -0.5625 C 11.140625 -1.488281 11.269531 -2.414062 11.40625 -3.34375 C 11.550781 -4.269531 11.6875 -5.21875 11.8125 -6.1875 C 11.90625 -6.613281 11.992188 -7.0625 12.078125 -7.53125 C 12.171875 -8 12.265625 -8.445312 12.359375 -8.875 C 12.484375 -9.46875 12.597656 -10.039062 12.703125 -10.59375 C 12.816406 -11.15625 12.9375 -11.726562 13.0625 -12.3125 C 13.1875 -12.9375 13.296875 -13.570312 13.390625 -14.21875 C 13.484375 -14.875 13.578125 -15.507812 13.671875 -16.125 C 13.671875 -16.15625 13.671875 -16.175781 13.671875 -16.1875 C 13.671875 -16.207031 13.671875 -16.21875 13.671875 -16.21875 C 13.515625 -16.03125 13.363281 -15.835938 13.21875 -15.640625 C 13.082031 -15.441406 12.9375 -15.234375 12.78125 -15.015625 C 12.65625 -14.828125 12.546875 -14.628906 12.453125 -14.421875 C 12.359375 -14.222656 12.25 -14.019531 12.125 -13.8125 C 11.820312 -13.25 11.53125 -12.703125 11.25 -12.171875 C 11.125 -11.929688 11 -11.675781 10.875 -11.40625 C 10.75 -11.144531 10.625 -10.875 10.5 -10.59375 C 10.375 -10.257812 10.242188 -9.910156 10.109375 -9.546875 C 9.972656 -9.191406 9.828125 -8.828125 9.671875 -8.453125 C 9.578125 -8.210938 9.488281 -7.953125 9.40625 -7.671875 C 9.332031 -7.390625 9.234375 -7.125 9.109375 -6.875 C 8.984375 -6.570312 8.859375 -6.25 8.734375 -5.90625 C 8.609375 -5.5625 8.488281 -5.21875 8.375 -4.875 C 8.25 -4.476562 8.113281 -4.050781 7.96875 -3.59375 C 7.832031 -3.144531 7.6875 -2.707031 7.53125 -2.28125 C 7.40625 -1.875 7.285156 -1.453125 7.171875 -1.015625 C 7.066406 -0.585938 6.953125 -0.15625 6.828125 0.28125 C 6.765625 0.5625 6.671875 0.765625 6.546875 0.890625 C 6.523438 0.921875 6.46875 0.925781 6.375 0.90625 C 6.28125 0.894531 6.171875 0.890625 6.046875 0.890625 C 5.921875 1.066406 5.71875 1.144531 5.4375 1.125 C 5.15625 1.113281 4.9375 1.003906 4.78125 0.796875 C 4.539062 1.003906 4.238281 1.113281 3.875 1.125 C 3.519531 1.144531 3.203125 1.09375 2.921875 0.96875 C 2.804688 0.914062 2.71875 0.890625 2.65625 0.890625 C 2.46875 1.003906 2.28125 1.039062 2.09375 1 C 1.90625 0.957031 1.71875 0.921875 1.53125 0.890625 C 1.28125 0.890625 1.125 0.734375 1.0625 0.421875 C 0.851562 -0.109375 0.703125 -0.660156 0.609375 -1.234375 C 0.515625 -1.804688 0.453125 -2.382812 0.421875 -2.96875 C 0.390625 -3.375 0.347656 -3.757812 0.296875 -4.125 C 0.253906 -4.5 0.21875 -4.890625 0.1875 -5.296875 C 0.1875 -5.546875 0.1875 -5.785156 0.1875 -6.015625 C 0.1875 -6.253906 0.1875 -6.476562 0.1875 -6.6875 C 0.15625 -7.28125 0.125 -7.878906 0.09375 -8.484375 C 0.0625 -9.085938 0.03125 -9.679688 0 -10.265625 C -0.03125 -10.890625 -0.0507812 -11.507812 -0.0625 -12.125 C -0.0820312 -12.75 -0.09375 -13.359375 -0.09375 -13.953125 C -0.09375 -14.566406 -0.0820312 -15.191406 -0.0625 -15.828125 C -0.0507812 -16.460938 -0.03125 -17.085938 0 -17.703125 C 0.0625 -18.296875 0.140625 -18.867188 0.234375 -19.421875 C 0.328125 -19.984375 0.515625 -20.53125 0.796875 -21.0625 C 0.859375 -21.15625 0.890625 -21.242188 0.890625 -21.328125 C 0.890625 -21.421875 0.90625 -21.515625 0.9375 -21.609375 C 1.019531 -21.765625 1.09375 -21.910156 1.15625 -22.046875 C 1.21875 -22.191406 1.359375 -22.28125 1.578125 -22.3125 C 1.671875 -22.34375 1.753906 -22.410156 1.828125 -22.515625 C 1.910156 -22.628906 2 -22.734375 2.09375 -22.828125 C 2.125 -22.796875 2.144531 -22.765625 2.15625 -22.734375 C 2.175781 -22.703125 2.203125 -22.65625 2.234375 -22.59375 C 2.296875 -22.75 2.359375 -22.890625 2.421875 -23.015625 C 2.484375 -23.140625 2.546875 -23.257812 2.609375 -23.375 C 2.703125 -23.289062 2.75 -23.21875 2.75 -23.15625 C 2.832031 -23.300781 2.925781 -23.453125 3.03125 -23.609375 C 3.144531 -23.765625 3.265625 -23.921875 3.390625 -24.078125 C 3.453125 -24.078125 3.488281 -24.078125 3.5 -24.078125 C 3.519531 -24.078125 3.546875 -24.078125 3.578125 -24.078125 C 3.640625 -23.921875 3.722656 -23.75 3.828125 -23.5625 C 3.941406 -23.375 4.015625 -23.191406 4.046875 -23.015625 C 4.359375 -21.710938 4.632812 -20.332031 4.875 -18.875 C 5.03125 -18.007812 5.160156 -17.148438 5.265625 -16.296875 C 5.378906 -15.441406 5.5 -14.582031 5.625 -13.71875 C 5.6875 -13.21875 5.738281 -12.71875 5.78125 -12.21875 C 5.832031 -11.726562 5.890625 -11.234375 5.953125 -10.734375 C 5.984375 -10.453125 6.015625 -10.171875 6.046875 -9.890625 C 6.078125 -9.617188 6.109375 -9.3125 6.140625 -8.96875 C 6.296875 -9.21875 6.441406 -9.457031 6.578125 -9.6875 C 6.710938 -9.925781 6.84375 -10.148438 6.96875 -10.359375 C 7.25 -10.859375 7.53125 -11.363281 7.8125 -11.875 C 8.09375 -12.382812 8.382812 -12.875 8.6875 -13.34375 C 9.21875 -14.144531 9.753906 -14.941406 10.296875 -15.734375 C 10.835938 -16.523438 11.40625 -17.304688 12 -18.078125 C 12.332031 -18.515625 12.6875 -18.910156 13.0625 -19.265625 C 13.4375 -19.617188 13.820312 -19.96875 14.21875 -20.3125 C 14.375 -20.46875 14.535156 -20.597656 14.703125 -20.703125 C 14.878906 -20.816406 15.0625 -20.9375 15.25 -21.0625 C 15.675781 -21.332031 16 -21.222656 16.21875 -20.734375 C 16.34375 -20.421875 16.457031 -20.117188 16.5625 -19.828125 C 16.675781 -19.535156 16.765625 -19.234375 16.828125 -18.921875 C 16.921875 -18.484375 17.003906 -18.039062 17.078125 -17.59375 C 17.160156 -17.144531 17.21875 -16.6875 17.25 -16.21875 C 17.28125 -15.820312 17.28125 -15.421875 17.25 -15.015625 C 17.21875 -14.609375 17.1875 -14.191406 17.15625 -13.765625 C 17.125 -13.453125 17.082031 -13.140625 17.03125 -12.828125 C 16.988281 -12.515625 16.9375 -12.207031 16.875 -11.90625 C 16.8125 -11.40625 16.738281 -10.914062 16.65625 -10.4375 C 16.582031 -9.957031 16.5 -9.46875 16.40625 -8.96875 C 16.375 -8.65625 16.316406 -8.351562 16.234375 -8.0625 C 16.160156 -7.769531 16.09375 -7.46875 16.03125 -7.15625 C 15.96875 -6.78125 15.90625 -6.414062 15.84375 -6.0625 C 15.789062 -5.707031 15.734375 -5.359375 15.671875 -5.015625 C 15.640625 -4.828125 15.609375 -4.640625 15.578125 -4.453125 C 15.546875 -4.273438 15.515625 -4.109375 15.484375 -3.953125 C 15.453125 -3.453125 15.40625 -2.953125 15.34375 -2.453125 C 15.28125 -1.960938 15.21875 -1.46875 15.15625 -0.96875 C 15.15625 -0.96875 15.15625 -0.960938 15.15625 -0.953125 C 15.15625 -0.941406 15.15625 -0.9375 15.15625 -0.9375 C 15.769531 -1.582031 16.503906 -2.515625 17.359375 -3.734375 C 18.210938 -4.960938 19.109375 -6.378906 20.046875 -7.984375 C 20.992188 -9.597656 21.90625 -11.257812 22.78125 -12.96875 C 23.03125 -13.4375 23.398438 -13.753906 23.890625 -13.921875 C 24.390625 -14.085938 24.867188 -14.050781 25.328125 -13.8125 Z M 25.328125 -13.8125 "/></g></g></g><g fill="#2563eb" fill-opacity="1"><g transform="translate(100.134348, 48.590809)"><g><path d="M 5.625 -45.046875 C 5.8125 -44.921875 5.90625 -44.875 5.90625 -44.90625 C 6.125 -45.125 6.332031 -45.332031 6.53125 -45.53125 C 6.726562 -45.726562 6.9375 -45.9375 7.15625 -46.15625 C 7.25 -46 7.347656 -45.851562 7.453125 -45.71875 C 7.566406 -45.582031 7.640625 -45.4375 7.671875 -45.28125 C 7.828125 -44.84375 7.953125 -44.398438 8.046875 -43.953125 C 8.140625 -43.503906 8.25 -43.0625 8.375 -42.625 C 8.457031 -42.125 8.546875 -41.632812 8.640625 -41.15625 C 8.734375 -40.675781 8.828125 -40.191406 8.921875 -39.703125 C 8.984375 -39.203125 9.046875 -38.703125 9.109375 -38.203125 C 9.171875 -37.710938 9.21875 -37.21875 9.25 -36.71875 C 9.3125 -36.320312 9.347656 -35.910156 9.359375 -35.484375 C 9.378906 -35.066406 9.40625 -34.644531 9.4375 -34.21875 C 9.4375 -34.15625 9.441406 -34.09375 9.453125 -34.03125 C 9.472656 -33.96875 9.5 -33.90625 9.53125 -33.84375 C 10.050781 -34 10.550781 -34.148438 11.03125 -34.296875 C 11.519531 -34.453125 12.007812 -34.59375 12.5 -34.71875 C 13.03125 -34.875 13.535156 -35.035156 14.015625 -35.203125 C 14.492188 -35.378906 14.984375 -35.546875 15.484375 -35.703125 C 16.003906 -35.890625 16.523438 -36.070312 17.046875 -36.25 C 17.578125 -36.4375 18.09375 -36.625 18.59375 -36.8125 C 18.65625 -36.8125 18.734375 -36.796875 18.828125 -36.765625 C 18.921875 -36.734375 18.96875 -36.6875 18.96875 -36.625 C 19.03125 -36.40625 19.09375 -36.1875 19.15625 -35.96875 C 19.21875 -35.757812 19.25 -35.53125 19.25 -35.28125 C 19.28125 -35.1875 19.253906 -35.082031 19.171875 -34.96875 C 19.097656 -34.863281 19.03125 -34.78125 18.96875 -34.71875 C 17.976562 -34.226562 16.96875 -33.75 15.9375 -33.28125 C 15.507812 -33.0625 15.0625 -32.867188 14.59375 -32.703125 C 14.132812 -32.535156 13.6875 -32.375 13.25 -32.21875 C 12.65625 -32 12.054688 -31.769531 11.453125 -31.53125 C 10.847656 -31.300781 10.253906 -31.0625 9.671875 -30.8125 C 9.546875 -30.78125 9.425781 -30.648438 9.3125 -30.421875 C 9.207031 -30.191406 9.171875 -29.953125 9.203125 -29.703125 C 9.265625 -29.453125 9.300781 -29.203125 9.3125 -28.953125 C 9.332031 -28.710938 9.28125 -28.46875 9.15625 -28.21875 C 9.0625 -28.03125 9.035156 -27.828125 9.078125 -27.609375 C 9.128906 -27.390625 9.15625 -27.175781 9.15625 -26.96875 C 9.125 -26.78125 9.09375 -26.597656 9.0625 -26.421875 C 9.03125 -26.253906 8.984375 -26.078125 8.921875 -25.890625 C 8.890625 -25.734375 8.875 -25.566406 8.875 -25.390625 C 8.875 -25.222656 8.859375 -25.066406 8.828125 -24.921875 C 8.796875 -24.703125 8.769531 -24.5 8.75 -24.3125 C 8.738281 -24.125 8.71875 -23.921875 8.6875 -23.703125 C 8.6875 -23.578125 8.6875 -23.460938 8.6875 -23.359375 C 8.6875 -23.253906 8.671875 -23.140625 8.640625 -23.015625 C 8.640625 -22.890625 8.640625 -22.753906 8.640625 -22.609375 C 8.640625 -22.472656 8.625 -22.34375 8.59375 -22.21875 C 8.5 -21.632812 8.414062 -21.046875 8.34375 -20.453125 C 8.269531 -19.859375 8.171875 -19.285156 8.046875 -18.734375 C 7.984375 -18.484375 7.96875 -18.21875 8 -17.9375 C 8.03125 -17.664062 7.9375 -17.40625 7.71875 -17.15625 C 7.6875 -17.09375 7.675781 -16.988281 7.6875 -16.84375 C 7.707031 -16.707031 7.703125 -16.578125 7.671875 -16.453125 C 7.640625 -16.296875 7.597656 -16.132812 7.546875 -15.96875 C 7.503906 -15.800781 7.46875 -15.640625 7.4375 -15.484375 C 7.40625 -15.328125 7.40625 -15.160156 7.4375 -14.984375 C 7.46875 -14.816406 7.46875 -14.65625 7.4375 -14.5 C 7.375 -13.726562 7.296875 -12.960938 7.203125 -12.203125 C 7.109375 -11.441406 7.03125 -10.675781 6.96875 -9.90625 C 6.9375 -9.5 6.90625 -9.09375 6.875 -8.6875 C 6.84375 -8.289062 6.8125 -7.890625 6.78125 -7.484375 C 6.75 -7.171875 6.707031 -6.84375 6.65625 -6.5 C 6.613281 -6.164062 6.578125 -5.828125 6.546875 -5.484375 C 6.523438 -5.078125 6.503906 -4.664062 6.484375 -4.25 C 6.472656 -3.832031 6.453125 -3.421875 6.421875 -3.015625 C 6.390625 -2.617188 6.359375 -2.203125 6.328125 -1.765625 C 6.296875 -1.328125 6.265625 -0.894531 6.234375 -0.46875 C 6.203125 -0.03125 6.171875 0.410156 6.140625 0.859375 C 6.109375 1.304688 6.09375 1.765625 6.09375 2.234375 C 6.0625 2.972656 6.035156 3.722656 6.015625 4.484375 C 6.003906 5.242188 5.984375 5.992188 5.953125 6.734375 C 5.953125 7.203125 5.9375 7.664062 5.90625 8.125 C 5.875 8.59375 5.84375 9.0625 5.8125 9.53125 C 5.78125 9.65625 5.75 9.765625 5.71875 9.859375 C 5.6875 9.953125 5.640625 10.046875 5.578125 10.140625 C 5.515625 10.285156 5.421875 10.359375 5.296875 10.359375 C 5.140625 10.296875 4.960938 10.3125 4.765625 10.40625 C 4.566406 10.5 4.4375 10.394531 4.375 10.09375 C 4.3125 9.78125 4.25 9.53125 4.1875 9.34375 C 4.1875 9.5 4.1875 9.660156 4.1875 9.828125 C 4.1875 10.003906 4.1875 10.210938 4.1875 10.453125 C 4 10.390625 3.816406 10.335938 3.640625 10.296875 C 3.472656 10.253906 3.296875 10.21875 3.109375 10.1875 C 2.984375 10.15625 2.867188 10.144531 2.765625 10.15625 C 2.660156 10.175781 2.546875 10.171875 2.421875 10.140625 C 2.265625 10.140625 2.109375 10.0625 1.953125 9.90625 C 1.609375 9.46875 1.378906 8.992188 1.265625 8.484375 C 1.160156 7.972656 1.050781 7.46875 0.9375 6.96875 C 0.78125 6.226562 0.6875 5.46875 0.65625 4.6875 C 0.625 4.132812 0.59375 3.570312 0.5625 3 C 0.53125 2.425781 0.5 1.84375 0.46875 1.25 C 0.4375 0.851562 0.40625 0.441406 0.375 0.015625 C 0.34375 -0.398438 0.3125 -0.804688 0.28125 -1.203125 C 0.28125 -1.546875 0.28125 -1.878906 0.28125 -2.203125 C 0.28125 -2.535156 0.265625 -2.867188 0.234375 -3.203125 C 0.234375 -3.578125 0.21875 -3.957031 0.1875 -4.34375 C 0.15625 -4.726562 0.140625 -5.125 0.140625 -5.53125 C 0.109375 -5.96875 0.09375 -6.410156 0.09375 -6.859375 C 0.09375 -7.304688 0.078125 -7.75 0.046875 -8.1875 C 0.046875 -8.519531 0.0351562 -8.875 0.015625 -9.25 C 0.00390625 -9.625 0 -9.976562 0 -10.3125 C 0 -11.21875 0.00390625 -12.117188 0.015625 -13.015625 C 0.0351562 -13.910156 0.046875 -14.8125 0.046875 -15.71875 C 0.046875 -16.300781 0.0351562 -16.878906 0.015625 -17.453125 C 0.00390625 -18.023438 0 -18.609375 0 -19.203125 C 0.03125 -19.910156 0.0625 -20.613281 0.09375 -21.3125 C 0.125 -22.007812 0.15625 -22.710938 0.1875 -23.421875 C 0.21875 -23.984375 0.253906 -24.539062 0.296875 -25.09375 C 0.347656 -25.65625 0.390625 -26.21875 0.421875 -26.78125 C 0.453125 -26.988281 0.472656 -27.203125 0.484375 -27.421875 C 0.503906 -27.640625 0.53125 -27.859375 0.5625 -28.078125 C 0.15625 -28.015625 -0.222656 -27.957031 -0.578125 -27.90625 C -0.929688 -27.863281 -1.28125 -27.8125 -1.625 -27.75 C -1.96875 -27.71875 -2.316406 -27.6875 -2.671875 -27.65625 C -3.023438 -27.625 -3.375 -27.625 -3.71875 -27.65625 C -4.15625 -27.65625 -4.585938 -27.6875 -5.015625 -27.75 C -5.453125 -27.8125 -5.890625 -27.859375 -6.328125 -27.890625 C -6.472656 -27.921875 -6.59375 -28.015625 -6.6875 -28.171875 C -6.78125 -28.328125 -6.796875 -28.484375 -6.734375 -28.640625 C -6.640625 -29.035156 -6.453125 -29.347656 -6.171875 -29.578125 C -5.898438 -29.816406 -5.609375 -30.015625 -5.296875 -30.171875 C -4.984375 -30.359375 -4.632812 -30.492188 -4.25 -30.578125 C -3.863281 -30.671875 -3.5 -30.765625 -3.15625 -30.859375 C -2.820312 -30.953125 -2.488281 -31.046875 -2.15625 -31.140625 C -1.832031 -31.234375 -1.5 -31.328125 -1.15625 -31.421875 C -1.03125 -31.453125 -0.90625 -31.46875 -0.78125 -31.46875 C -0.664062 -31.46875 -0.546875 -31.484375 -0.421875 -31.515625 C -0.171875 -31.578125 0.0625 -31.625 0.28125 -31.65625 C 0.5 -31.6875 0.71875 -31.71875 0.9375 -31.75 C 1.019531 -32.21875 1.113281 -32.679688 1.21875 -33.140625 C 1.332031 -33.609375 1.4375 -34.085938 1.53125 -34.578125 C 1.59375 -35.015625 1.65625 -35.441406 1.71875 -35.859375 C 1.78125 -36.273438 1.859375 -36.6875 1.953125 -37.09375 C 2.078125 -37.65625 2.203125 -38.210938 2.328125 -38.765625 C 2.453125 -39.328125 2.578125 -39.867188 2.703125 -40.390625 C 2.847656 -40.859375 3.003906 -41.316406 3.171875 -41.765625 C 3.347656 -42.210938 3.53125 -42.65625 3.71875 -43.09375 C 3.75 -43.15625 3.816406 -43.203125 3.921875 -43.234375 C 4.035156 -43.265625 4.140625 -43.296875 4.234375 -43.328125 C 4.359375 -43.453125 4.476562 -43.582031 4.59375 -43.71875 C 4.71875 -43.851562 4.84375 -44 4.96875 -44.15625 C 4.96875 -43.90625 4.96875 -43.65625 4.96875 -43.40625 C 4.96875 -43.164062 4.96875 -42.90625 4.96875 -42.625 C 5.09375 -43.0625 5.203125 -43.472656 5.296875 -43.859375 C 5.390625 -44.242188 5.5 -44.640625 5.625 -45.046875 Z M 4.5625 -37.703125 C 4.53125 -37.734375 4.484375 -37.75 4.421875 -37.75 C 4.328125 -36.875 4.234375 -36.007812 4.140625 -35.15625 C 4.046875 -34.3125 3.9375 -33.453125 3.8125 -32.578125 C 3.90625 -32.578125 3.984375 -32.566406 4.046875 -32.546875 C 4.140625 -33.410156 4.222656 -34.265625 4.296875 -35.109375 C 4.378906 -35.960938 4.46875 -36.828125 4.5625 -37.703125 Z M 4.5625 -37.703125 "/></g></g></g><g fill="#10b981" fill-opacity="1"><g transform="translate(110.268344, 48.590809)"><g><path d="M 5.25 9.203125 C 5 9.203125 4.828125 9.21875 4.734375 9.25 C 4.703125 9.25 4.671875 9.253906 4.640625 9.265625 C 4.617188 9.285156 4.578125 9.296875 4.515625 9.296875 C 4.109375 9.234375 3.710938 9.1875 3.328125 9.15625 C 2.941406 9.125 2.546875 9.0625 2.140625 8.96875 C 2.015625 8.9375 1.890625 8.84375 1.765625 8.6875 C 1.640625 8.53125 1.53125 8.394531 1.4375 8.28125 C 1.375 8.15625 1.328125 8.019531 1.296875 7.875 C 1.265625 7.738281 1.21875 7.609375 1.15625 7.484375 C 1.125 7.234375 1.082031 6.976562 1.03125 6.71875 C 0.988281 6.457031 0.957031 6.203125 0.9375 5.953125 C 0.90625 5.578125 0.863281 5.203125 0.8125 4.828125 C 0.769531 4.460938 0.71875 4.109375 0.65625 3.765625 C 0.625 3.390625 0.609375 3.023438 0.609375 2.671875 C 0.609375 2.316406 0.609375 1.953125 0.609375 1.578125 C 0.578125 1.234375 0.5625 0.875 0.5625 0.5 C 0.5625 0.132812 0.5625 -0.21875 0.5625 -0.5625 C 0.5625 -0.8125 0.566406 -1.070312 0.578125 -1.34375 C 0.597656 -1.625 0.609375 -1.890625 0.609375 -2.140625 C 0.640625 -2.546875 0.644531 -2.941406 0.625 -3.328125 C 0.613281 -3.710938 0.625 -4.109375 0.65625 -4.515625 C 0.6875 -4.878906 0.71875 -5.238281 0.75 -5.59375 C 0.78125 -5.957031 0.8125 -6.304688 0.84375 -6.640625 C 0.875 -6.953125 0.890625 -7.269531 0.890625 -7.59375 C 0.890625 -7.925781 0.90625 -8.242188 0.9375 -8.546875 C 0.957031 -8.828125 0.984375 -9.113281 1.015625 -9.40625 C 1.046875 -9.707031 1.078125 -9.992188 1.109375 -10.265625 C 1.140625 -10.484375 1.171875 -10.691406 1.203125 -10.890625 C 1.234375 -11.097656 1.265625 -11.3125 1.296875 -11.53125 C 1.359375 -11.875 1.421875 -12.222656 1.484375 -12.578125 C 1.546875 -12.929688 1.59375 -13.265625 1.625 -13.578125 C 1.6875 -13.910156 1.738281 -14.25 1.78125 -14.59375 C 1.832031 -14.9375 1.875 -15.265625 1.90625 -15.578125 C 1.96875 -15.816406 2.015625 -16.066406 2.046875 -16.328125 C 2.078125 -16.597656 2.125 -16.859375 2.1875 -17.109375 C 2.28125 -17.535156 2.378906 -17.941406 2.484375 -18.328125 C 2.597656 -18.722656 2.710938 -19.125 2.828125 -19.53125 C 2.890625 -19.800781 2.953125 -20.078125 3.015625 -20.359375 C 3.078125 -20.640625 3.140625 -20.921875 3.203125 -21.203125 C 3.296875 -21.535156 3.394531 -21.863281 3.5 -22.1875 C 3.613281 -22.519531 3.734375 -22.84375 3.859375 -23.15625 C 3.984375 -23.488281 4.109375 -23.84375 4.234375 -24.21875 C 4.359375 -24.59375 4.484375 -24.945312 4.609375 -25.28125 C 4.753906 -25.71875 4.921875 -26.132812 5.109375 -26.53125 C 5.296875 -26.9375 5.46875 -27.34375 5.625 -27.75 C 5.75 -28 5.875 -28.242188 6 -28.484375 C 6.125 -28.734375 6.25 -28.96875 6.375 -29.1875 C 6.519531 -29.5625 6.75 -29.863281 7.0625 -30.09375 C 7.375 -30.332031 7.6875 -30.554688 8 -30.765625 C 8.03125 -30.765625 8.109375 -30.738281 8.234375 -30.6875 C 8.296875 -30.800781 8.347656 -30.921875 8.390625 -31.046875 C 8.429688 -31.171875 8.5 -31.25 8.59375 -31.28125 C 8.84375 -31.34375 9.035156 -31.46875 9.171875 -31.65625 C 9.316406 -31.84375 9.5 -31.96875 9.71875 -32.03125 C 10 -31.71875 10.164062 -31.351562 10.21875 -30.9375 C 10.28125 -30.519531 10.390625 -30.109375 10.546875 -29.703125 C 10.796875 -29.765625 11.0625 -29.847656 11.34375 -29.953125 C 11.625 -30.066406 11.898438 -30.15625 12.171875 -30.21875 C 12.515625 -30.3125 12.847656 -30.394531 13.171875 -30.46875 C 13.503906 -30.550781 13.835938 -30.632812 14.171875 -30.71875 C 14.390625 -30.78125 14.597656 -30.84375 14.796875 -30.90625 C 15.003906 -30.96875 15.21875 -31.015625 15.4375 -31.046875 C 15.65625 -31.109375 15.863281 -31.175781 16.0625 -31.25 C 16.257812 -31.332031 16.46875 -31.359375 16.6875 -31.328125 C 17.03125 -31.328125 17.378906 -31.375 17.734375 -31.46875 C 18.085938 -31.5625 18.4375 -31.625 18.78125 -31.65625 C 19.125 -31.6875 19.472656 -31.722656 19.828125 -31.765625 C 20.179688 -31.816406 20.53125 -31.859375 20.875 -31.890625 C 21.15625 -31.921875 21.429688 -31.925781 21.703125 -31.90625 C 21.984375 -31.894531 22.265625 -31.90625 22.546875 -31.9375 C 22.890625 -31.9375 23.210938 -31.941406 23.515625 -31.953125 C 23.828125 -31.972656 24.140625 -32 24.453125 -32.03125 C 24.890625 -32.09375 25.332031 -32.125 25.78125 -32.125 C 26.226562 -32.125 26.664062 -32.125 27.09375 -32.125 C 27.59375 -32.125 27.90625 -31.890625 28.03125 -31.421875 C 28.15625 -30.929688 28.28125 -30.421875 28.40625 -29.890625 C 28.53125 -29.359375 28.578125 -28.816406 28.546875 -28.265625 C 28.546875 -28.203125 28.550781 -28.128906 28.5625 -28.046875 C 28.582031 -27.972656 28.609375 -27.890625 28.640625 -27.796875 C 28.234375 -27.703125 27.835938 -27.609375 27.453125 -27.515625 C 27.066406 -27.421875 26.671875 -27.34375 26.265625 -27.28125 C 25.984375 -27.25 25.695312 -27.21875 25.40625 -27.1875 C 25.113281 -27.15625 24.828125 -27.109375 24.546875 -27.046875 C 24.203125 -26.992188 23.875 -26.925781 23.5625 -26.84375 C 23.257812 -26.769531 22.9375 -26.703125 22.59375 -26.640625 C 22.3125 -26.609375 22.03125 -26.5625 21.75 -26.5 C 21.476562 -26.4375 21.203125 -26.375 20.921875 -26.3125 C 20.609375 -26.28125 20.300781 -26.25 20 -26.21875 C 19.707031 -26.1875 19.425781 -26.140625 19.15625 -26.078125 C 18.9375 -26.046875 18.707031 -26.003906 18.46875 -25.953125 C 18.238281 -25.910156 18.015625 -25.875 17.796875 -25.84375 C 17.585938 -25.8125 17.375 -25.796875 17.15625 -25.796875 C 16.9375 -25.796875 16.71875 -25.78125 16.5 -25.75 C 16.007812 -25.71875 15.519531 -25.6875 15.03125 -25.65625 C 14.550781 -25.625 14.066406 -25.578125 13.578125 -25.515625 C 13.359375 -25.515625 13.15625 -25.515625 12.96875 -25.515625 C 12.78125 -25.515625 12.578125 -25.515625 12.359375 -25.515625 C 12.148438 -25.515625 11.925781 -25.515625 11.6875 -25.515625 C 11.457031 -25.515625 11.21875 -25.515625 10.96875 -25.515625 C 10.8125 -25.453125 10.734375 -25.40625 10.734375 -25.375 C 10.703125 -25.164062 10.675781 -24.96875 10.65625 -24.78125 C 10.644531 -24.59375 10.625 -24.40625 10.59375 -24.21875 C 10.5625 -24.0625 10.519531 -23.90625 10.46875 -23.75 C 10.425781 -23.59375 10.40625 -23.4375 10.40625 -23.28125 C 10.40625 -23.039062 10.410156 -22.796875 10.421875 -22.546875 C 10.441406 -22.296875 10.46875 -22.046875 10.5 -21.796875 C 10.5625 -21.429688 10.613281 -21.0625 10.65625 -20.6875 C 10.707031 -20.3125 10.75 -19.9375 10.78125 -19.5625 C 10.8125 -19.195312 10.832031 -18.828125 10.84375 -18.453125 C 10.863281 -18.078125 10.875 -17.707031 10.875 -17.34375 C 10.875 -17.125 10.863281 -16.894531 10.84375 -16.65625 C 10.832031 -16.425781 10.8125 -16.203125 10.78125 -15.984375 C 10.75 -15.679688 10.875 -15.5625 11.15625 -15.625 C 11.59375 -15.6875 12.023438 -15.757812 12.453125 -15.84375 C 12.890625 -15.9375 13.328125 -16 13.765625 -16.03125 C 13.910156 -16.09375 14.078125 -16.113281 14.265625 -16.09375 C 14.453125 -16.082031 14.640625 -16.09375 14.828125 -16.125 C 15.109375 -16.1875 15.394531 -16.234375 15.6875 -16.265625 C 15.976562 -16.296875 16.265625 -16.328125 16.546875 -16.359375 C 16.921875 -16.421875 17.285156 -16.453125 17.640625 -16.453125 C 17.992188 -16.453125 18.34375 -16.46875 18.6875 -16.5 C 18.875 -16.5 18.96875 -16.40625 18.96875 -16.21875 C 19.03125 -15.820312 19.09375 -15.425781 19.15625 -15.03125 C 19.21875 -14.644531 19.28125 -14.253906 19.34375 -13.859375 C 19.34375 -13.765625 19.28125 -13.6875 19.15625 -13.625 C 18.8125 -13.375 18.4375 -13.191406 18.03125 -13.078125 C 17.632812 -12.972656 17.234375 -12.859375 16.828125 -12.734375 C 16.578125 -12.671875 16.320312 -12.597656 16.0625 -12.515625 C 15.800781 -12.441406 15.546875 -12.375 15.296875 -12.3125 C 15.078125 -12.25 14.84375 -12.195312 14.59375 -12.15625 C 14.34375 -12.113281 14.097656 -12.0625 13.859375 -12 C 13.421875 -11.875 12.976562 -11.753906 12.53125 -11.640625 C 12.082031 -11.535156 11.640625 -11.421875 11.203125 -11.296875 C 11.171875 -11.296875 11.128906 -11.300781 11.078125 -11.3125 C 11.035156 -11.332031 10.984375 -11.34375 10.921875 -11.34375 C 10.578125 -11.34375 10.390625 -11.1875 10.359375 -10.875 C 10.273438 -10.382812 10.203125 -9.890625 10.140625 -9.390625 C 10.078125 -8.890625 10 -8.394531 9.90625 -7.90625 C 9.875 -7.625 9.828125 -7.347656 9.765625 -7.078125 C 9.703125 -6.816406 9.640625 -6.566406 9.578125 -6.328125 C 9.484375 -5.890625 9.390625 -5.445312 9.296875 -5 C 9.203125 -4.550781 9.109375 -4.109375 9.015625 -3.671875 C 8.828125 -2.992188 8.640625 -2.3125 8.453125 -1.625 C 8.273438 -0.945312 8.09375 -0.25 7.90625 0.46875 C 7.75 1.050781 7.578125 1.648438 7.390625 2.265625 C 7.203125 2.890625 7.015625 3.515625 6.828125 4.140625 C 6.703125 4.660156 6.5625 5.1875 6.40625 5.71875 C 6.257812 6.25 6.109375 6.773438 5.953125 7.296875 C 5.828125 7.640625 5.707031 7.960938 5.59375 8.265625 C 5.488281 8.578125 5.375 8.890625 5.25 9.203125 Z M 6.1875 -24.078125 C 5.65625 -22.585938 5.234375 -21.078125 4.921875 -19.546875 C 4.617188 -18.015625 4.375 -16.457031 4.1875 -14.875 C 4.519531 -16.425781 4.847656 -17.96875 5.171875 -19.5 C 5.503906 -21.03125 5.84375 -22.554688 6.1875 -24.078125 Z M 8.40625 -10.828125 C 8.382812 -10.828125 8.359375 -10.832031 8.328125 -10.84375 C 8.296875 -10.863281 8.25 -10.875 8.1875 -10.875 C 7.96875 -10.164062 7.8125 -9.429688 7.71875 -8.671875 C 7.625 -7.910156 7.484375 -7.175781 7.296875 -6.46875 C 7.265625 -6.40625 7.253906 -6.332031 7.265625 -6.25 C 7.285156 -6.175781 7.296875 -6.109375 7.296875 -6.046875 C 7.328125 -6.046875 7.347656 -6.046875 7.359375 -6.046875 C 7.378906 -6.046875 7.40625 -6.046875 7.4375 -6.046875 C 7.59375 -6.847656 7.753906 -7.644531 7.921875 -8.4375 C 8.097656 -9.226562 8.257812 -10.023438 8.40625 -10.828125 Z M 8.40625 -10.828125 "/></g></g></g><g fill="#10b981" fill-opacity="1"><g transform="translate(128.071586, 48.590809)"><g><path d="M 17.25 -13.859375 C 17.738281 -13.640625 18.082031 -13.296875 18.28125 -12.828125 C 18.488281 -12.359375 18.5 -11.878906 18.3125 -11.390625 L 11.296875 5.765625 C 11.265625 5.890625 11.222656 6.015625 11.171875 6.140625 C 11.128906 6.265625 11.078125 6.398438 11.015625 6.546875 C 11.015625 6.546875 10.890625 6.796875 10.640625 7.296875 C 10.390625 7.796875 10.039062 8.347656 9.59375 8.953125 C 9.144531 9.554688 8.601562 10.039062 7.96875 10.40625 C 7.332031 10.78125 6.613281 10.84375 5.8125 10.59375 C 5.4375 10.46875 5.140625 10.40625 4.921875 10.40625 C 4.085938 10.226562 3.515625 9.75 3.203125 8.96875 C 3.078125 8.65625 2.9375 8.359375 2.78125 8.078125 C 2.632812 7.804688 2.5 7.515625 2.375 7.203125 C 2.25 6.859375 2.140625 6.507812 2.046875 6.15625 C 1.953125 5.800781 1.859375 5.4375 1.765625 5.0625 C 1.640625 4.539062 1.519531 4.015625 1.40625 3.484375 C 1.300781 2.960938 1.1875 2.4375 1.0625 1.90625 C 1.03125 1.75 1.003906 1.578125 0.984375 1.390625 C 0.972656 1.203125 0.957031 1.019531 0.9375 0.84375 C 0.90625 0.5625 0.875 0.285156 0.84375 0.015625 C 0.8125 -0.242188 0.765625 -0.515625 0.703125 -0.796875 C 0.671875 -1.222656 0.628906 -1.664062 0.578125 -2.125 C 0.535156 -2.59375 0.484375 -3.046875 0.421875 -3.484375 C 0.390625 -3.765625 0.375 -4.050781 0.375 -4.34375 C 0.375 -4.632812 0.34375 -4.921875 0.28125 -5.203125 C 0.25 -5.328125 0.1875 -5.4375 0.09375 -5.53125 C 0 -5.625 -0.078125 -5.734375 -0.140625 -5.859375 C -0.203125 -5.984375 -0.234375 -6.078125 -0.234375 -6.140625 C -0.234375 -6.296875 -0.222656 -6.425781 -0.203125 -6.53125 C -0.191406 -6.632812 -0.171875 -6.75 -0.140625 -6.875 C -0.078125 -7.28125 -0.0234375 -7.675781 0.015625 -8.0625 C 0.0664062 -8.445312 0.09375 -8.84375 0.09375 -9.25 C 0.125 -9.6875 0.113281 -10.113281 0.0625 -10.53125 C 0.0195312 -10.945312 0 -11.359375 0 -11.765625 C 0 -12.035156 0 -12.3125 0 -12.59375 C 0 -12.875 0.015625 -13.140625 0.046875 -13.390625 C 0.109375 -13.910156 0.160156 -14.410156 0.203125 -14.890625 C 0.253906 -15.378906 0.296875 -15.867188 0.328125 -16.359375 C 0.359375 -16.546875 0.363281 -16.722656 0.34375 -16.890625 C 0.332031 -17.066406 0.34375 -17.25 0.375 -17.4375 C 0.4375 -17.925781 0.488281 -18.398438 0.53125 -18.859375 C 0.582031 -19.328125 0.625 -19.796875 0.65625 -20.265625 C 0.71875 -20.703125 0.769531 -21.128906 0.8125 -21.546875 C 0.863281 -21.960938 0.914062 -22.375 0.96875 -22.78125 C 1.125 -23.488281 1.269531 -24.195312 1.40625 -24.90625 C 1.550781 -25.625 1.703125 -26.335938 1.859375 -27.046875 C 2.140625 -28.347656 2.460938 -29.585938 2.828125 -30.765625 C 3.015625 -31.359375 3.234375 -31.929688 3.484375 -32.484375 C 3.734375 -33.046875 4.015625 -33.59375 4.328125 -34.125 C 4.484375 -34.332031 4.613281 -34.550781 4.71875 -34.78125 C 4.820312 -35.019531 4.9375 -35.25 5.0625 -35.46875 C 5.1875 -35.65625 5.316406 -35.828125 5.453125 -35.984375 C 5.597656 -36.140625 5.78125 -36.242188 6 -36.296875 C 6.15625 -36.359375 6.300781 -36.4375 6.4375 -36.53125 C 6.570312 -36.625 6.703125 -36.71875 6.828125 -36.8125 C 6.859375 -36.8125 6.878906 -36.828125 6.890625 -36.859375 C 6.910156 -36.890625 6.9375 -36.90625 6.96875 -36.90625 C 7.28125 -36.84375 7.484375 -36.90625 7.578125 -37.09375 C 7.671875 -37.28125 7.78125 -37.453125 7.90625 -37.609375 C 7.90625 -37.640625 7.9375 -37.640625 8 -37.609375 C 8.125 -37.671875 8.238281 -37.722656 8.34375 -37.765625 C 8.445312 -37.816406 8.5625 -37.859375 8.6875 -37.890625 C 8.6875 -37.890625 8.6875 -37.894531 8.6875 -37.90625 C 8.6875 -37.925781 8.6875 -37.9375 8.6875 -37.9375 C 8.8125 -38.03125 8.9375 -38.117188 9.0625 -38.203125 C 9.1875 -38.296875 9.328125 -38.40625 9.484375 -38.53125 C 9.546875 -38.40625 9.613281 -38.296875 9.6875 -38.203125 C 9.769531 -38.117188 9.828125 -38.015625 9.859375 -37.890625 C 9.921875 -37.484375 10 -37.085938 10.09375 -36.703125 C 10.1875 -36.316406 10.242188 -35.921875 10.265625 -35.515625 C 10.328125 -34.828125 10.375 -34.148438 10.40625 -33.484375 C 10.4375 -32.828125 10.453125 -32.15625 10.453125 -31.46875 C 10.453125 -31.15625 10.421875 -30.835938 10.359375 -30.515625 C 10.296875 -30.191406 10.238281 -29.859375 10.1875 -29.515625 C 10.15625 -28.992188 10.109375 -28.46875 10.046875 -27.9375 C 9.984375 -27.40625 9.9375 -26.878906 9.90625 -26.359375 C 9.84375 -25.304688 9.796875 -24.234375 9.765625 -23.140625 C 9.734375 -22.054688 9.6875 -20.972656 9.625 -19.890625 C 9.59375 -19.242188 9.566406 -18.585938 9.546875 -17.921875 C 9.535156 -17.253906 9.5 -16.59375 9.4375 -15.9375 C 9.40625 -15.101562 9.359375 -14.265625 9.296875 -13.421875 C 9.234375 -12.585938 9.1875 -11.753906 9.15625 -10.921875 C 9.125 -10.085938 9.082031 -9.257812 9.03125 -8.4375 C 8.988281 -7.613281 8.96875 -6.785156 8.96875 -5.953125 C 8.9375 -4.710938 8.910156 -3.460938 8.890625 -2.203125 C 8.878906 -0.953125 8.875 0.304688 8.875 1.578125 L 14.78125 -12.828125 C 14.96875 -13.328125 15.300781 -13.675781 15.78125 -13.875 C 16.257812 -14.070312 16.75 -14.066406 17.25 -13.859375 Z M 5.953125 -5.53125 C 6.015625 -7.394531 6.0625 -9.25 6.09375 -11.09375 C 6.125 -12.9375 6.15625 -14.785156 6.1875 -16.640625 C 6.15625 -16.640625 6.128906 -16.640625 6.109375 -16.640625 C 6.097656 -16.640625 6.09375 -16.640625 6.09375 -16.640625 C 5.8125 -14.816406 5.6875 -12.972656 5.71875 -11.109375 C 5.75 -9.253906 5.828125 -7.394531 5.953125 -5.53125 Z M 5.953125 -5.53125 "/></g></g></g><g fill="#10b981" fill-opacity="1"><g transform="translate(142.853382, 48.590809)"><g><path d="M 20.21875 -13.34375 C 20.5625 -12.9375 20.707031 -12.46875 20.65625 -11.9375 C 20.613281 -11.414062 20.375 -10.984375 19.9375 -10.640625 C 19.90625 -10.609375 19.59375 -10.40625 19 -10.03125 C 18.414062 -9.664062 17.632812 -9.300781 16.65625 -8.9375 C 15.6875 -8.582031 14.566406 -8.40625 13.296875 -8.40625 C 13.265625 -8.40625 13.21875 -8.40625 13.15625 -8.40625 C 13.09375 -8.40625 13.03125 -8.40625 12.96875 -8.40625 C 12.90625 -8.101562 12.832031 -7.796875 12.75 -7.484375 C 12.675781 -7.171875 12.609375 -6.847656 12.546875 -6.515625 C 12.421875 -6.078125 12.289062 -5.632812 12.15625 -5.1875 C 12.019531 -4.738281 11.875 -4.296875 11.71875 -3.859375 C 11.53125 -3.296875 11.296875 -2.738281 11.015625 -2.1875 C 11.015625 -2.15625 10.988281 -2.113281 10.9375 -2.0625 C 10.894531 -2.019531 10.859375 -1.96875 10.828125 -1.90625 C 10.765625 -1.78125 10.703125 -1.644531 10.640625 -1.5 C 10.578125 -1.363281 10.5 -1.234375 10.40625 -1.109375 C 10.289062 -0.929688 10.144531 -0.75 9.96875 -0.5625 C 9.800781 -0.375 9.640625 -0.1875 9.484375 0 C 9.421875 0.09375 9.328125 0.203125 9.203125 0.328125 C 8.921875 0.640625 8.59375 0.832031 8.21875 0.90625 C 7.851562 0.976562 7.484375 1.015625 7.109375 1.015625 C 6.585938 1.015625 6.066406 1.015625 5.546875 1.015625 C 5.035156 1.015625 4.519531 1 4 0.96875 C 3.59375 0.914062 3.195312 0.890625 2.8125 0.890625 C 2.425781 0.890625 2.0625 0.78125 1.71875 0.5625 C 1.59375 0.5 1.453125 0.421875 1.296875 0.328125 C 1.140625 0.234375 1.03125 0.125 0.96875 0 C 0.757812 -0.3125 0.550781 -0.617188 0.34375 -0.921875 C 0.144531 -1.234375 -0.03125 -1.546875 -0.1875 -1.859375 C -0.34375 -2.203125 -0.472656 -2.566406 -0.578125 -2.953125 C -0.691406 -3.335938 -0.78125 -3.71875 -0.84375 -4.09375 C -0.925781 -4.644531 -1 -5.191406 -1.0625 -5.734375 C -1.125 -6.273438 -1.171875 -6.828125 -1.203125 -7.390625 C -1.203125 -7.734375 -1.171875 -8.082031 -1.109375 -8.4375 C -1.046875 -8.789062 -1 -9.15625 -0.96875 -9.53125 C -0.914062 -9.90625 -0.863281 -10.273438 -0.8125 -10.640625 C -0.769531 -11.015625 -0.703125 -11.390625 -0.609375 -11.765625 C -0.484375 -12.285156 -0.34375 -12.804688 -0.1875 -13.328125 C -0.03125 -13.859375 0.125 -14.375 0.28125 -14.875 C 0.5625 -15.738281 0.894531 -16.570312 1.28125 -17.375 C 1.664062 -18.1875 2.15625 -18.929688 2.75 -19.609375 C 2.832031 -19.703125 2.921875 -19.785156 3.015625 -19.859375 C 3.109375 -19.941406 3.203125 -20.015625 3.296875 -20.078125 C 3.390625 -20.171875 3.53125 -20.28125 3.71875 -20.40625 C 3.96875 -20.625 4.195312 -20.832031 4.40625 -21.03125 C 4.625 -21.238281 4.84375 -21.445312 5.0625 -21.65625 C 5.4375 -21.9375 5.75 -21.9375 6 -21.65625 C 6.34375 -21.90625 6.679688 -22.171875 7.015625 -22.453125 C 7.359375 -22.734375 7.6875 -22.984375 8 -23.203125 C 8.644531 -23.628906 9.390625 -23.75 10.234375 -23.5625 C 10.660156 -23.4375 11 -23.234375 11.25 -22.953125 C 11.5 -22.679688 11.734375 -22.375 11.953125 -22.03125 C 12.222656 -21.539062 12.4375 -21.003906 12.59375 -20.421875 C 12.75 -19.847656 12.890625 -19.285156 13.015625 -18.734375 C 13.203125 -17.960938 13.328125 -17.195312 13.390625 -16.4375 C 13.453125 -15.675781 13.5 -14.890625 13.53125 -14.078125 C 13.5625 -13.773438 13.566406 -13.472656 13.546875 -13.171875 C 13.535156 -12.878906 13.53125 -12.5625 13.53125 -12.21875 C 14.332031 -12.25 15.023438 -12.378906 15.609375 -12.609375 C 16.203125 -12.847656 16.671875 -13.078125 17.015625 -13.296875 C 17.359375 -13.515625 17.53125 -13.625 17.53125 -13.625 C 17.957031 -13.957031 18.429688 -14.097656 18.953125 -14.046875 C 19.484375 -14.003906 19.90625 -13.769531 20.21875 -13.34375 Z M 1.25 -11.390625 C 1.3125 -11.734375 1.363281 -12.066406 1.40625 -12.390625 C 1.457031 -12.710938 1.515625 -13.03125 1.578125 -13.34375 C 1.546875 -13.34375 1.515625 -13.34375 1.484375 -13.34375 C 1.453125 -13.34375 1.421875 -13.34375 1.390625 -13.34375 C 1.359375 -13.03125 1.316406 -12.71875 1.265625 -12.40625 C 1.222656 -12.101562 1.171875 -11.78125 1.109375 -11.4375 C 1.171875 -11.4375 1.21875 -11.421875 1.25 -11.390625 Z M 7.8125 -19.34375 C 7.6875 -19.0625 7.546875 -18.796875 7.390625 -18.546875 C 7.234375 -18.296875 7.125 -18.03125 7.0625 -17.75 C 7.03125 -17.632812 6.988281 -17.503906 6.9375 -17.359375 C 6.894531 -17.222656 6.875 -17.078125 6.875 -16.921875 C 7 -16.515625 7.175781 -16.070312 7.40625 -15.59375 C 7.644531 -15.113281 7.976562 -14.65625 8.40625 -14.21875 C 8.53125 -14.125 8.660156 -14.03125 8.796875 -13.9375 C 8.941406 -13.851562 9.078125 -13.75 9.203125 -13.625 C 9.296875 -13.8125 9.34375 -13.90625 9.34375 -13.90625 C 9.40625 -14.394531 9.457031 -14.878906 9.5 -15.359375 C 9.550781 -15.835938 9.53125 -16.328125 9.4375 -16.828125 C 9.375 -17.265625 9.300781 -17.691406 9.21875 -18.109375 C 9.144531 -18.523438 9 -18.9375 8.78125 -19.34375 C 8.65625 -19.613281 8.546875 -19.753906 8.453125 -19.765625 C 8.367188 -19.785156 8.21875 -19.707031 8 -19.53125 C 7.96875 -19.5 7.9375 -19.46875 7.90625 -19.4375 C 7.875 -19.40625 7.84375 -19.375 7.8125 -19.34375 Z M 6.515625 -5.109375 C 6.660156 -5.359375 6.816406 -5.609375 6.984375 -5.859375 C 7.160156 -6.109375 7.296875 -6.367188 7.390625 -6.640625 C 7.609375 -7.140625 7.800781 -7.628906 7.96875 -8.109375 C 8.144531 -8.585938 8.304688 -9.078125 8.453125 -9.578125 C 7.742188 -9.953125 7.109375 -10.363281 6.546875 -10.8125 C 5.992188 -11.257812 5.515625 -11.726562 5.109375 -12.21875 C 5.078125 -12.15625 5.0625 -12.082031 5.0625 -12 C 5.03125 -11.5625 4.988281 -11.117188 4.9375 -10.671875 C 4.894531 -10.222656 4.859375 -9.78125 4.828125 -9.34375 C 4.796875 -9.21875 4.765625 -9.09375 4.734375 -8.96875 C 4.703125 -8.84375 4.6875 -8.71875 4.6875 -8.59375 C 4.71875 -8.289062 4.753906 -7.988281 4.796875 -7.6875 C 4.847656 -7.394531 4.875 -7.09375 4.875 -6.78125 C 4.84375 -6.320312 4.957031 -5.957031 5.21875 -5.6875 C 5.488281 -5.425781 5.8125 -5.203125 6.1875 -5.015625 C 6.34375 -5.015625 6.453125 -5.046875 6.515625 -5.109375 Z M 6.515625 -5.109375 "/></g></g></g><g fill="#10b981" fill-opacity="1"><g transform="translate(160.377721, 48.590809)"><g><path d="M 29.46875 -13.484375 C 29.8125 -13.078125 29.957031 -12.617188 29.90625 -12.109375 C 29.863281 -11.597656 29.625 -11.171875 29.1875 -10.828125 C 29.15625 -10.796875 28.867188 -10.601562 28.328125 -10.25 C 27.785156 -9.894531 27.054688 -9.546875 26.140625 -9.203125 C 25.234375 -8.859375 24.222656 -8.71875 23.109375 -8.78125 C 22.984375 -8.8125 22.863281 -8.828125 22.75 -8.828125 C 22.644531 -8.828125 22.515625 -8.84375 22.359375 -8.875 C 21.242188 -9.0625 20.222656 -9.484375 19.296875 -10.140625 C 19.171875 -9.796875 19.0625 -9.4375 18.96875 -9.0625 C 18.875 -8.6875 18.765625 -8.332031 18.640625 -8 C 18.515625 -7.59375 18.394531 -7.1875 18.28125 -6.78125 C 18.175781 -6.382812 18.0625 -5.96875 17.9375 -5.53125 C 17.84375 -5.28125 17.742188 -5.023438 17.640625 -4.765625 C 17.535156 -4.503906 17.453125 -4.25 17.390625 -4 C 17.296875 -3.78125 17.21875 -3.550781 17.15625 -3.3125 C 17.09375 -3.082031 17.015625 -2.863281 16.921875 -2.65625 C 16.859375 -2.4375 16.796875 -2.203125 16.734375 -1.953125 C 16.671875 -1.703125 16.5625 -1.46875 16.40625 -1.25 C 16.0625 -0.664062 15.535156 -0.40625 14.828125 -0.46875 C 14.515625 -0.5 14.1875 -0.515625 13.84375 -0.515625 C 13.507812 -0.515625 13.171875 -0.515625 12.828125 -0.515625 C 12.085938 -0.515625 11.625 -0.867188 11.4375 -1.578125 C 11.28125 -2.140625 11.140625 -2.691406 11.015625 -3.234375 C 10.890625 -3.773438 10.765625 -4.320312 10.640625 -4.875 C 10.546875 -5.28125 10.472656 -5.679688 10.421875 -6.078125 C 10.378906 -6.484375 10.328125 -6.890625 10.265625 -7.296875 C 10.265625 -7.296875 10.265625 -7.300781 10.265625 -7.3125 C 10.265625 -7.332031 10.238281 -7.359375 10.1875 -7.390625 C 10.15625 -7.234375 10.113281 -7.082031 10.0625 -6.9375 C 10.019531 -6.800781 9.96875 -6.660156 9.90625 -6.515625 C 9.75 -6.046875 9.597656 -5.585938 9.453125 -5.140625 C 9.316406 -4.691406 9.171875 -4.234375 9.015625 -3.765625 C 8.890625 -3.390625 8.78125 -3.007812 8.6875 -2.625 C 8.59375 -2.238281 8.472656 -1.859375 8.328125 -1.484375 C 8.234375 -1.171875 8.128906 -0.859375 8.015625 -0.546875 C 7.910156 -0.242188 7.8125 0.0625 7.71875 0.375 C 7.625 0.6875 7.535156 0.988281 7.453125 1.28125 C 7.378906 1.570312 7.296875 1.875 7.203125 2.1875 C 7.109375 2.46875 7.015625 2.742188 6.921875 3.015625 C 6.828125 3.296875 6.734375 3.578125 6.640625 3.859375 C 6.609375 3.984375 6.582031 4.109375 6.5625 4.234375 C 6.550781 4.359375 6.5625 4.484375 6.59375 4.609375 C 6.65625 4.910156 6.625 5.175781 6.5 5.40625 C 6.382812 5.644531 6.296875 5.890625 6.234375 6.140625 C 6.203125 6.234375 6.175781 6.332031 6.15625 6.4375 C 6.144531 6.539062 6.109375 6.640625 6.046875 6.734375 C 6.015625 6.828125 5.96875 6.910156 5.90625 6.984375 C 5.84375 7.066406 5.734375 7.078125 5.578125 7.015625 C 5.546875 7.015625 5.519531 7.003906 5.5 6.984375 C 5.488281 6.972656 5.484375 6.96875 5.484375 6.96875 C 5.140625 7.1875 4.78125 7.285156 4.40625 7.265625 C 4.039062 7.253906 3.6875 7.234375 3.34375 7.203125 C 3.03125 7.140625 2.703125 7.125 2.359375 7.15625 C 2.023438 7.1875 1.703125 7.09375 1.390625 6.875 C 1.203125 6.75 1.023438 6.609375 0.859375 6.453125 C 0.691406 6.304688 0.53125 6.15625 0.375 6 C 0.15625 5.71875 -0.046875 5.425781 -0.234375 5.125 C -0.421875 4.832031 -0.546875 4.503906 -0.609375 4.140625 C -0.640625 3.796875 -0.707031 3.460938 -0.8125 3.140625 C -0.914062 2.816406 -1 2.484375 -1.0625 2.140625 C -1.09375 1.984375 -1.109375 1.828125 -1.109375 1.671875 C -1.109375 1.515625 -1.125 1.375 -1.15625 1.25 C -1.1875 0.539062 -1.207031 -0.175781 -1.21875 -0.90625 C -1.238281 -1.632812 -1.234375 -2.351562 -1.203125 -3.0625 C -1.171875 -3.59375 -1.140625 -4.113281 -1.109375 -4.625 C -1.078125 -5.132812 -1.046875 -5.640625 -1.015625 -6.140625 C -0.960938 -6.753906 -0.894531 -7.378906 -0.8125 -8.015625 C -0.738281 -8.648438 -0.671875 -9.28125 -0.609375 -9.90625 C -0.515625 -10.613281 -0.421875 -11.304688 -0.328125 -11.984375 C -0.234375 -12.671875 -0.125 -13.351562 0 -14.03125 C 0.09375 -14.46875 0.207031 -14.914062 0.34375 -15.375 C 0.488281 -15.84375 0.625 -16.296875 0.75 -16.734375 C 0.8125 -16.953125 0.878906 -17.164062 0.953125 -17.375 C 1.023438 -17.59375 1.078125 -17.8125 1.109375 -18.03125 C 1.296875 -18.65625 1.640625 -19.125 2.140625 -19.4375 C 2.234375 -19.5 2.347656 -19.535156 2.484375 -19.546875 C 2.628906 -19.554688 2.71875 -19.519531 2.75 -19.4375 C 2.800781 -19.582031 2.988281 -19.738281 3.3125 -19.90625 C 3.644531 -20.082031 3.976562 -20.21875 4.3125 -20.3125 C 4.65625 -20.40625 4.84375 -20.375 4.875 -20.21875 C 5.0625 -19.664062 5.25 -19.109375 5.4375 -18.546875 C 5.625 -17.984375 5.78125 -17.410156 5.90625 -16.828125 C 6.03125 -16.234375 6.125 -15.632812 6.1875 -15.03125 C 6.25 -14.425781 6.3125 -13.816406 6.375 -13.203125 C 6.4375 -12.890625 6.476562 -12.578125 6.5 -12.265625 C 6.53125 -11.960938 6.5625 -11.640625 6.59375 -11.296875 C 6.65625 -10.953125 6.6875 -10.601562 6.6875 -10.25 C 6.6875 -9.894531 6.703125 -9.546875 6.734375 -9.203125 C 6.796875 -8.523438 6.84375 -7.851562 6.875 -7.1875 C 6.90625 -6.519531 6.96875 -5.828125 7.0625 -5.109375 C 7.125 -5.265625 7.1875 -5.425781 7.25 -5.59375 C 7.3125 -5.769531 7.375 -5.9375 7.4375 -6.09375 C 7.78125 -6.894531 8.128906 -7.707031 8.484375 -8.53125 C 8.835938 -9.351562 9.203125 -10.148438 9.578125 -10.921875 C 9.734375 -11.265625 9.894531 -11.613281 10.0625 -11.96875 C 10.226562 -12.320312 10.421875 -12.65625 10.640625 -12.96875 C 10.859375 -13.3125 11.1875 -13.625 11.625 -13.90625 C 11.6875 -13.9375 11.800781 -13.90625 11.96875 -13.8125 C 12.132812 -13.71875 12.265625 -13.625 12.359375 -13.53125 C 12.609375 -13.21875 12.796875 -12.882812 12.921875 -12.53125 C 13.046875 -12.175781 13.15625 -11.8125 13.25 -11.4375 C 13.40625 -10.90625 13.546875 -10.367188 13.671875 -9.828125 C 13.796875 -9.285156 13.898438 -8.738281 13.984375 -8.1875 C 14.109375 -7.75 14.203125 -7.296875 14.265625 -6.828125 C 14.328125 -6.367188 14.40625 -5.921875 14.5 -5.484375 C 14.5 -5.421875 14.546875 -5.296875 14.640625 -5.109375 C 14.953125 -5.796875 15.242188 -6.460938 15.515625 -7.109375 C 15.796875 -7.765625 16.078125 -8.398438 16.359375 -9.015625 C 16.546875 -9.453125 16.734375 -9.898438 16.921875 -10.359375 C 17.109375 -10.828125 17.296875 -11.28125 17.484375 -11.71875 C 17.484375 -11.71875 17.484375 -11.734375 17.484375 -11.765625 C 17.328125 -11.953125 17.160156 -12.144531 16.984375 -12.34375 C 16.816406 -12.539062 16.65625 -12.75 16.5 -12.96875 C 16.125 -13.375 15.863281 -13.804688 15.71875 -14.265625 C 15.5 -14.859375 15.359375 -15.523438 15.296875 -16.265625 C 15.296875 -16.953125 15.347656 -17.617188 15.453125 -18.265625 C 15.566406 -18.921875 15.742188 -19.554688 15.984375 -20.171875 C 16.140625 -20.515625 16.34375 -20.804688 16.59375 -21.046875 C 16.84375 -21.296875 17.09375 -21.546875 17.34375 -21.796875 C 17.769531 -22.296875 18.253906 -22.5625 18.796875 -22.59375 C 19.335938 -22.625 19.890625 -22.578125 20.453125 -22.453125 C 20.578125 -22.421875 20.703125 -22.332031 20.828125 -22.1875 C 20.953125 -22.050781 21.03125 -21.90625 21.0625 -21.75 C 21.21875 -21.351562 21.320312 -20.9375 21.375 -20.5 C 21.4375 -20.0625 21.425781 -19.613281 21.34375 -19.15625 C 21.21875 -18.6875 21.140625 -18.210938 21.109375 -17.734375 C 21.078125 -17.253906 21.03125 -16.765625 20.96875 -16.265625 C 20.9375 -16.109375 20.90625 -15.9375 20.875 -15.75 C 20.84375 -15.570312 20.796875 -15.40625 20.734375 -15.25 L 20.453125 -14.171875 C 21.253906 -13.335938 22.09375 -12.828125 22.96875 -12.640625 C 23.644531 -12.546875 24.269531 -12.59375 24.84375 -12.78125 C 25.414062 -12.96875 25.878906 -13.175781 26.234375 -13.40625 C 26.597656 -13.644531 26.78125 -13.765625 26.78125 -13.765625 C 27.207031 -14.097656 27.675781 -14.238281 28.1875 -14.1875 C 28.695312 -14.144531 29.125 -13.910156 29.46875 -13.484375 Z M 2.1875 -13.390625 C 2.21875 -13.703125 2.234375 -14.003906 2.234375 -14.296875 C 2.234375 -14.585938 2.25 -14.890625 2.28125 -15.203125 C 2.28125 -15.203125 2.269531 -15.203125 2.25 -15.203125 C 2.238281 -15.203125 2.21875 -15.203125 2.1875 -15.203125 C 2.15625 -14.890625 2.128906 -14.585938 2.109375 -14.296875 C 2.097656 -14.003906 2.078125 -13.703125 2.046875 -13.390625 C 2.078125 -13.390625 2.097656 -13.390625 2.109375 -13.390625 C 2.128906 -13.390625 2.15625 -13.390625 2.1875 -13.390625 Z M 2.328125 -15.34375 C 2.390625 -15.675781 2.4375 -16.03125 2.46875 -16.40625 C 2.5 -16.78125 2.53125 -17.140625 2.5625 -17.484375 C 2.53125 -17.515625 2.484375 -17.53125 2.421875 -17.53125 C 2.390625 -17.15625 2.359375 -16.785156 2.328125 -16.421875 C 2.296875 -16.066406 2.25 -15.707031 2.1875 -15.34375 C 2.21875 -15.34375 2.238281 -15.34375 2.25 -15.34375 C 2.269531 -15.34375 2.296875 -15.34375 2.328125 -15.34375 Z M 17.984375 -19.015625 C 17.953125 -18.515625 17.957031 -18.046875 18 -17.609375 C 18.050781 -17.179688 18.234375 -16.765625 18.546875 -16.359375 C 18.609375 -16.328125 18.671875 -16.296875 18.734375 -16.265625 C 18.796875 -16.234375 18.84375 -16.203125 18.875 -16.171875 C 18.90625 -16.234375 18.925781 -16.285156 18.9375 -16.328125 C 18.957031 -16.378906 18.984375 -16.421875 19.015625 -16.453125 C 19.078125 -16.671875 19.125 -16.890625 19.15625 -17.109375 C 19.1875 -17.328125 19.21875 -17.539062 19.25 -17.75 C 19.3125 -18.125 19.363281 -18.5 19.40625 -18.875 C 19.457031 -19.25 19.5 -19.632812 19.53125 -20.03125 C 19.550781 -20.21875 19.5 -20.347656 19.375 -20.421875 C 19.257812 -20.503906 19.109375 -20.5 18.921875 -20.40625 C 18.359375 -20.1875 18.046875 -19.722656 17.984375 -19.015625 Z M 17.984375 -19.015625 "/></g></g></g><g fill="#1f2937" fill-opacity="1"><g transform="translate(52.66402, 72.630337)"><g><path d="M 1.59375 -1.515625 L 1.6875 -0.875 L 1.8125 -1.453125 L 2.765625 -4.78125 L 3.296875 -4.78125 L 4.21875 -1.453125 L 4.34375 -0.875 L 4.453125 -1.515625 L 5.203125 -4.78125 L 5.828125 -4.78125 L 4.671875 0 L 4.09375 0 L 3.109375 -3.484375 L 3.03125 -3.859375 L 2.953125 -3.484375 L 1.9375 0 L 1.359375 0 L 0.203125 -4.78125 L 0.828125 -4.78125 Z M 1.59375 -1.515625 "/></g></g></g><g fill="#1f2937" fill-opacity="1"><g transform="translate(59.235768, 72.630337)"><g><path d="M 4.234375 -2.234375 C 4.234375 -1.765625 4.15625 -1.351562 4 -1 C 3.84375 -0.65625 3.617188 -0.390625 3.328125 -0.203125 C 3.035156 -0.0234375 2.695312 0.0625 2.3125 0.0625 C 1.9375 0.0625 1.601562 -0.0234375 1.3125 -0.203125 C 1.019531 -0.390625 0.789062 -0.65625 0.625 -1 C 0.46875 -1.34375 0.390625 -1.742188 0.390625 -2.203125 L 0.390625 -2.546875 C 0.390625 -3.003906 0.46875 -3.410156 0.625 -3.765625 C 0.789062 -4.117188 1.019531 -4.390625 1.3125 -4.578125 C 1.601562 -4.765625 1.9375 -4.859375 2.3125 -4.859375 C 2.695312 -4.859375 3.035156 -4.765625 3.328125 -4.578125 C 3.617188 -4.390625 3.84375 -4.117188 4 -3.765625 C 4.15625 -3.421875 4.234375 -3.015625 4.234375 -2.546875 Z M 3.609375 -2.546875 C 3.609375 -3.117188 3.492188 -3.554688 3.265625 -3.859375 C 3.035156 -4.160156 2.71875 -4.3125 2.3125 -4.3125 C 1.914062 -4.3125 1.601562 -4.160156 1.375 -3.859375 C 1.144531 -3.554688 1.023438 -3.132812 1.015625 -2.59375 L 1.015625 -2.234375 C 1.015625 -1.679688 1.128906 -1.25 1.359375 -0.9375 C 1.585938 -0.625 1.90625 -0.46875 2.3125 -0.46875 C 2.726562 -0.46875 3.046875 -0.613281 3.265625 -0.90625 C 3.484375 -1.207031 3.597656 -1.632812 3.609375 -2.1875 Z M 3.609375 -2.546875 "/></g></g></g><g fill="#1f2937" fill-opacity="1"><g transform="translate(64.46175, 72.630337)"><g><path d="M 2.3125 -1.9375 L 1.1875 -1.9375 L 1.1875 0 L 0.546875 0 L 0.546875 -4.78125 L 2.140625 -4.78125 C 2.679688 -4.78125 3.09375 -4.65625 3.375 -4.40625 C 3.664062 -4.164062 3.8125 -3.8125 3.8125 -3.34375 C 3.8125 -3.050781 3.726562 -2.789062 3.5625 -2.5625 C 3.40625 -2.34375 3.1875 -2.179688 2.90625 -2.078125 L 4.03125 -0.046875 L 4.03125 0 L 3.34375 0 Z M 1.1875 -2.453125 L 2.15625 -2.453125 C 2.46875 -2.453125 2.71875 -2.53125 2.90625 -2.6875 C 3.09375 -2.851562 3.1875 -3.070312 3.1875 -3.34375 C 3.1875 -3.644531 3.097656 -3.875 2.921875 -4.03125 C 2.742188 -4.1875 2.488281 -4.265625 2.15625 -4.265625 L 1.1875 -4.265625 Z M 1.1875 -2.453125 "/></g></g></g><g fill="#1f2937" fill-opacity="1"><g transform="translate(69.204047, 72.630337)"><g><path d="M 1.765625 -2.21875 L 1.1875 -1.625 L 1.1875 0 L 0.5625 0 L 0.5625 -4.78125 L 1.1875 -4.78125 L 1.1875 -2.421875 L 3.3125 -4.78125 L 4.078125 -4.78125 L 2.1875 -2.671875 L 4.21875 0 L 3.46875 0 Z M 1.765625 -2.21875 "/></g></g></g><g fill="#1f2937" fill-opacity="1"><g transform="translate(74.022022, 72.630337)"><g><path d="M 0.46875 -0.3125 C 0.46875 -0.425781 0.5 -0.515625 0.5625 -0.578125 C 0.625 -0.648438 0.71875 -0.6875 0.84375 -0.6875 C 0.96875 -0.6875 1.0625 -0.648438 1.125 -0.578125 C 1.195312 -0.515625 1.234375 -0.425781 1.234375 -0.3125 C 1.234375 -0.21875 1.195312 -0.132812 1.125 -0.0625 C 1.0625 0 0.96875 0.03125 0.84375 0.03125 C 0.71875 0.03125 0.625 0 0.5625 -0.0625 C 0.5 -0.132812 0.46875 -0.21875 0.46875 -0.3125 Z M 0.46875 -0.3125 "/></g></g></g><g fill="#1f2937" fill-opacity="1"><g transform="translate(76.388665, 72.630337)"><g/></g></g><g fill="#1f2937" fill-opacity="1"><g transform="translate(78.650016, 72.630337)"><g><path d="M 3.859375 -4.265625 L 2.328125 -4.265625 L 2.328125 0 L 1.703125 0 L 1.703125 -4.265625 L 0.15625 -4.265625 L 0.15625 -4.78125 L 3.859375 -4.78125 Z M 3.859375 -4.265625 "/></g></g></g><g fill="#1f2937" fill-opacity="1"><g transform="translate(83.263987, 72.630337)"><g><path d="M 2.3125 -1.9375 L 1.1875 -1.9375 L 1.1875 0 L 0.546875 0 L 0.546875 -4.78125 L 2.140625 -4.78125 C 2.679688 -4.78125 3.09375 -4.65625 3.375 -4.40625 C 3.664062 -4.164062 3.8125 -3.8125 3.8125 -3.34375 C 3.8125 -3.050781 3.726562 -2.789062 3.5625 -2.5625 C 3.40625 -2.34375 3.1875 -2.179688 2.90625 -2.078125 L 4.03125 -0.046875 L 4.03125 0 L 3.34375 0 Z M 1.1875 -2.453125 L 2.15625 -2.453125 C 2.46875 -2.453125 2.71875 -2.53125 2.90625 -2.6875 C 3.09375 -2.851562 3.1875 -3.070312 3.1875 -3.34375 C 3.1875 -3.644531 3.097656 -3.875 2.921875 -4.03125 C 2.742188 -4.1875 2.488281 -4.265625 2.15625 -4.265625 L 1.1875 -4.265625 Z M 1.1875 -2.453125 "/></g></g></g><g fill="#1f2937" fill-opacity="1"><g transform="translate(88.006282, 72.630337)"><g><path d="M 3.203125 -1.25 L 1.1875 -1.25 L 0.75 0 L 0.09375 0 L 1.921875 -4.78125 L 2.46875 -4.78125 L 4.296875 0 L 3.65625 0 Z M 1.390625 -1.765625 L 3.015625 -1.765625 L 2.203125 -4.015625 Z M 1.390625 -1.765625 "/></g></g></g><g fill="#1f2937" fill-opacity="1"><g transform="translate(92.995359, 72.630337)"><g><path d="M 4.078125 -1.515625 C 4.015625 -1.015625 3.828125 -0.625 3.515625 -0.34375 C 3.203125 -0.0703125 2.785156 0.0625 2.265625 0.0625 C 1.691406 0.0625 1.234375 -0.140625 0.890625 -0.546875 C 0.554688 -0.953125 0.390625 -1.492188 0.390625 -2.171875 L 0.390625 -2.625 C 0.390625 -3.070312 0.46875 -3.460938 0.625 -3.796875 C 0.789062 -4.140625 1.019531 -4.398438 1.3125 -4.578125 C 1.601562 -4.765625 1.9375 -4.859375 2.3125 -4.859375 C 2.820312 -4.859375 3.226562 -4.710938 3.53125 -4.421875 C 3.84375 -4.140625 4.023438 -3.75 4.078125 -3.25 L 3.4375 -3.25 C 3.382812 -3.632812 3.265625 -3.910156 3.078125 -4.078125 C 2.898438 -4.242188 2.644531 -4.328125 2.3125 -4.328125 C 1.914062 -4.328125 1.601562 -4.175781 1.375 -3.875 C 1.144531 -3.582031 1.03125 -3.160156 1.03125 -2.609375 L 1.03125 -2.15625 C 1.03125 -1.632812 1.132812 -1.21875 1.34375 -0.90625 C 1.5625 -0.601562 1.867188 -0.453125 2.265625 -0.453125 C 2.609375 -0.453125 2.875 -0.53125 3.0625 -0.6875 C 3.25 -0.84375 3.375 -1.117188 3.4375 -1.515625 Z M 4.078125 -1.515625 "/></g></g></g><g fill="#1f2937" fill-opacity="1"><g transform="translate(97.974563, 72.630337)"><g><path d="M 1.765625 -2.21875 L 1.1875 -1.625 L 1.1875 0 L 0.5625 0 L 0.5625 -4.78125 L 1.1875 -4.78125 L 1.1875 -2.421875 L 3.3125 -4.78125 L 4.078125 -4.78125 L 2.1875 -2.671875 L 4.21875 0 L 3.46875 0 Z M 1.765625 -2.21875 "/></g></g></g><g fill="#1f2937" fill-opacity="1"><g transform="translate(102.792537, 72.630337)"><g><path d="M 0.46875 -0.3125 C 0.46875 -0.425781 0.5 -0.515625 0.5625 -0.578125 C 0.625 -0.648438 0.71875 -0.6875 0.84375 -0.6875 C 0.96875 -0.6875 1.0625 -0.648438 1.125 -0.578125 C 1.195312 -0.515625 1.234375 -0.425781 1.234375 -0.3125 C 1.234375 -0.21875 1.195312 -0.132812 1.125 -0.0625 C 1.0625 0 0.96875 0.03125 0.84375 0.03125 C 0.71875 0.03125 0.625 0 0.5625 -0.0625 C 0.5 -0.132812 0.46875 -0.21875 0.46875 -0.3125 Z M 0.46875 -0.3125 "/></g></g></g><g fill="#1f2937" fill-opacity="1"><g transform="translate(105.15918, 72.630337)"><g/></g></g><g fill="#1f2937" fill-opacity="1"><g transform="translate(107.42053, 72.630337)"><g><path d="M 1.234375 0 L 0.609375 0 L 0.609375 -4.78125 L 1.234375 -4.78125 Z M 1.234375 0 "/></g></g></g><g fill="#1f2937" fill-opacity="1"><g transform="translate(109.846404, 72.630337)"><g><path d="M 1.375 -4.78125 L 2.9375 -0.875 L 4.5 -4.78125 L 5.328125 -4.78125 L 5.328125 0 L 4.6875 0 L 4.6875 -1.859375 L 4.75 -3.875 L 3.171875 0 L 2.6875 0 L 1.125 -3.859375 L 1.1875 -1.859375 L 1.1875 0 L 0.5625 0 L 0.5625 -4.78125 Z M 1.375 -4.78125 "/></g></g></g><g fill="#1f2937" fill-opacity="1"><g transform="translate(116.322728, 72.630337)"><g><path d="M 1.1875 -1.875 L 1.1875 0 L 0.5625 0 L 0.5625 -4.78125 L 2.328125 -4.78125 C 2.847656 -4.78125 3.253906 -4.644531 3.546875 -4.375 C 3.847656 -4.113281 4 -3.765625 4 -3.328125 C 4 -2.859375 3.851562 -2.5 3.5625 -2.25 C 3.269531 -2 2.851562 -1.875 2.3125 -1.875 Z M 1.1875 -2.390625 L 2.328125 -2.390625 C 2.660156 -2.390625 2.914062 -2.46875 3.09375 -2.625 C 3.28125 -2.789062 3.375 -3.019531 3.375 -3.3125 C 3.375 -3.601562 3.28125 -3.832031 3.09375 -4 C 2.914062 -4.175781 2.671875 -4.265625 2.359375 -4.265625 L 1.1875 -4.265625 Z M 1.1875 -2.390625 "/></g></g></g><g fill="#1f2937" fill-opacity="1"><g transform="translate(121.167025, 72.630337)"><g><path d="M 2.3125 -1.9375 L 1.1875 -1.9375 L 1.1875 0 L 0.546875 0 L 0.546875 -4.78125 L 2.140625 -4.78125 C 2.679688 -4.78125 3.09375 -4.65625 3.375 -4.40625 C 3.664062 -4.164062 3.8125 -3.8125 3.8125 -3.34375 C 3.8125 -3.050781 3.726562 -2.789062 3.5625 -2.5625 C 3.40625 -2.34375 3.1875 -2.179688 2.90625 -2.078125 L 4.03125 -0.046875 L 4.03125 0 L 3.34375 0 Z M 1.1875 -2.453125 L 2.15625 -2.453125 C 2.46875 -2.453125 2.71875 -2.53125 2.90625 -2.6875 C 3.09375 -2.851562 3.1875 -3.070312 3.1875 -3.34375 C 3.1875 -3.644531 3.097656 -3.875 2.921875 -4.03125 C 2.742188 -4.1875 2.488281 -4.265625 2.15625 -4.265625 L 1.1875 -4.265625 Z M 1.1875 -2.453125 "/></g></g></g><g fill="#1f2937" fill-opacity="1"><g transform="translate(125.909325, 72.630337)"><g><path d="M 4.234375 -2.234375 C 4.234375 -1.765625 4.15625 -1.351562 4 -1 C 3.84375 -0.65625 3.617188 -0.390625 3.328125 -0.203125 C 3.035156 -0.0234375 2.695312 0.0625 2.3125 0.0625 C 1.9375 0.0625 1.601562 -0.0234375 1.3125 -0.203125 C 1.019531 -0.390625 0.789062 -0.65625 0.625 -1 C 0.46875 -1.34375 0.390625 -1.742188 0.390625 -2.203125 L 0.390625 -2.546875 C 0.390625 -3.003906 0.46875 -3.410156 0.625 -3.765625 C 0.789062 -4.117188 1.019531 -4.390625 1.3125 -4.578125 C 1.601562 -4.765625 1.9375 -4.859375 2.3125 -4.859375 C 2.695312 -4.859375 3.035156 -4.765625 3.328125 -4.578125 C 3.617188 -4.390625 3.84375 -4.117188 4 -3.765625 C 4.15625 -3.421875 4.234375 -3.015625 4.234375 -2.546875 Z M 3.609375 -2.546875 C 3.609375 -3.117188 3.492188 -3.554688 3.265625 -3.859375 C 3.035156 -4.160156 2.71875 -4.3125 2.3125 -4.3125 C 1.914062 -4.3125 1.601562 -4.160156 1.375 -3.859375 C 1.144531 -3.554688 1.023438 -3.132812 1.015625 -2.59375 L 1.015625 -2.234375 C 1.015625 -1.679688 1.128906 -1.25 1.359375 -0.9375 C 1.585938 -0.625 1.90625 -0.46875 2.3125 -0.46875 C 2.726562 -0.46875 3.046875 -0.613281 3.265625 -0.90625 C 3.484375 -1.207031 3.597656 -1.632812 3.609375 -2.1875 Z M 3.609375 -2.546875 "/></g></g></g><g fill="#1f2937" fill-opacity="1"><g transform="translate(131.135302, 72.630337)"><g><path d="M 2.140625 -0.84375 L 3.515625 -4.78125 L 4.203125 -4.78125 L 2.421875 0 L 1.859375 0 L 0.09375 -4.78125 L 0.78125 -4.78125 Z M 2.140625 -0.84375 "/></g></g></g><g fill="#1f2937" fill-opacity="1"><g transform="translate(136.015795, 72.630337)"><g><path d="M 3.265625 -2.21875 L 1.1875 -2.21875 L 1.1875 -0.515625 L 3.59375 -0.515625 L 3.59375 0 L 0.5625 0 L 0.5625 -4.78125 L 3.5625 -4.78125 L 3.5625 -4.265625 L 1.1875 -4.265625 L 1.1875 -2.734375 L 3.265625 -2.734375 Z M 3.265625 -2.21875 "/></g></g></g><g fill="#1f2937" fill-opacity="1"><g transform="translate(140.438927, 72.630337)"><g><path d="M 0.46875 -0.3125 C 0.46875 -0.425781 0.5 -0.515625 0.5625 -0.578125 C 0.625 -0.648438 0.71875 -0.6875 0.84375 -0.6875 C 0.96875 -0.6875 1.0625 -0.648438 1.125 -0.578125 C 1.195312 -0.515625 1.234375 -0.425781 1.234375 -0.3125 C 1.234375 -0.21875 1.195312 -0.132812 1.125 -0.0625 C 1.0625 0 0.96875 0.03125 0.84375 0.03125 C 0.71875 0.03125 0.625 0 0.5625 -0.0625 C 0.5 -0.132812 0.46875 -0.21875 0.46875 -0.3125 Z M 0.46875 -0.3125 "/></g></g></g></g></g></svg>